<svg
  version="1.0"
  xmlns="http://www.w3.org/2000/svg"
  xmlns:xlink="http://www.w3.org/1999/xlink"
  width="800px"
  height="800px"
  viewBox="0 0 64 64"
  enable-background="new 0 0 64 64"
  xml:space="preserve"
  fill="#ffffff"
>
  <g stroke-width="0" />
  <g stroke-linecap="round" stroke-linejoin="round" />
  <g>
    <g>
      <rect x="14" y="36" fill="#ffffff" width="4" height="10" />
      <path
        fill="#ffffff"
        d="M52,47c0,0.553-0.447,1-1,1h-6c-0.553,0-1-0.447-1-1v-5H20v5c0,0.553-0.447,1-1,1h-6c-0.553,0-1-0.447-1-1 v-5H0v18c0,2.211,1.789,4,4,4h56c2.211,0,4-1.789,4-4V42H52V47z"
      />
      <rect x="46" y="36" fill="#ffffff" width="4" height="10" />
      <path
        fill="#ffffff"
        d="M60,13H48V4c0-2.211-1.789-4-4-4H20c-2.211,0-4,1.789-4,4v9H4c-2.211,0-4,1.789-4,4v23h12v-5 c0-0.553,0.447-1,1-1h6c0.553,0,1,0.447,1,1v5h24v-5c0-0.553,0.447-1,1-1h6c0.553,0,1,0.447,1,1v5h12V17C64,14.789,62.211,13,60,13 z M42,13H22V6h20V13z"
      />
    </g>
  </g>
</svg>