<svg width="45" height="45" viewBox="0 0 45 45" fill="none" xmlns="http://www.w3.org/2000/svg">
  <rect width="45" height="45" fill="#0000FF" />
  <path
    d="M20.0001 15.2587C20.0001 15.2587 20.0001 15 21.5001 15C24.9546 15 28 17.0001 28.0001 21C28.0002 24.9999 28.0001 31 28.0001 32C28.0001 33 30.0001 33 30.0001 33V35C30.0001 35 26.0001 35 26.0001 32C26.0001 32 26.0002 24 26.0001 21C26 18 23.8514 17.0001 21.5001 17.0001C18 17 18.0001 19.0001 18.0001 19.0001L18 15L18.0001 11C18.0001 9 15.0001 9 15.0001 9V7C15.0001 7 20 7 20.0001 11C20.0002 15 20.0001 15.2587 20.0001 15.2587Z"
    fill="white"
  />
  <path d="M17 28L14.9998 28L15 10C15 10 17 10 17 11V28Z" fill="white" />
  <path
    d="M18 21C18 19 19.9257 18 21.5 18C23.0743 18 25 19.307 25 21C25 22.693 25 32 25 32C25 36 30 36 30 36V38C30 38 23 38 23 32C23 26 23 21 23 21C23 20 21.5 20 21.5 20C21.5 20 20 20 20 21V28H18C18 28 18 23.0001 18 21Z"
    fill="white"
  />
</svg>
