<svg width="749" height="771" viewBox="0 0 749 771" fill="none" xmlns="http://www.w3.org/2000/svg">
<g clip-path="url(#clip0_865_11)">
<path d="M373.506 705.488C563.709 705.488 717.9 551.347 717.9 361.204C717.9 171.061 563.709 16.9203 373.506 16.9203C183.302 16.9203 29.1113 171.061 29.1113 361.204C29.1113 551.347 183.302 705.488 373.506 705.488Z" fill="#0000FF"/>
<path d="M73.9417 287.988L72.1445 287.678C72.2358 287.149 81.7055 234.371 118.316 193.896L119.666 195.118C83.4114 235.201 74.033 287.468 73.9417 287.988Z" fill="white"/>
<path d="M123.845 160.443L122.339 159.422C122.631 158.993 151.934 116.503 198.945 95.7726L199.684 97.4415C153.166 117.953 124.137 160.024 123.845 160.443Z" fill="white"/>
<path d="M697.793 354.957H695.968C695.968 289.502 666.255 230.176 665.954 229.583L667.578 228.762C667.879 229.355 697.793 289.055 697.793 354.957Z" fill="white"/>
<path d="M662.268 320.829C660.863 294.755 652.369 272.812 652.287 272.593L653.984 271.927C654.066 272.146 662.66 294.354 664.092 320.729L662.268 320.829Z" fill="white"/>
<path d="M16.7039 275.584L14.9158 275.201C15.0252 274.672 26.5476 222.168 66.9262 169.107L68.3768 170.211C28.2446 222.952 16.8134 275.065 16.7039 275.584Z" fill="black"/>
<path d="M73.7411 128.851L72.3452 127.684C72.4547 127.556 83.156 114.806 96.8041 101.929L98.0539 103.251C84.4788 116.056 73.8414 128.724 73.7411 128.851Z" fill="black"/>
<path d="M118.864 103.187L117.477 102.002C117.632 101.819 133.269 83.7614 163.11 63.4054C190.635 44.6271 236.232 19.9846 297.182 9.17725L297.502 10.9739C236.87 21.7265 191.51 46.2413 164.141 64.9102C134.491 85.1295 119.01 103.005 118.864 103.187Z" fill="black"/>
<path d="M717.024 243.865C701.67 181.301 652.953 127.292 652.46 126.754L653.811 125.522C654.303 126.061 703.33 180.425 718.794 243.427L717.024 243.865Z" fill="black"/>
<path d="M730.554 334.947C728.738 312.193 724.395 292.274 721.075 279.57L722.845 279.105C726.184 291.882 730.554 311.91 732.378 334.801L730.554 334.947Z" fill="black"/>
<path d="M740.452 420.95L738.673 420.539C740.242 413.754 741.611 406.394 742.742 398.669L744.548 398.934C743.408 406.704 742.021 414.11 740.452 420.95Z" fill="black"/>
<path d="M747.924 364.797L746.099 364.697C747.532 338.431 746.263 313.105 742.934 301.677L744.685 301.167C748.07 312.776 749.365 338.349 747.924 364.797Z" fill="black"/>
<path d="M719.214 447.891L717.48 447.334C720.683 437.375 723.401 423.513 725.564 406.157L727.37 406.385C725.199 423.85 722.453 437.813 719.214 447.891Z" fill="black"/>
<path d="M729.012 391.145L727.196 390.981C727.862 383.758 728.154 378.961 728.154 378.906L729.979 379.016C729.97 379.061 729.678 383.904 729.012 391.145Z" fill="black"/>
<path d="M544.271 47.4452C496.457 17.0206 416.375 6.56895 415.572 6.46862L415.8 4.66284C416.001 4.6902 436.281 7.29855 462.236 13.6553C486.212 19.5286 520.067 29.889 545.256 45.9131L544.271 47.4452Z" fill="black"/>
<path d="M504.385 14.6949C491.558 9.04046 461.753 2.31894 461.452 2.2551L461.853 0.476685C462.154 0.540525 492.132 7.29852 505.124 13.0351L504.385 14.6949Z" fill="black"/>
<path d="M116.236 624.392C112.368 621.337 108.545 618.136 104.878 614.889L106.091 613.521C109.74 616.749 113.536 619.932 117.376 622.96L116.236 624.392Z" fill="black"/>
<path d="M85.4094 595.755C33.1253 538.754 23.1082 476.555 23.0078 475.935L24.8142 475.661C24.9054 476.282 34.8587 537.952 86.7505 594.524L85.4094 595.755Z" fill="black"/>
<path d="M99.7416 591.04C81.0212 575.609 63.5232 540.396 63.3499 540.04L64.9829 539.238C65.1562 539.584 82.4899 574.45 100.9 589.635L99.7416 591.04Z" fill="black"/>
<path d="M281.071 708.142C254.459 703.053 228.167 694.006 202.923 681.247L203.744 679.614C228.842 692.291 254.97 701.283 281.418 706.345L281.071 708.142Z" fill="black"/>
<path d="M170.682 662.45C157.6 653.695 150.274 647.201 150.201 647.137L151.414 645.779C151.487 645.842 158.731 652.263 171.695 660.936L170.682 662.45Z" fill="black"/>
<path d="M390.028 727.303L389.936 725.479C396.687 725.151 403.292 724.64 409.56 723.965L409.761 725.78C403.457 726.464 396.815 726.975 390.028 727.303Z" fill="black"/>
<path d="M366.043 727.723C324.278 727.267 289.282 721.01 288.926 720.947L289.254 719.15C289.601 719.214 324.46 725.452 366.061 725.899L366.043 727.723Z" fill="black"/>
<path d="M166.431 608.067C108.883 567.729 87.681 503.742 87.4712 503.104L89.2046 502.538C89.4144 503.177 110.443 566.598 167.48 606.571L166.431 608.067Z" fill="white"/>
<path d="M292.256 677.863C247.088 669.929 201.865 639.705 201.418 639.395L202.44 637.881C202.887 638.182 247.799 668.196 292.575 676.057L292.256 677.863Z" fill="white"/>
<path d="M217.949 623.042C205.925 619.275 191.41 605.823 190.799 605.258L192.04 603.926C192.186 604.063 206.864 617.661 218.487 621.309L217.949 623.042Z" fill="white"/>
<path d="M434.055 66.2783C424.887 71.8598 385.01 95.189 356.227 117.132C351.647 120.625 348.235 125.413 346.438 130.885C342.706 142.276 339.358 154.926 338.409 158.592C338.19 159.44 338.3 160.343 338.738 161.1C341.429 165.842 356.181 182.167 436.555 210.586L455.421 169.791C455.421 169.791 443.507 93.8849 439.848 68.531C439.474 65.9865 436.546 64.7644 434.055 66.2783Z" fill="white"/>
<path d="M615.585 522.502L516.646 534.121C500.598 536.009 486.567 545.831 479.314 560.269L435.031 649.217C433.143 652.974 428.946 654.972 424.841 654.069L409.103 650.603C398.065 648.168 387.035 654.716 383.887 665.569L381.424 674.078C380.056 678.793 382.209 683.809 386.57 686.071L459.216 723.71C464.033 726.2 469.954 724.531 472.755 719.889L545.766 601.026L646.676 594.67L615.585 522.502Z" fill="#6D00FD"/>
<path d="M559.588 446.55L566.804 428.456L626.496 431.657L604.811 513.583L559.588 446.55Z" fill="#6D00FD"/>
<path d="M552.052 402.819C552.052 402.819 558.612 385.847 558.511 376.626C558.384 364.36 559.716 339.398 551.897 340.574C547.135 341.286 545.712 352.832 545.128 357.793C544.9 359.754 544.143 361.633 542.829 363.11C540.959 365.217 538.304 366.029 536.908 356.48C534.636 340.921 535.129 310.98 526.088 316.461C521.508 319.242 523.962 346.429 521.372 345.226C518.781 344.022 519.1 302.963 508.079 307.441C504.439 308.919 505.26 328.536 506.008 339.507C506.054 340.118 505.16 340.246 505.023 339.644C503.536 333.014 501.255 323.356 499.431 317.692C497.469 311.591 492.908 314.783 492.908 319.233C492.908 328.809 494.532 348.974 494.532 348.974L552.052 402.819Z" fill="#6D00FD"/>
<path d="M705.273 457.294L721.695 485.566L683.378 608.687C679.784 621.173 665.497 628.961 652.67 626.827L603.351 621.355C597.02 620.297 594.748 623.544 596.965 629.563L618.249 727.194C621.862 737.016 616.26 747.814 606.143 750.523L532.757 770.131C525.65 772.028 518.552 767.067 517.905 759.744L513.681 734.545C513.507 732.62 512.96 724.896 517.33 721.777C523.716 717.216 533.751 710.832 533.751 710.832C537.136 709.018 537.483 703.591 536.488 699.888L508.608 591.505C504.056 574.551 514.611 561.409 531.936 558.527C553.831 554.879 590.323 546.671 590.323 546.671L605.951 444.753C608.004 436.664 615.476 431.128 623.823 431.529L647.798 432.669L705.273 457.294Z" fill="#DBC0FF"/>
<path d="M695.854 430.5C700.838 409.397 687.766 388.251 666.657 383.268C645.547 378.285 624.394 391.352 619.41 412.455C614.425 433.558 627.497 454.704 648.606 459.687C669.716 464.67 690.869 451.603 695.854 430.5Z" fill="#DBC0FF"/>
<path d="M300.968 420.941L431.482 302.908C438.224 296.807 448.086 297.29 456.069 301.641C472.208 310.442 499.887 326.174 524.574 352.914C545.301 375.368 579.741 411.018 583.81 441.196C584.275 444.653 583.071 448.119 580.653 450.627C540.858 491.84 459.91 567.747 450.86 575.463C429.439 593.73 373.889 552.489 342.241 515.717C329.022 500.368 284.428 436.536 300.968 420.941Z" fill="white"/>
<path d="M726.165 464.517C714.05 452.597 693.341 453.308 680.568 464.252L635.291 505.475C632.809 507.536 629.133 507.217 627.044 504.764L594.967 467.28C589.803 461.233 586.683 453.718 586.045 445.802L584.886 431.511C584.804 430.544 584.576 429.596 584.193 428.702L578.345 413.654C577.542 411.584 574.75 411.328 573.537 413.189C571.895 415.715 571.001 419.518 571.001 423.294C571.001 430.59 572.716 438.47 569.979 438.47C566.33 438.47 561.996 431.301 560.144 424.571C558.019 416.828 556.96 410.653 553.211 407.224C551.514 405.674 548.494 406.695 548.029 409.276C546.943 415.222 548.193 426.422 548.294 432.779C548.321 434.603 546.688 434.566 546.186 432.35C544.644 425.483 540.439 404.497 540.439 404.497C539.773 401.734 535.959 401.415 534.855 404.041C531.699 411.584 532.876 427.991 533.45 434.092C533.505 434.63 532.775 434.849 532.529 434.375C531.005 431.529 528.314 425.929 526.389 418.798C525.96 417.211 523.789 416.864 522.986 418.296C520.569 422.646 521.8 433.034 522.448 437.302C522.512 437.703 521.965 437.886 521.764 437.539C520.715 435.697 519.912 433.955 519.1 431.876C518.051 429.185 515.797 430.727 515.606 432.432C514.967 438.187 514.639 446.413 517.084 456.956C517.969 460.759 521.171 472.168 535.521 489.323L612.155 574.14C625.839 591.468 643.374 586.899 653.208 579.612C677.841 561.372 723.31 516.437 723.31 516.437C740.607 501.845 736.985 475.16 726.165 464.517Z" fill="#DBC0FF"/>
<path d="M383.468 491.321C337.67 442.382 313.795 428.273 302.136 426.969C299.554 426.677 297.319 428.693 297.337 431.292C297.474 455.132 331.065 502.748 342.232 515.735C367.721 545.366 408.748 577.898 434.931 579.858C436.938 580.004 438.562 578.262 438.334 576.274C436.746 562.284 425.689 536.438 383.468 491.321Z" fill="#7979FF"/>
<path d="M339.13 161.766C342.752 170.484 384.371 197.307 436.536 210.595L438.087 207.248C417.843 189.509 382.847 171.707 356.865 165.003C347.341 162.55 342.15 161.41 339.13 161.766Z" fill="#7979FF"/>
<path d="M439.027 83.8527C434.247 79.8672 428.563 77.2224 422.149 75.9912L422.496 74.2036C429.22 75.4987 435.168 78.2712 440.195 82.4482L439.027 83.8527Z" fill="black"/>
<path d="M508.782 386.366L489.468 370.196C486.439 367.661 482.507 366.485 478.584 366.959C462.938 368.838 422.031 374.337 408.319 381.87C403.237 384.661 392.235 396.845 392.235 396.845C388.248 400.977 388.23 407.516 392.198 411.675L417.305 439.409C419.047 441.333 421.985 441.552 423.992 439.91L444.063 423.476C446.234 421.698 446.453 418.451 444.537 416.39L440.496 412.067C438.881 410.553 439.629 407.844 441.8 407.379L507.067 393.371C510.314 392.65 511.345 388.51 508.782 386.366ZM478.703 414.648C475.565 412.423 471.66 412.231 468.704 414.675L408.072 464.735C404.423 467.745 404.195 475.068 407.288 478.653C409.687 481.434 414.522 486.979 416.867 489.825C421.201 495.087 428.316 495.251 431.811 492.068L448.177 477.157C449.664 475.807 451.963 475.898 453.332 477.367L456.799 481.088C459.253 483.66 463.303 483.787 465.912 481.38L483.985 464.69C487.406 461.525 487.434 456.126 484.031 452.934L482.361 451.365C480.801 449.906 480.82 447.416 482.398 445.984L490.718 438.406C493.82 435.578 494.924 429.24 491.01 425.546C491.019 425.546 482.763 417.539 478.703 414.648Z" fill="#93B4F6"/>
<path d="M346.529 166.645C358.033 175.701 388.102 192.172 425.242 204.22L426.465 201.657C411.12 188.624 376.169 172.436 347.277 165.122C346.374 164.894 345.79 166.07 346.529 166.645Z" fill="black"/>
<path d="M305.147 436.445C310.365 429.842 356.473 472.843 372.101 488.776C398.849 516.036 437.695 568.796 428.335 571.258C422.505 572.791 386.442 552.599 348.371 509.579C319.406 476.838 301.926 440.522 305.147 436.445Z" fill="black"/>
<path d="M613.204 55.9542L611.854 47.7644C610.732 40.9516 603.99 37.6137 597.476 39.9302C588.937 42.9581 577.861 46.5514 571.858 51.2209C569.477 53.0723 568.182 55.9907 568.428 58.9912C570.627 85.6493 573.145 106.425 574.34 115.6C574.76 118.856 573.683 122.13 571.402 124.492L544.763 152.19L571.776 165.997L622.345 118.892L613.204 55.9542Z" fill="#6D00FD"/>
<path d="M436.546 210.595L455.868 168.815C459.216 161.583 466.278 156.795 474.233 156.348L514.274 154.132C524.127 153.585 533.715 150.739 542.272 145.824C549.279 141.802 557.9 141.838 564.87 145.933C569.45 148.624 575.234 148.122 579.285 144.684L593.745 132.408C595.405 130.994 596.299 128.888 596.162 126.717C595.396 115.098 592.96 77.049 592.65 58.4987C592.604 55.9177 594.055 53.5374 596.372 52.4065C605.997 47.7096 621.068 45.4205 632.618 47.3904C635.473 47.8738 637.708 50.2177 637.891 53.1087C638.666 65.7674 630.018 79.329 630.018 79.329L637.636 136.576C639.314 149.198 633.922 161.72 623.604 169.18L575.498 203.946C571.849 206.582 568.054 209.026 564.131 211.242C554.817 216.523 544.854 220.572 534.5 223.281L497.633 232.921L436.546 210.595Z" fill="#DBC0FF"/>
<path d="M453.122 173.056L475.519 169.664L492.926 188.15L459.189 220.244L441.344 200.088L453.122 173.056Z" fill="#6D00FD"/>
<path d="M507.914 162.592C512.297 145.828 502.256 128.686 485.487 124.304C468.718 119.922 451.57 129.96 447.187 146.723C442.804 163.487 452.844 180.629 469.614 185.011C486.383 189.393 503.53 179.356 507.914 162.592Z" fill="#DBC0FF"/>
<path d="M397.198 143.151L403.137 133.986C404.141 132.435 403.529 130.356 401.842 129.599L399.36 128.486C397.864 127.811 397.672 125.769 399.023 124.829L425.543 106.452C426.884 105.522 426.583 103.461 425.032 102.941L412.89 98.9372C411.448 98.4629 409.879 98.6727 408.611 99.5117L382.501 116.794C380.895 117.852 379.6 119.311 378.724 121.017L375.056 128.167C373.204 131.779 374.792 136.202 378.514 137.807L393.467 144.273C394.826 144.866 396.404 144.383 397.198 143.151ZM428.554 139.102L427.204 138.263C425.999 137.515 425.543 135.992 426.127 134.706L427.915 130.785C428.964 128.486 428.07 125.769 425.862 124.537L419.869 121.199C417.515 119.895 414.55 120.743 413.264 123.105L395.154 156.102C393.95 158.3 394.616 161.054 396.696 162.459L403.11 166.773C405.472 168.359 408.693 167.575 410.071 165.085L415.262 155.628C416.037 154.223 417.825 153.749 419.194 154.579L419.905 155.017C421.465 155.974 423.509 155.391 424.33 153.758L429.685 143.179C430.433 141.729 429.931 139.959 428.554 139.102Z" fill="#93B4F6"/>
<path d="M531.197 170.384C522.421 162.55 509.037 163.015 500.817 171.424L476.386 196.431C474.479 198.383 471.669 199.158 469.033 198.465L432.714 188.934C430.205 188.278 427.934 186.928 426.155 185.04L415.727 173.987C414.86 173.065 413.3 173.23 412.744 174.36C412.169 175.519 411.813 177.416 412.406 180.489C413.72 187.329 409.751 187.311 405.719 184.083C403.639 182.423 400.418 179.833 397.791 177.708C395.793 176.093 392.846 177.534 392.837 180.097C392.819 183.216 393.266 186.791 395.063 188.788C391.396 199.787 397.554 212.847 407.306 218.119C418.564 224.202 479.242 242.944 479.242 242.944C485.135 244.686 491.512 243.053 495.845 238.703L532.128 202.277C541.032 193.358 540.603 178.784 531.197 170.384Z" fill="#DBC0FF"/>
<path d="M458.578 133.867C454.691 136.686 451.663 140.744 449.865 145.578C445.815 156.476 449.637 168.186 458.176 175.181C462.774 178.948 469.79 179.842 476.76 175.537C481.294 172.737 484.724 168.232 486.713 162.888C490.198 153.521 487.844 143.808 481.623 136.85C476.514 131.15 465.055 129.161 458.578 133.867Z" fill="black"/>
<path d="M231.387 487.135C227.902 473.856 224.025 456.746 221.981 450.937C221.899 450.709 221.616 450.08 221.406 449.943C219.573 448.721 208.807 443.568 196.345 445.647C192.486 446.295 179.24 445.063 173.939 449.085C172.297 450.326 171.677 452.423 171.531 454.475C170.783 465.538 168.94 499.72 169.25 511.257C169.305 513.327 170.728 515.188 172.762 515.598C195.214 520.168 221.324 518.061 232.956 509.278C234.242 508.302 234.963 506.761 234.817 505.147C234.525 502.055 233.722 496.027 231.387 487.135Z" fill="white"/>
<path d="M103.099 398.551L66.0047 386.959C64.0797 386.357 62.8755 384.442 63.1583 382.445L68.8876 342.38C69.289 339.553 67.3276 336.935 64.4994 336.525L41.3269 332.987C40.2413 332.831 37.9058 333.643 37.9058 336.762C37.9058 338.285 38.3254 339.133 39.1009 340.064L43.2884 345.107C44.073 346.046 44.4105 347.287 44.2098 348.491L39.256 379.134L56.2157 415.241L97.4244 419.646L103.099 398.551Z" fill="#6D00FD"/>
<path d="M29.8135 346.858L62.0544 397.557C62.921 398.925 64.3077 399.891 65.886 400.247L73.1115 401.852C75.5108 402.381 78.0196 401.962 80.1088 400.685L82.9005 398.979C88.4381 395.587 95.18 394.793 101.356 396.809L145.585 411.228L132.657 451.529L89.0494 440.895C85.2633 439.974 81.5411 438.843 77.8828 437.503C72.4455 435.515 64.4902 432.478 59.6459 430.097C47.1564 423.959 43.0602 419.18 41.0257 415.368C34.5575 403.248 18.574 375.778 16.5578 372.531C13.9395 368.318 8.18284 367.953 5.12662 367.159C3.23815 366.667 1.85146 365.837 1.08513 364.04L0.692843 363.128C0.227568 362.043 0.5925 360.784 1.55954 360.11L22.7432 345.317C25.0969 343.675 28.3539 344.377 29.8135 346.858Z" fill="#DBC0FF"/>
<path d="M165.309 438.816L204.337 438.789C207.521 438.771 210.805 439.719 212.484 441.643C213.487 442.793 215.276 445.273 216.224 446.468C216.881 447.307 216.644 448.392 215.695 448.164L210.96 446.468L211.8 449.368C212.374 450.937 210.942 451.648 209.729 451.037L205.012 448.812C205.131 450.125 203.744 451.055 202.567 450.444C200.396 449.313 199.566 448.584 196.564 446.541C195.816 446.039 194.931 445.784 194.028 445.83C185.982 446.231 180.307 447.234 175.399 449.24C171.759 450.727 171.667 454.512 171.604 455.697C171.494 457.695 168.794 463.678 168.794 463.678L143.386 458.452L138.888 441.543L165.309 438.816Z" fill="#6D00FD"/>
<path d="M150.475 443.321C161.539 443.321 170.509 433.979 170.509 422.455C170.509 410.93 161.539 401.588 150.475 401.588C139.41 401.588 130.44 410.93 130.44 422.455C130.44 433.979 139.41 443.321 150.475 443.321Z" fill="#DBC0FF"/>
<path d="M159.187 471.721C159.187 471.721 146.862 493.482 145.01 506.341C144.417 510.482 147.437 514.285 151.597 514.777C155.282 515.206 160.984 515.416 169.569 514.732C168.328 510.856 171.157 476.4 172.37 462.474C172.534 460.604 170.226 459.601 168.958 460.987L159.187 471.721Z" fill="white"/>
<path d="M201.263 461.352C203.899 466.842 213.852 487.791 215.978 496.2C216.243 497.24 215.422 498.225 214.354 498.161C204.62 497.513 195.223 498.936 191.218 499.666C190.196 499.848 189.284 499.018 189.366 497.988L192.085 464.435C192.13 463.842 192.514 463.322 193.061 463.103L199.237 460.586C200.013 460.267 200.898 460.604 201.263 461.352Z" fill="white"/>
<path d="M213.688 489.424C209.181 477.641 200.615 460.021 200.615 460.021L198.599 460.841L208.16 497.997C210.814 497.969 213.588 498.133 216.361 498.398C216.233 496.629 215.184 493.354 213.688 489.424Z" fill="#93B4F6"/>
<path d="M216.37 498.398C216.361 498.243 209.008 492.278 209.008 492.278C207.749 491.321 206.052 491.193 204.675 491.95L190.306 499.821C193.773 499.155 205.067 497.303 216.37 498.398Z" fill="#6D00FD"/>
<path d="M143.678 428.583C143.34 432.222 144.152 435.642 145.767 438.515C146.853 440.44 148.896 441.68 151.113 441.68C151.122 441.68 151.141 441.68 151.15 441.68C161.13 441.68 169.222 433.253 169.222 422.856C169.222 422.838 169.222 422.81 169.222 422.792C169.204 418.405 166.066 414.675 161.915 413.982C160.647 413.772 159.324 413.718 157.965 413.836C150.466 414.52 144.399 420.786 143.678 428.583Z" fill="black"/>
<path d="M208.315 464.015L204.009 464.517C203.662 464.553 203.489 464.115 203.762 463.906L207.375 461.179C208.789 460.112 207.941 457.868 206.18 458.005C202.266 458.306 197.221 458.725 193.618 459.109C193.025 459.172 192.76 458.37 193.28 458.069C194.895 457.148 195.743 456.701 197.422 455.761C199.821 454.412 197.458 452.515 194.712 452.615C189.576 452.816 184.458 455.907 180.563 455.907C173.52 455.907 154.024 454.959 154.024 454.959C152.482 454.904 151.05 454.12 150.183 452.843L134.345 429.413C129.912 423.558 121.546 422.473 115.771 427.006C110.288 431.301 109.111 439.136 113.098 444.854L136.289 474.558C138.432 477.303 141.689 478.963 145.174 479.082L195.67 478.315C201.692 478.325 205.925 472.871 206.463 470.034C208.014 468.986 209.118 467.836 209.911 466.797C210.833 465.575 209.848 463.833 208.315 464.015Z" fill="#DBC0FF"/>
<path d="M146.178 248.197C146.178 248.197 150.466 264.303 161.276 286.136C176.603 317.081 184.084 329.475 191.966 342.763C201.564 358.942 230.867 375.349 287.402 340.337C345.981 304.067 337.05 280.172 333.163 271.854C330.864 266.93 312.208 232.073 296.726 205.615C290.686 195.291 284.985 186.472 281.189 180.781C278.033 176.048 272.96 172.974 267.304 172.336C251.886 170.594 219.226 170.767 185.644 195.091C139.345 228.634 146.178 248.197 146.178 248.197Z" fill="white"/>
<path d="M335.517 289.565C337.059 281.786 333.702 273.833 327.16 269.328C310.575 257.891 278.088 257.399 236.897 283.409C191.638 311.992 190.589 336.178 197.321 349.576C210.513 362.59 238.959 370.333 287.393 340.337C322.106 318.85 333.109 301.704 335.517 289.565Z" fill="#7979FF"/>
<path d="M205.797 348.691C200.168 340.638 200.058 315.412 242.307 288.243C284.893 260.856 322.252 268.644 327.744 283.41C333.236 298.175 302.638 325.216 268.554 342.526C237.718 358.194 212.037 357.62 205.797 348.691Z" fill="black"/>
<path d="M169.214 508.877C165.5 508.868 161.587 509.069 157.673 509.379C148.86 510.081 147.674 512.853 148.504 513.702C149.28 514.495 150.457 514.924 151.597 515.051C155.283 515.48 162.891 515.726 170.993 514.778C169.214 512.817 169.223 511.868 169.214 508.877Z" fill="black"/>
<path d="M231.186 454.576C228.55 451.32 227.044 451.721 222.228 451.648C224.271 458.707 227.829 473.582 231.387 487.144C234.945 500.696 234.963 507.591 234.963 507.591C239.434 506.998 243.037 506.332 251.786 504.864C258.929 503.66 259.568 497.75 255.873 492.278L231.186 454.576Z" fill="white"/>
<path d="M231.469 510.327C231.98 509.032 231.141 507.737 228.997 506.679C224.736 504.563 216.398 502.903 200.15 503.815C185.17 504.654 177.57 508.357 173.748 511.622C171.704 513.373 171.841 514.723 173.647 515.817C196.163 521.28 219.454 518.234 231.469 510.327Z" fill="#7979FF"/>
<path d="M252.717 505.028C254.523 504.563 254.806 502.629 253.866 501.954C253.465 501.672 252.99 501.38 252.425 501.088C247.982 498.808 240.884 498.835 234.096 499.647C234.954 504.918 235.109 506.186 234.142 507.974C239.671 507.591 252.178 505.165 252.717 505.028Z" fill="black"/>
<path d="M200.132 242.862C197.477 236.186 197.395 228.744 200.524 223.864C201.254 222.724 202.595 220.864 201.92 219.697L196.044 211.178C194.804 209.026 191.565 210.376 190.078 212.373C182.752 222.25 180.015 235.119 185.489 248.854C193.526 269.055 208.452 274.964 223.833 271.207C226.324 270.596 227.537 267.778 226.251 265.562L221.762 258.129C220.777 256.423 218.889 255.484 216.918 255.639C210.276 256.177 203.708 251.836 200.132 242.862ZM243.949 219.031C232.318 200.617 213.834 197.808 201.728 202.405C199.612 203.207 198.654 205.661 199.785 207.622L206.39 216.568C207.174 217.918 208.725 218.575 210.249 218.283C216.708 217.034 224.645 219.532 229.873 227.43C234.024 233.705 234.014 243.527 227.428 249.839C225.986 251.225 226.132 253.605 227.136 255.338L231.351 262.607C233.02 265.479 236.751 265.753 239.297 263.628C251.23 253.669 252.105 231.945 243.949 219.031Z" fill="#93B4F6"/>
<path d="M504.53 217.745C503.901 217.745 503.262 217.581 502.678 217.243C498.208 214.644 490.143 209.564 486.357 204.849C485.29 203.517 485.317 201.575 486.439 200.225L498.29 185.943C499.54 184.429 501.757 184.165 503.335 185.332C507.057 188.095 513.836 193.203 517.439 196.395C518.89 197.681 519.118 199.815 517.969 201.365C513.827 206.965 509.694 213.021 507.605 216.121C506.884 217.17 505.716 217.745 504.53 217.745ZM501.127 186.426C500.589 186.426 500.051 186.654 499.686 187.101L487.835 201.383C487.27 202.067 487.242 203.034 487.78 203.7C491.521 208.36 500.087 213.622 503.6 215.665C504.448 216.158 505.534 215.912 506.081 215.1C508.189 211.981 512.331 205.907 516.491 200.271C517.065 199.486 516.956 198.401 516.217 197.753C512.668 194.607 505.935 189.536 502.231 186.791C501.903 186.545 501.511 186.426 501.127 186.426Z" fill="black"/>
<path d="M676.965 542.42C676.737 542.42 676.509 542.411 676.272 542.384C674.374 542.201 672.668 541.28 671.473 539.803L651.813 515.407C649.477 512.506 649.815 508.284 652.57 505.785L674.301 486.149C675.733 484.854 677.576 484.216 679.492 484.353C681.417 484.489 683.15 485.374 684.391 486.842L705.192 511.622C707.682 514.586 707.29 519.018 704.334 521.508L681.472 540.751C680.194 541.846 678.616 542.42 676.965 542.42ZM653.802 507.144C651.758 508.995 651.512 512.114 653.236 514.267L672.896 538.663C673.781 539.757 675.04 540.441 676.445 540.578C677.85 540.715 679.218 540.286 680.295 539.383L703.157 520.14C705.347 518.298 705.629 515.014 703.796 512.816L682.995 488.037C682.083 486.943 680.787 486.286 679.364 486.195C677.941 486.104 676.573 486.569 675.523 487.526L653.802 507.144Z" fill="black"/>
<path d="M569.568 499.638L568.145 498.498L578.391 485.648C578.993 484.891 578.783 484.098 578.381 483.605C577.98 483.113 577.241 482.748 576.374 483.185L564.797 489.141C563.283 489.916 561.568 489.542 560.509 488.22C559.451 486.897 559.488 485.137 560.582 483.842L570.882 471.685C571.521 470.928 571.311 470.116 570.91 469.615C570.499 469.113 569.76 468.73 568.884 469.195L539.043 484.38L538.213 482.757L568.045 467.572C569.541 466.778 571.275 467.143 572.333 468.466C573.4 469.797 573.373 471.557 572.278 472.862L561.978 485.019C561.34 485.766 561.54 486.578 561.942 487.08C562.343 487.581 563.082 487.964 563.958 487.518L575.526 481.562C577.013 480.796 578.719 481.152 579.777 482.438C580.835 483.724 580.845 485.475 579.805 486.779L569.568 499.638Z" fill="black"/>
<path d="M619.236 518.548L605.92 554.446L607.63 555.08L620.947 519.183L619.236 518.548Z" fill="black"/>
<path d="M640.127 526.347L638.406 526.952L653.766 570.578L655.487 569.972L640.127 526.347Z" fill="black"/>
<path d="M639.492 556.548L637.687 556.815L640.856 578.261L642.661 577.995L639.492 556.548Z" fill="black"/>
<path d="M618.963 548.28L615.682 565.462L617.474 565.804L620.755 548.622L618.963 548.28Z" fill="black"/>
<path d="M472.936 203.821L471.332 204.691L487.886 235.182L489.49 234.312L472.936 203.821Z" fill="black"/>
<path d="M473.04 220.025L471.286 220.529L476.398 238.305L478.151 237.801L473.04 220.025Z" fill="black"/>
<path d="M464.788 206.712L463.207 233.425L465.028 233.532L466.61 206.82L464.788 206.712Z" fill="black"/>
<path d="M416.566 217.07L414.805 216.596L419.495 199.067C419.787 197.963 420.781 197.279 421.921 197.398C423.053 197.517 423.883 198.401 423.947 199.532L424.467 210.029C424.485 210.321 424.686 210.412 424.813 210.44C424.941 210.467 425.16 210.476 425.297 210.212L432.066 196.86L433.69 197.681L426.93 211.033C426.456 211.963 425.461 212.437 424.439 212.218C423.418 211.999 422.706 211.16 422.651 210.12L422.131 199.623C422.113 199.295 421.876 199.222 421.739 199.213C421.602 199.195 421.356 199.222 421.274 199.532L416.566 217.07Z" fill="black"/>
<path d="M604.128 125.283L603.84 127.084L630.543 131.339L630.83 129.538L604.128 125.283Z" fill="black"/>
<path d="M605.961 133.453L605.298 135.152L630.367 144.94L631.031 143.241L605.961 133.453Z" fill="black"/>
<path d="M606.315 140.497L604.932 141.687L622.66 162.281L624.043 161.091L606.315 140.497Z" fill="black"/>
<path d="M579.148 629.472L579.047 629.463L526.882 623.498L527.092 621.683L579.202 627.639C580.461 627.62 581.146 626.754 581.374 625.951C581.602 625.14 581.447 624.027 580.334 623.37L520.304 595.043C518.434 593.931 517.731 591.842 518.516 589.909C519.301 587.975 521.271 586.963 523.297 587.455L570.91 598.044C572.278 598.372 573.181 597.57 573.546 596.776C573.902 596.001 573.938 594.824 572.88 594.004L532.994 574.295L533.806 572.663L573.902 592.49C575.781 593.867 575.909 596.019 575.207 597.542C574.504 599.065 572.78 600.36 570.508 599.822L522.895 589.234C521.463 588.887 520.56 589.754 520.213 590.602C519.866 591.441 519.912 592.69 521.162 593.438L581.191 621.765C582.906 622.787 583.636 624.602 583.134 626.444C582.614 628.286 581.054 629.472 579.148 629.472Z" fill="black"/>
<path d="M129.875 457.385C129.683 457.385 129.492 457.376 129.3 457.348C128.16 457.184 127.147 456.537 126.518 455.57L121.737 448.246C120.542 446.422 121.044 443.942 122.859 442.729L129.236 438.451C131.061 437.229 133.542 437.713 134.774 439.518L139.199 445.994C140.357 447.69 140.047 449.97 138.487 451.302L132.475 456.427C131.745 457.056 130.824 457.385 129.875 457.385ZM131.472 439.61C131.052 439.61 130.632 439.728 130.258 439.974L123.881 444.252C122.896 444.918 122.622 446.258 123.27 447.261L128.05 454.585C128.397 455.114 128.944 455.46 129.565 455.552C130.194 455.643 130.815 455.46 131.289 455.05L137.301 449.925C138.15 449.195 138.323 447.955 137.684 447.033L133.26 440.558C132.858 439.938 132.165 439.61 131.472 439.61Z" fill="black"/>
<path d="M147.17 458.078L137.182 468.543L138.502 469.802L148.49 459.337L147.17 458.078Z" fill="black"/>
<path d="M144.127 467.67L141.464 473.049L143.1 473.858L145.762 468.479L144.127 467.67Z" fill="black"/>
<path d="M151.426 457.882L147.702 475.645L149.488 476.019L153.212 458.256L151.426 457.882Z" fill="black"/>
<path d="M172.197 472.223C172.151 472.223 172.115 472.223 172.069 472.223C170.856 472.169 169.825 471.393 169.441 470.244L167.818 465.338L169.551 464.763L171.175 469.67C171.394 470.317 171.969 470.399 172.142 470.399C172.315 470.399 172.899 470.381 173.173 469.752L174.751 466.058C175.134 465.164 175.928 464.526 176.886 464.353C177.844 464.179 178.811 464.48 179.486 465.173L184.257 470.062C184.677 470.49 185.188 470.445 185.535 470.253C185.881 470.062 186.201 469.651 186.064 469.068L183.847 459.583L185.626 459.172L187.843 468.657C188.144 469.934 187.569 471.22 186.419 471.849C185.261 472.479 183.874 472.269 182.953 471.329L178.181 466.441C177.926 466.177 177.57 466.067 177.223 466.14C176.868 466.204 176.576 466.441 176.439 466.769L174.861 470.463C174.395 471.548 173.364 472.223 172.197 472.223Z" fill="black"/>
<path d="M54.5904 399.103L41.5254 403.585L42.1177 405.311L55.1826 400.829L54.5904 399.103Z" fill="black"/>
<path d="M50.976 404.918L43.9519 410.767L45.1197 412.168L52.1438 406.32L50.976 404.918Z" fill="black"/>
<path d="M56.1827 405.271L50.7224 419.315L52.4231 419.976L57.8834 405.932L56.1827 405.271Z" fill="black"/>
<path d="M7.24326 364.35C7.04255 364.35 6.83274 364.332 6.63203 364.287L5.05371 363.94L5.44599 362.162L7.02432 362.508C7.31625 362.572 7.61729 362.508 7.85449 362.344C8.10081 362.171 8.25594 361.915 8.29243 361.614L8.45664 360.338C8.56612 359.526 9.01312 358.796 9.68823 358.331C10.3633 357.866 11.2118 357.72 12.0055 357.912L15.1438 358.687C15.4813 358.769 15.828 358.687 16.0835 358.459C16.348 358.231 16.4758 357.903 16.4484 357.556L16.2933 355.805C16.2112 354.875 16.567 353.981 17.2695 353.37C17.9719 352.759 18.9025 352.522 19.8148 352.741L21.8674 353.224C22.205 353.306 22.5426 353.215 22.8071 352.987C23.0626 352.759 23.1995 352.431 23.163 352.084C23.0626 351.081 23.4822 350.123 24.2851 349.512C25.0879 348.901 26.1279 348.755 27.0676 349.12L29.4213 350.023L28.7645 351.728L26.4108 350.825C26.0641 350.689 25.69 350.743 25.389 350.971C25.0879 351.199 24.9419 351.546 24.9784 351.92C25.0697 352.859 24.7139 353.744 24.0114 354.364C23.3089 354.984 22.3693 355.221 21.457 355.002L19.4043 354.519C19.0667 354.446 18.7291 354.528 18.4646 354.747C18.2091 354.975 18.0723 355.294 18.1088 355.641L18.2639 357.392C18.346 358.322 17.9811 359.234 17.2695 359.836C16.5579 360.438 15.5999 360.675 14.6968 360.447L11.5584 359.672C11.2665 359.599 10.9654 359.654 10.71 359.827C10.4546 360 10.2995 360.256 10.2538 360.566L10.0896 361.842C9.98016 362.636 9.55138 363.356 8.88539 363.822C8.411 364.168 7.83626 364.35 7.24326 364.35Z" fill="black"/>
<path d="M602.822 66.944C602.794 66.944 602.776 66.944 602.749 66.944C601.818 66.9167 601.015 66.3694 600.651 65.5213L599.173 62.0921C599.045 61.8003 598.789 61.7638 598.68 61.7638C598.68 61.7638 598.68 61.7638 598.671 61.7638C598.561 61.7638 598.297 61.8003 598.178 62.1012L596.527 66.2235L594.83 65.5486L596.481 61.4264C596.837 60.5326 597.686 59.958 598.643 59.9398C598.653 59.9398 598.662 59.9398 598.671 59.9398C599.62 59.9398 600.468 60.4961 600.842 61.3625L602.32 64.7917C602.439 65.0744 602.694 65.1109 602.804 65.12C602.904 65.12 603.159 65.1018 603.296 64.819L604.364 62.6849C604.719 61.9736 605.404 61.4902 606.188 61.399C606.982 61.2987 607.757 61.5996 608.268 62.2107L610.029 64.2627C610.221 64.4816 610.458 64.4542 610.549 64.436C610.64 64.4178 610.868 64.3448 610.951 64.0621L612.018 60.4961C612.255 59.7118 612.866 59.1099 613.669 58.891C614.463 58.6721 615.302 58.8819 615.895 59.4473L619.344 62.6758C619.544 62.8673 619.782 62.8309 619.873 62.7944C619.964 62.767 620.174 62.6758 620.238 62.4022L620.913 59.4838C621.104 58.6721 621.679 58.0337 622.473 57.7692C623.267 57.5047 624.115 57.678 624.745 58.2161L627.217 60.3228C627.436 60.5052 627.664 60.4505 627.755 60.414C627.846 60.3776 628.056 60.2772 628.102 59.9945L628.567 57.1034C628.704 56.2461 629.306 55.5348 630.127 55.252C630.957 54.9693 631.86 55.1609 632.499 55.7537C632.736 55.9725 632.983 55.8905 633.083 55.854C633.183 55.8084 633.402 55.6807 633.402 55.3615V53.2821H635.227V55.3615C635.227 56.3191 634.689 57.1399 633.813 57.523C632.937 57.906 631.961 57.7418 631.258 57.0943C631.048 56.8937 630.811 56.9484 630.72 56.9849C630.629 57.0122 630.41 57.1217 630.364 57.4044L629.899 60.2955C629.762 61.1436 629.197 61.8368 628.385 62.1377C627.573 62.4387 626.697 62.2836 626.04 61.7182L623.568 59.6115C623.358 59.4382 623.139 59.4838 623.048 59.5111C622.965 59.5385 622.756 59.6388 622.692 59.9033L622.017 62.8217C621.825 63.6517 621.223 64.2992 620.402 64.5546C619.581 64.8008 618.723 64.6002 618.094 64.0165L614.645 60.788C614.445 60.6056 614.226 60.642 614.134 60.6603C614.043 60.6876 613.833 60.7697 613.76 61.0251L612.693 64.591C612.447 65.421 611.762 66.0411 610.923 66.2235C610.075 66.4059 609.199 66.105 608.642 65.4483L606.882 63.3963C606.708 63.1957 606.498 63.2048 606.407 63.2139C606.325 63.223 606.106 63.2777 605.988 63.5057L604.92 65.6398C604.528 66.4424 603.725 66.944 602.822 66.944Z" fill="black"/>
<path d="M600.151 53.0792L599.231 54.6548L607.939 59.7319L608.859 58.1563L600.151 53.0792Z" fill="black"/>
<path d="M608.35 49.7242L607.464 51.3187L618.781 57.6031L619.667 56.0085L608.35 49.7242Z" fill="black"/>
<path d="M618.697 48.6035L617.915 50.2515L627.229 54.6685L628.011 53.0205L618.697 48.6035Z" fill="black"/>
<path d="M524.519 759.762L522.84 759.05L525.632 752.484C526.307 750.897 527.639 749.72 529.3 749.246C530.96 748.772 532.711 749.073 534.126 750.067L537.027 752.11C538.039 752.821 539.289 753.013 540.466 752.611C541.643 752.219 542.528 751.316 542.911 750.14L543.413 748.58C543.978 746.802 545.393 745.425 547.171 744.887C548.95 744.349 550.894 744.723 552.344 745.881L555.291 748.225C556.304 749.027 557.59 749.274 558.822 748.89C560.053 748.517 560.984 747.586 561.367 746.355L562.124 743.92C562.681 742.132 564.022 740.774 565.81 740.208C567.598 739.634 569.477 739.962 570.973 741.093L574.358 743.656C575.38 744.431 576.666 744.65 577.889 744.248C579.111 743.847 580.014 742.908 580.379 741.676L581.647 737.363C582.204 735.475 583.664 734.034 585.561 733.496C587.45 732.967 589.457 733.441 590.916 734.763L593.635 737.235C594.648 738.156 596.044 738.475 597.357 738.065C598.671 737.664 599.647 736.624 599.976 735.292C600.459 733.304 601.919 731.763 603.889 731.188C605.851 730.614 607.913 731.106 609.4 732.52L613.633 736.542L612.374 737.864L608.141 733.842C607.128 732.885 605.732 732.547 604.4 732.939C603.068 733.332 602.074 734.371 601.745 735.73C601.271 737.7 599.83 739.223 597.896 739.816C595.961 740.409 593.909 739.953 592.413 738.585L589.694 736.113C588.709 735.21 587.349 734.891 586.063 735.256C584.777 735.621 583.782 736.597 583.408 737.873L582.14 742.187C581.611 743.975 580.242 745.388 578.473 745.972C576.694 746.556 574.75 746.227 573.263 745.106L569.879 742.543C568.866 741.777 567.589 741.558 566.375 741.941C565.162 742.324 564.25 743.245 563.876 744.458L563.119 746.893C562.562 748.681 561.157 750.076 559.369 750.632C557.581 751.18 555.638 750.815 554.169 749.647L551.222 747.304C550.219 746.501 548.941 746.255 547.71 746.629C546.478 747.003 545.548 747.915 545.155 749.137L544.654 750.696C544.097 752.438 542.783 753.761 541.05 754.344C539.317 754.928 537.474 754.654 535.978 753.596L533.076 751.554C532.118 750.879 530.932 750.678 529.801 750.997C528.679 751.316 527.767 752.119 527.311 753.195L524.519 759.762Z" fill="black"/>
<path d="M464.9 714.572H463.075V705.825C463.075 704.622 462.455 703.545 461.424 702.934C460.393 702.323 459.143 702.305 458.094 702.88L454.235 705.005C452.611 705.898 450.686 705.871 449.099 704.923C447.502 703.983 446.554 702.314 446.554 700.463V697.453C446.554 696.313 446.006 695.292 445.057 694.653C444.109 694.015 442.95 693.905 441.901 694.352L436.947 696.423C435.341 697.097 433.517 696.924 432.075 695.957C430.625 694.991 429.758 693.377 429.758 691.644V690.65C429.758 689.51 429.22 688.497 428.271 687.859C427.322 687.22 426.173 687.102 425.124 687.54L420.38 689.482C418.774 690.139 416.959 689.956 415.526 688.99C414.085 688.023 413.227 686.418 413.227 684.685C413.227 683.536 412.68 682.514 411.722 681.885C410.764 681.247 409.605 681.146 408.556 681.593L404.871 683.153C403.447 683.755 401.851 683.691 400.482 682.989C399.114 682.286 398.129 681.028 397.791 679.523L397.317 677.444C397.089 676.459 396.45 675.638 395.556 675.191C394.653 674.735 393.613 674.708 392.691 675.118L386.141 677.991L385.411 676.322L391.961 673.449C393.385 672.829 394.999 672.865 396.386 673.568C397.773 674.27 398.767 675.538 399.114 677.052L399.588 679.131C399.807 680.107 400.446 680.918 401.331 681.374C402.216 681.83 403.256 681.867 404.177 681.484L407.863 679.924C409.469 679.24 411.293 679.414 412.753 680.38C414.203 681.347 415.07 682.961 415.07 684.703C415.07 685.843 415.608 686.856 416.557 687.494C417.506 688.132 418.646 688.242 419.705 687.813L424.449 685.871C426.054 685.214 427.87 685.396 429.302 686.363C430.743 687.33 431.601 688.935 431.601 690.668V691.662C431.601 692.802 432.148 693.823 433.097 694.462C434.046 695.1 435.205 695.21 436.254 694.763L441.208 692.693C442.813 692.027 444.638 692.2 446.079 693.158C447.53 694.124 448.387 695.739 448.387 697.471V700.481C448.387 701.685 449.008 702.761 450.039 703.372C451.07 703.983 452.319 704.001 453.369 703.427L457.228 701.302C458.852 700.408 460.777 700.435 462.364 701.384C463.96 702.323 464.909 703.992 464.909 705.844V714.572H464.9Z" fill="black"/>
<path d="M670.049 434.967C661.62 448.648 639.177 455.816 628.248 441.114C616.105 424.771 624.763 390.014 650.034 388.555C655.799 388.218 661.547 390.106 666.09 393.863C677.622 403.412 679.501 419.627 670.049 434.967Z" fill="black"/>
<path d="M641.23 416.855C638.128 426.44 634.57 437.038 630.109 431.602C627.336 428.219 625.648 420.083 627.628 412.35C629.188 406.257 633.548 400.411 637.882 397.347C640.126 395.76 642.398 395.395 644.213 396.362C648.848 398.815 644.706 406.102 641.23 416.855Z" fill="#74BAAB"/>
<path d="M466.031 150.63C461.351 155.637 456.087 161.118 453.925 155.409C452.584 151.861 453.213 145.614 456.589 141.337C459.244 137.962 464.006 136.047 468.084 135.983C470.2 135.956 472.034 136.758 473.22 138.245C476.212 142.03 471.277 145.012 466.031 150.63Z" fill="#74BAAB"/>
<path d="M160.255 425.574C160.319 422.3 160.446 418.67 162.955 420.001C164.515 420.831 167.517 427.407 164.077 431.429C163.43 432.186 162.472 432.423 161.605 432.268C159.406 431.885 160.182 429.24 160.255 425.574Z" fill="#74BAAB"/>
<path d="M225.895 510.655C226.287 509.807 225.585 508.977 223.833 508.33C220.339 507.044 213.542 506.123 200.359 507.035C188.208 507.874 182.104 510.436 179.048 512.634C177.415 513.811 177.543 514.696 179.039 515.361C197.413 518.48 216.27 516.036 225.895 510.655Z" fill="black"/>
<path d="M545.256 432.551C543.732 425.756 539.545 404.88 539.499 404.67L541.287 404.315C541.333 404.524 545.511 425.373 547.035 432.149L545.256 432.551Z" fill="black"/>
<path d="M563.748 434.767C561.869 432.04 560.227 428.41 559.241 424.817C558.895 423.558 558.575 422.336 558.274 421.159C556.732 415.259 555.519 410.589 552.572 407.899L553.804 406.549C557.152 409.604 558.429 414.502 560.044 420.694C560.345 421.862 560.664 423.075 561.011 424.324C561.951 427.735 563.493 431.164 565.262 433.727L563.748 434.767Z" fill="black"/>
<path d="M572.406 435.186L570.581 435.132C570.627 433.7 570.49 431.83 570.353 429.851C570.216 427.817 570.052 425.519 570.052 423.294C570.052 419.235 571.056 415.277 572.734 412.687L574.267 413.681C572.771 415.989 571.877 419.573 571.877 423.294C571.877 425.446 572.023 427.626 572.169 429.723C572.315 431.748 572.451 433.663 572.406 435.186Z" fill="black"/>
<path d="M631.514 507.728C629.58 507.728 627.673 506.916 626.332 505.356L611.142 487.609L612.529 486.423L627.719 504.171C629.479 506.232 632.609 506.506 634.698 504.773L679.948 463.577C682.429 461.452 685.221 459.674 688.259 458.288L689.016 459.947C686.133 461.261 683.488 462.948 681.152 464.945L635.893 506.15C634.616 507.208 633.056 507.728 631.514 507.728Z" fill="black"/>
<path d="M634.524 587.063C626.724 587.063 618.504 583.698 611.407 574.706L593.927 555.362L595.277 554.14L612.802 573.529C625.629 589.772 642.279 586.553 652.634 578.883C660.917 572.745 672.449 562.932 686.909 549.708L688.141 551.057C673.635 564.318 662.049 574.177 653.719 580.351C648.446 584.245 641.659 587.063 634.524 587.063Z" fill="black"/>
<path d="M520.934 437.986C519.921 436.208 519.082 434.43 518.215 432.204L519.921 431.548C520.76 433.709 521.536 435.369 522.521 437.084L520.934 437.986Z" fill="black"/>
<path d="M531.68 434.794C530.203 432.031 527.429 426.303 525.458 419.026L527.219 418.551C529.135 425.656 531.845 431.237 533.286 433.928L531.68 434.794Z" fill="black"/>
<path d="M657.606 461.571C642.854 461.571 629.315 453.518 622.272 440.549L623.878 439.674C630.602 452.05 643.529 459.747 657.606 459.747V461.571Z" fill="black"/>
<path d="M410.28 187.11C408.83 187.11 407.051 186.326 405.162 184.812C403.082 183.152 399.862 180.553 397.225 178.437L398.375 177.014C401.011 179.139 404.223 181.73 406.303 183.389C408.246 184.949 410.134 185.642 411.001 185.113C411.786 184.639 411.968 183.025 411.521 180.672C410.983 177.863 411.12 175.61 411.941 173.959L413.574 174.771C413.136 175.656 412.734 177.334 413.309 180.325C413.939 183.608 413.483 185.742 411.941 186.673C411.457 186.964 410.892 187.11 410.28 187.11Z" fill="black"/>
<path d="M477.043 197.07L475.738 195.793L500.17 170.786C508.745 162.003 522.649 161.529 531.808 169.7L530.595 171.059C522.165 163.535 509.375 163.973 501.483 172.053L477.043 197.07Z" fill="black"/>
<path d="M531.478 201.644L506.689 226.545L507.982 227.832L532.771 202.931L531.478 201.644Z" fill="black"/>
<path d="M139.162 438.169L133.597 429.933C131.636 427.343 128.725 425.656 125.45 425.227C122.175 424.808 118.936 425.692 116.336 427.726L115.214 426.294C118.206 423.95 121.92 422.929 125.687 423.422C129.455 423.914 132.785 425.847 135.084 428.875L140.677 437.147L139.162 438.169Z" fill="black"/>
<path d="M169.623 482.303L168.542 503.543L170.365 503.636L171.445 482.396L169.623 482.303Z" fill="black"/>
<path d="M224.533 456.261L222.764 456.707L231.682 492.082L233.452 491.636L224.533 456.261Z" fill="black"/>
</g>
<defs>
<clipPath id="clip0_865_11">
<rect width="749" height="771" fill="white"/>
</clipPath>
</defs>
</svg>
