<svg width="1920" height="1274" viewBox="0 0 1920 1274" fill="none" xmlns="http://www.w3.org/2000/svg">
<g opacity="0.5">
<g filter="url(#filter0_ddf_762_1728)">
<path d="M89.8898 870.168L97.6966 864.193L101.949 865.739L98.6122 874.282L96.6021 872.965L93.7009 883.555L90.9908 881.192L85.3829 902.9L67.922 911.969L67.7589 897.192L84.3732 879.512L80.3224 878.944L92.9599 870.644L89.8898 870.168Z" fill="#1ABBB1"/>
</g>
<g opacity="0.5" filter="url(#filter1_ddf_762_1728)">
<path d="M1330.28 639.434L1330.46 629.605L1334.32 627.24L1338.93 635.169L1336.64 635.923L1343.13 644.785L1339.59 645.435L1353.09 663.336L1349.32 682.647L1337.65 673.577L1334.16 649.568L1331.19 652.385L1332.56 637.328L1330.28 639.434Z" fill="#1ABBB1"/>
</g>
<g opacity="0.5" filter="url(#filter2_ddf_762_1728)">
<path d="M1782.49 240.482L1774.69 246.459L1770.43 244.915L1773.77 236.37L1775.78 237.686L1778.68 227.096L1781.39 229.458L1786.99 207.748L1804.44 198.672L1804.61 213.449L1788.01 231.136L1792.06 231.701L1779.42 240.006L1782.49 240.482Z" fill="#1ABBB1"/>
</g>
</g>
<g filter="url(#filter3_f_762_1728)">
<path d="M30.9764 610.523C32.4125 608.271 37.754 597.215 42.9068 585.829C48.0597 574.444 51.0726 567.04 49.6365 569.293C48.2003 571.546 42.8589 582.602 37.706 593.987C32.5532 605.373 29.5402 612.776 30.9764 610.523Z" fill="url(#paint0_linear_762_1728)"/>
<path d="M690.11 974.507C691.5 974.04 697.097 970.693 702.612 967.03C708.127 963.368 711.47 960.777 710.081 961.245C708.691 961.712 703.094 965.059 697.579 968.722C692.065 972.384 688.721 974.974 690.11 974.507Z" fill="url(#paint1_linear_762_1728)"/>
<path d="M1717.13 957.786C1721.39 954.915 1740.79 940.732 1760.46 926.108C1780.12 911.484 1792.6 901.957 1788.34 904.828C1784.07 907.7 1764.67 921.882 1745 936.506C1725.34 951.13 1712.86 960.658 1717.13 957.786Z" fill="url(#paint2_linear_762_1728)"/>
<path d="M930.676 267.124C932.734 266.151 941.831 260.825 950.993 255.227C960.156 249.63 965.915 245.882 963.856 246.855C961.797 247.829 952.701 253.155 943.538 258.752C934.376 264.349 928.617 268.097 930.676 267.124Z" fill="url(#paint3_linear_762_1728)"/>
</g>
<g opacity="0.5" filter="url(#filter4_if_762_1728)">
<path d="M125.176 928.098C125.757 928.184 126.31 927.849 126.411 927.349C126.511 926.849 126.121 926.374 125.54 926.287C124.959 926.201 124.406 926.536 124.306 927.036C124.205 927.536 124.595 928.011 125.176 928.098Z" fill="white"/>
<path d="M60.1759 867.098C60.7572 867.184 61.3098 866.849 61.4103 866.349C61.5107 865.849 61.1209 865.374 60.5396 865.287C59.9583 865.201 59.4057 865.536 59.3053 866.036C59.2048 866.536 59.5946 867.011 60.1759 867.098Z" fill="white"/>
<path d="M189.176 887.098C189.758 887.184 190.31 886.849 190.411 886.349C190.511 885.849 190.121 885.374 189.54 885.287C188.959 885.201 188.406 885.536 188.306 886.036C188.205 886.536 188.595 887.011 189.176 887.098Z" fill="white"/>
<path d="M163.176 969.098C163.758 969.184 164.31 968.849 164.411 968.349C164.511 967.849 164.121 967.374 163.54 967.287C162.959 967.201 162.406 967.536 162.306 968.036C162.205 968.536 162.595 969.011 163.176 969.098Z" fill="white"/>
<path d="M153.238 1116.48C153.818 1116.39 154.244 1115.9 154.189 1115.4C154.135 1114.89 153.62 1114.55 153.04 1114.65C152.459 1114.74 152.033 1115.22 152.088 1115.73C152.142 1116.24 152.657 1116.57 153.238 1116.48Z" fill="white"/>
<path d="M59.7514 1077.9C60.3318 1077.81 60.7579 1077.32 60.7032 1076.82C60.6486 1076.31 60.1338 1075.97 59.5535 1076.07C58.9731 1076.16 58.547 1076.64 58.6016 1077.15C58.6563 1077.66 59.1711 1077.99 59.7514 1077.9Z" fill="white"/>
<path d="M60.2656 988.875C60.8459 988.782 61.2721 988.296 61.2174 987.789C61.1627 987.282 60.648 986.946 60.0676 987.039C59.4873 987.131 59.0611 987.617 59.1158 988.124C59.1705 988.631 59.6852 988.967 60.2656 988.875Z" fill="white"/>
<path d="M4.26558 815.874C4.84592 815.782 5.27208 815.296 5.21741 814.789C5.16274 814.282 4.64796 813.946 4.06761 814.039C3.48727 814.131 3.06113 814.617 3.1158 815.124C3.17046 815.631 3.68524 815.967 4.26558 815.874Z" fill="white"/>
<path d="M63.2656 694.874C63.8459 694.782 64.2721 694.296 64.2174 693.789C64.1627 693.282 63.648 692.946 63.0676 693.039C62.4873 693.131 62.0611 693.617 62.1158 694.124C62.1705 694.631 62.6852 694.967 63.2656 694.874Z" fill="white"/>
<path d="M186.238 1076.48C186.818 1076.39 187.244 1075.9 187.189 1075.4C187.135 1074.89 186.62 1074.55 186.04 1074.65C185.459 1074.74 185.033 1075.22 185.088 1075.73C185.142 1076.24 185.657 1076.57 186.238 1076.48Z" fill="white"/>
<path d="M268.752 856.874C269.332 856.782 269.758 856.296 269.703 855.789C269.649 855.282 269.134 854.946 268.554 855.039C267.973 855.131 267.547 855.617 267.602 856.124C267.657 856.631 268.171 856.967 268.752 856.874Z" fill="white"/>
<path d="M232.238 1009.87C232.818 1009.78 233.244 1009.3 233.189 1008.79C233.135 1008.28 232.62 1007.95 232.04 1008.04C231.459 1008.13 231.033 1008.62 231.088 1009.12C231.142 1009.63 231.657 1009.97 232.238 1009.87Z" fill="white"/>
<path d="M132.104 1180.9C132.684 1180.81 133.11 1180.32 133.056 1179.82C133.001 1179.31 132.486 1178.97 131.906 1179.07C131.326 1179.16 130.9 1179.65 130.954 1180.15C131.009 1180.66 131.524 1181 132.104 1180.9Z" fill="white"/>
<path d="M200.238 1145.48C200.818 1145.39 201.244 1144.9 201.189 1144.4C201.135 1143.89 200.62 1143.55 200.04 1143.65C199.459 1143.74 199.033 1144.22 199.088 1144.73C199.142 1145.24 199.657 1145.57 200.238 1145.48Z" fill="white"/>
<path d="M335.176 1010.1C335.757 1010.18 336.31 1009.85 336.411 1009.35C336.511 1008.85 336.121 1008.37 335.54 1008.29C334.959 1008.2 334.406 1008.54 334.306 1009.04C334.205 1009.54 334.595 1010.01 335.176 1010.1Z" fill="white"/>
<path d="M270.176 949.098C270.757 949.184 271.31 948.849 271.411 948.349C271.511 947.849 271.121 947.374 270.54 947.287C269.959 947.201 269.406 947.536 269.306 948.036C269.205 948.536 269.595 949.011 270.176 949.098Z" fill="white"/>
<path d="M399.176 969.098C399.757 969.184 400.31 968.849 400.411 968.349C400.511 967.849 400.121 967.374 399.54 967.287C398.959 967.201 398.406 967.536 398.306 968.036C398.205 968.536 398.595 969.011 399.176 969.098Z" fill="white"/>
<path d="M308.176 1069.1C308.757 1069.18 309.31 1068.85 309.411 1068.35C309.511 1067.85 309.121 1067.37 308.54 1067.29C307.959 1067.2 307.406 1067.54 307.306 1068.04C307.205 1068.54 307.595 1069.01 308.176 1069.1Z" fill="white"/>
<path d="M373.176 1051.1C373.757 1051.18 374.31 1050.85 374.411 1050.35C374.511 1049.85 374.121 1049.37 373.54 1049.29C372.959 1049.2 372.406 1049.54 372.306 1050.04C372.205 1050.54 372.595 1051.01 373.176 1051.1Z" fill="white"/>
<path d="M520.662 972.098C521.243 972.184 521.796 971.849 521.896 971.349C521.997 970.849 521.607 970.374 521.025 970.287C520.444 970.201 519.892 970.536 519.791 971.036C519.691 971.536 520.08 972.011 520.662 972.098Z" fill="white"/>
<path d="M455.662 911.098C456.243 911.184 456.796 910.849 456.896 910.349C456.997 909.849 456.607 909.374 456.025 909.287C455.444 909.201 454.892 909.536 454.791 910.036C454.691 910.536 455.08 911.011 455.662 911.098Z" fill="white"/>
<path d="M584.662 931.098C585.243 931.184 585.796 930.849 585.896 930.349C585.997 929.849 585.607 929.374 585.025 929.287C584.444 929.201 583.892 929.536 583.791 930.036C583.691 930.536 584.08 931.011 584.662 931.098Z" fill="white"/>
<path d="M493.662 1031.1C494.243 1031.18 494.796 1030.85 494.896 1030.35C494.997 1029.85 494.607 1029.37 494.026 1029.29C493.444 1029.2 492.892 1029.54 492.791 1030.04C492.691 1030.54 493.081 1031.01 493.662 1031.1Z" fill="white"/>
<path d="M767.69 845.098C768.272 845.184 768.824 844.849 768.925 844.349C769.025 843.849 768.635 843.374 768.054 843.287C767.473 843.201 766.92 843.536 766.82 844.036C766.719 844.536 767.109 845.011 767.69 845.098Z" fill="white"/>
<path d="M458.237 1209.87C458.818 1209.78 459.244 1209.3 459.189 1208.79C459.134 1208.28 458.62 1207.95 458.039 1208.04C457.459 1208.13 457.033 1208.62 457.087 1209.12C457.142 1209.63 457.657 1209.97 458.237 1209.87Z" fill="white"/>
<path d="M455.237 1121.9C455.818 1121.81 456.244 1121.32 456.189 1120.82C456.134 1120.31 455.62 1119.97 455.039 1120.07C454.459 1120.16 454.033 1120.64 454.087 1121.15C454.142 1121.66 454.657 1121.99 455.237 1121.9Z" fill="white"/>
<path d="M581.723 1120.48C582.303 1120.39 582.73 1119.9 582.675 1119.4C582.62 1118.89 582.105 1118.55 581.525 1118.65C580.945 1118.74 580.519 1119.22 580.573 1119.73C580.628 1120.24 581.143 1120.57 581.723 1120.48Z" fill="white"/>
<path d="M529.723 1069.87C530.303 1069.78 530.73 1069.3 530.675 1068.79C530.62 1068.28 530.105 1067.95 529.525 1068.04C528.945 1068.13 528.519 1068.62 528.573 1069.12C528.628 1069.63 529.143 1069.97 529.723 1069.87Z" fill="white"/>
<path d="M527.589 1224.9C528.17 1224.81 528.596 1224.32 528.541 1223.82C528.486 1223.31 527.972 1222.97 527.391 1223.07C526.811 1223.16 526.385 1223.65 526.44 1224.15C526.494 1224.66 527.009 1225 527.589 1224.9Z" fill="white"/>
<path d="M595.723 1189.48C596.303 1189.39 596.73 1188.9 596.675 1188.4C596.62 1187.89 596.105 1187.55 595.525 1187.65C594.945 1187.74 594.519 1188.22 594.573 1188.73C594.628 1189.24 595.143 1189.57 595.723 1189.48Z" fill="white"/>
<path d="M730.662 1054.1C731.243 1054.18 731.796 1053.85 731.896 1053.35C731.997 1052.85 731.607 1052.37 731.025 1052.29C730.444 1052.2 729.892 1052.54 729.791 1053.04C729.691 1053.54 730.08 1054.01 730.662 1054.1Z" fill="white"/>
<path d="M665.662 993.098C666.243 993.184 666.796 992.849 666.896 992.349C666.997 991.849 666.607 991.374 666.025 991.287C665.444 991.201 664.892 991.536 664.791 992.036C664.691 992.536 665.08 993.011 665.662 993.098Z" fill="white"/>
<path d="M794.662 1013.1C795.243 1013.18 795.796 1012.85 795.896 1012.35C795.997 1011.85 795.607 1011.37 795.025 1011.29C794.444 1011.2 793.892 1011.54 793.791 1012.04C793.691 1012.54 794.08 1013.01 794.662 1013.1Z" fill="white"/>
<path d="M703.662 1113.1C704.243 1113.18 704.796 1112.85 704.896 1112.35C704.997 1111.85 704.607 1111.37 704.026 1111.29C703.444 1111.2 702.892 1111.54 702.791 1112.04C702.691 1112.54 703.081 1113.01 703.662 1113.1Z" fill="white"/>
<path d="M768.662 1095.1C769.243 1095.18 769.796 1094.85 769.896 1094.35C769.997 1093.85 769.607 1093.37 769.025 1093.29C768.444 1093.2 767.892 1093.54 767.791 1094.04C767.691 1094.54 768.08 1095.01 768.662 1095.1Z" fill="white"/>
<path d="M877.176 913.098C877.757 913.184 878.31 912.849 878.411 912.349C878.511 911.849 878.121 911.374 877.54 911.287C876.959 911.201 876.406 911.536 876.306 912.036C876.205 912.536 876.595 913.011 877.176 913.098Z" fill="white"/>
<path d="M1006.18 933.098C1006.76 933.185 1007.31 932.849 1007.41 932.35C1007.51 931.85 1007.12 931.374 1006.54 931.288C1005.96 931.201 1005.41 931.537 1005.31 932.036C1005.2 932.536 1005.59 933.012 1006.18 933.098Z" fill="white"/>
<path d="M915.176 1033.1C915.757 1033.19 916.31 1032.85 916.41 1032.35C916.511 1031.85 916.121 1031.38 915.54 1031.29C914.958 1031.2 914.406 1031.54 914.305 1032.04C914.205 1032.54 914.595 1033.01 915.176 1033.1Z" fill="white"/>
<path d="M980.176 1015.1C980.757 1015.19 981.31 1014.85 981.41 1014.35C981.511 1013.85 981.121 1013.37 980.54 1013.29C979.958 1013.2 979.406 1013.54 979.305 1014.04C979.205 1014.54 979.595 1015.01 980.176 1015.1Z" fill="white"/>
<path d="M970.237 1162.48C970.818 1162.39 971.244 1161.91 971.189 1161.4C971.134 1160.89 970.62 1160.56 970.039 1160.65C969.459 1160.74 969.033 1161.23 969.087 1161.73C969.142 1162.24 969.657 1162.58 970.237 1162.48Z" fill="white"/>
<path d="M876.751 1123.9C877.332 1123.81 877.758 1123.33 877.703 1122.82C877.649 1122.31 877.134 1121.98 876.553 1122.07C875.973 1122.16 875.547 1122.65 875.602 1123.15C875.656 1123.66 876.171 1124 876.751 1123.9Z" fill="white"/>
<path d="M1003.24 1122.48C1003.82 1122.39 1004.24 1121.9 1004.19 1121.4C1004.13 1120.89 1003.62 1120.55 1003.04 1120.65C1002.46 1120.74 1002.03 1121.23 1002.09 1121.73C1002.14 1122.24 1002.66 1122.58 1003.24 1122.48Z" fill="white"/>
<path d="M951.237 1071.88C951.818 1071.78 952.244 1071.3 952.189 1070.79C952.134 1070.28 951.62 1069.95 951.039 1070.04C950.459 1070.13 950.033 1070.62 950.087 1071.13C950.142 1071.63 950.657 1071.97 951.237 1071.88Z" fill="white"/>
<path d="M1049.24 1055.88C1049.82 1055.78 1050.24 1055.3 1050.19 1054.79C1050.13 1054.28 1049.62 1053.95 1049.04 1054.04C1048.46 1054.13 1048.03 1054.62 1048.09 1055.13C1048.14 1055.63 1048.66 1055.97 1049.24 1055.88Z" fill="white"/>
<path d="M949.104 1226.9C949.684 1226.81 950.11 1226.33 950.056 1225.82C950.001 1225.31 949.486 1224.98 948.906 1225.07C948.325 1225.16 947.899 1225.65 947.954 1226.15C948.009 1226.66 948.523 1227 949.104 1226.9Z" fill="white"/>
<path d="M1017.24 1191.48C1017.82 1191.39 1018.24 1190.91 1018.19 1190.4C1018.13 1189.89 1017.62 1189.56 1017.04 1189.65C1016.46 1189.74 1016.03 1190.23 1016.09 1190.73C1016.14 1191.24 1016.66 1191.58 1017.24 1191.48Z" fill="white"/>
<path d="M1152.18 1056.1C1152.76 1056.19 1153.31 1055.85 1153.41 1055.35C1153.51 1054.85 1153.12 1054.38 1152.54 1054.29C1151.96 1054.2 1151.41 1054.54 1151.31 1055.04C1151.2 1055.54 1151.59 1056.01 1152.18 1056.1Z" fill="white"/>
<path d="M1087.18 995.099C1087.76 995.185 1088.31 994.85 1088.41 994.35C1088.51 993.85 1088.12 993.375 1087.54 993.289C1086.96 993.202 1086.41 993.537 1086.31 994.037C1086.2 994.537 1086.59 995.012 1087.18 995.099Z" fill="white"/>
<path d="M1216.18 1015.1C1216.76 1015.19 1217.31 1014.85 1217.41 1014.35C1217.51 1013.85 1217.12 1013.37 1216.54 1013.29C1215.96 1013.2 1215.41 1013.54 1215.31 1014.04C1215.2 1014.54 1215.59 1015.01 1216.18 1015.1Z" fill="white"/>
<path d="M1125.18 1115.1C1125.76 1115.19 1126.31 1114.85 1126.41 1114.35C1126.51 1113.85 1126.12 1113.38 1125.54 1113.29C1124.96 1113.2 1124.41 1113.54 1124.31 1114.04C1124.2 1114.54 1124.59 1115.01 1125.18 1115.1Z" fill="white"/>
<path d="M1190.18 1097.1C1190.76 1097.19 1191.31 1096.85 1191.41 1096.35C1191.51 1095.85 1191.12 1095.38 1190.54 1095.29C1189.96 1095.2 1189.41 1095.54 1189.31 1096.04C1189.2 1096.54 1189.59 1097.01 1190.18 1097.1Z" fill="white"/>
<path d="M1337.66 1018.1C1338.24 1018.19 1338.8 1017.85 1338.9 1017.35C1339 1016.85 1338.61 1016.38 1338.03 1016.29C1337.44 1016.2 1336.89 1016.54 1336.79 1017.04C1336.69 1017.54 1337.08 1018.01 1337.66 1018.1Z" fill="white"/>
<path d="M1272.66 957.099C1273.24 957.185 1273.8 956.85 1273.9 956.35C1274 955.85 1273.61 955.375 1273.03 955.288C1272.44 955.202 1271.89 955.537 1271.79 956.037C1271.69 956.537 1272.08 957.012 1272.66 957.099Z" fill="white"/>
<path d="M1401.66 977.099C1402.24 977.185 1402.8 976.85 1402.9 976.35C1403 975.85 1402.61 975.375 1402.03 975.288C1401.44 975.202 1400.89 975.537 1400.79 976.037C1400.69 976.537 1401.08 977.012 1401.66 977.099Z" fill="white"/>
<path d="M1310.66 1077.1C1311.24 1077.19 1311.8 1076.85 1311.9 1076.35C1312 1075.85 1311.61 1075.38 1311.03 1075.29C1310.44 1075.2 1309.89 1075.54 1309.79 1076.04C1309.69 1076.54 1310.08 1077.01 1310.66 1077.1Z" fill="white"/>
<path d="M1375.66 1059.1C1376.24 1059.19 1376.8 1058.85 1376.9 1058.35C1377 1057.85 1376.61 1057.38 1376.03 1057.29C1375.44 1057.2 1374.89 1057.54 1374.79 1058.04C1374.69 1058.54 1375.08 1059.01 1375.66 1059.1Z" fill="white"/>
<path d="M1275.24 1255.88C1275.82 1255.78 1276.24 1255.3 1276.19 1254.79C1276.13 1254.28 1275.62 1253.95 1275.04 1254.04C1274.46 1254.13 1274.03 1254.62 1274.09 1255.13C1274.14 1255.63 1274.66 1255.97 1275.24 1255.88Z" fill="white"/>
<path d="M1272.24 1167.9C1272.82 1167.81 1273.24 1167.33 1273.19 1166.82C1273.13 1166.31 1272.62 1165.98 1272.04 1166.07C1271.46 1166.16 1271.03 1166.65 1271.09 1167.15C1271.14 1167.66 1271.66 1168 1272.24 1167.9Z" fill="white"/>
<path d="M1398.72 1166.48C1399.3 1166.39 1399.73 1165.91 1399.67 1165.4C1399.62 1164.89 1399.11 1164.56 1398.53 1164.65C1397.94 1164.74 1397.52 1165.23 1397.57 1165.73C1397.63 1166.24 1398.14 1166.58 1398.72 1166.48Z" fill="white"/>
<path d="M1346.72 1115.88C1347.3 1115.78 1347.73 1115.3 1347.67 1114.79C1347.62 1114.28 1347.11 1113.95 1346.52 1114.04C1345.94 1114.13 1345.52 1114.62 1345.57 1115.13C1345.63 1115.63 1346.14 1115.97 1346.72 1115.88Z" fill="white"/>
<path d="M1444.72 1099.88C1445.3 1099.78 1445.73 1099.3 1445.67 1098.79C1445.62 1098.28 1445.11 1097.95 1444.53 1098.04C1443.94 1098.13 1443.52 1098.62 1443.57 1099.13C1443.63 1099.63 1444.14 1099.97 1444.72 1099.88Z" fill="white"/>
<path d="M1344.59 1270.9C1345.17 1270.81 1345.6 1270.33 1345.54 1269.82C1345.49 1269.31 1344.97 1268.98 1344.39 1269.07C1343.81 1269.16 1343.38 1269.65 1343.44 1270.15C1343.49 1270.66 1344.01 1271 1344.59 1270.9Z" fill="white"/>
<path d="M1412.72 1235.48C1413.3 1235.39 1413.73 1234.91 1413.67 1234.4C1413.62 1233.89 1413.11 1233.56 1412.53 1233.65C1411.94 1233.74 1411.52 1234.23 1411.57 1234.73C1411.63 1235.24 1412.14 1235.58 1412.72 1235.48Z" fill="white"/>
<path d="M1547.66 1100.1C1548.24 1100.19 1548.8 1099.85 1548.9 1099.35C1549 1098.85 1548.61 1098.38 1548.03 1098.29C1547.44 1098.2 1546.89 1098.54 1546.79 1099.04C1546.69 1099.54 1547.08 1100.01 1547.66 1100.1Z" fill="white"/>
<path d="M1482.66 1039.1C1483.24 1039.19 1483.8 1038.85 1483.9 1038.35C1484 1037.85 1483.61 1037.38 1483.03 1037.29C1482.44 1037.2 1481.89 1037.54 1481.79 1038.04C1481.69 1038.54 1482.08 1039.01 1482.66 1039.1Z" fill="white"/>
<path d="M1545.69 972.098C1546.27 972.184 1546.82 971.849 1546.92 971.349C1547.02 970.849 1546.64 970.374 1546.05 970.287C1545.47 970.201 1544.92 970.536 1544.82 971.036C1544.72 971.536 1545.11 972.011 1545.69 972.098Z" fill="white"/>
<path d="M1632.27 1073.24C1632.35 1072.65 1632.01 1072.1 1631.51 1072C1631.01 1071.91 1630.54 1072.3 1630.45 1072.88C1630.37 1073.46 1630.71 1074.01 1631.21 1074.11C1631.71 1074.21 1632.18 1073.82 1632.27 1073.24Z" fill="white"/>
<path d="M1571.53 1138.48C1571.61 1137.9 1571.27 1137.35 1570.77 1137.25C1570.27 1137.15 1569.8 1137.54 1569.71 1138.12C1569.63 1138.7 1569.97 1139.26 1570.47 1139.35C1570.97 1139.45 1571.44 1139.06 1571.53 1138.48Z" fill="white"/>
<path d="M1591.01 1009.4C1591.09 1008.82 1590.76 1008.27 1590.26 1008.17C1589.76 1008.07 1589.28 1008.46 1589.2 1009.04C1589.11 1009.63 1589.45 1010.18 1589.95 1010.28C1590.45 1010.37 1590.93 1009.98 1591.01 1009.4Z" fill="white"/>
<path d="M1691.37 1100C1691.46 1099.42 1691.12 1098.87 1690.62 1098.77C1690.12 1098.67 1689.65 1099.06 1689.56 1099.64C1689.48 1100.22 1689.81 1100.78 1690.32 1100.87C1690.82 1100.97 1691.29 1100.58 1691.37 1100Z" fill="white"/>
<path d="M1820.54 1044.42C1820.44 1043.84 1819.95 1043.42 1819.45 1043.47C1818.94 1043.53 1818.61 1044.05 1818.7 1044.63C1818.8 1045.21 1819.28 1045.63 1819.79 1045.57C1820.3 1045.52 1820.63 1045 1820.54 1044.42Z" fill="white"/>
<path d="M1782.33 1138.06C1782.24 1137.48 1781.75 1137.06 1781.24 1137.11C1780.73 1137.17 1780.4 1137.69 1780.5 1138.27C1780.59 1138.85 1781.08 1139.27 1781.58 1139.21C1782.09 1139.16 1782.43 1138.64 1782.33 1138.06Z" fill="white"/>
<path d="M1780.4 1011.58C1780.31 1011 1779.82 1010.58 1779.32 1010.63C1778.81 1010.69 1778.47 1011.21 1778.57 1011.79C1778.66 1012.37 1779.15 1012.79 1779.66 1012.73C1780.17 1012.68 1780.5 1012.16 1780.4 1011.58Z" fill="white"/>
<path d="M1730.01 1063.78C1729.91 1063.2 1729.42 1062.78 1728.92 1062.84C1728.41 1062.89 1728.08 1063.41 1728.17 1063.99C1728.27 1064.57 1728.75 1064.99 1729.26 1064.94C1729.77 1064.88 1730.1 1064.36 1730.01 1063.78Z" fill="white"/>
<path d="M1713.61 965.849C1713.52 965.269 1713.03 964.844 1712.52 964.901C1712.02 964.958 1711.68 965.474 1711.78 966.054C1711.87 966.634 1712.36 967.058 1712.87 967.001C1713.37 966.945 1713.71 966.429 1713.61 965.849Z" fill="white"/>
<path d="M1885.04 1065.3C1884.95 1064.72 1884.46 1064.29 1883.95 1064.35C1883.45 1064.41 1883.11 1064.92 1883.21 1065.5C1883.3 1066.08 1883.79 1066.51 1884.3 1066.45C1884.8 1066.39 1885.14 1065.88 1885.04 1065.3Z" fill="white"/>
<path d="M1849.35 997.306C1849.25 996.726 1848.77 996.302 1848.26 996.359C1847.75 996.415 1847.42 996.931 1847.51 997.511C1847.61 998.091 1848.1 998.516 1848.6 998.459C1849.11 998.402 1849.44 997.886 1849.35 997.306Z" fill="white"/>
<path d="M1713.43 862.91C1713.51 862.328 1713.17 861.777 1712.67 861.678C1712.17 861.58 1711.7 861.972 1711.61 862.553C1711.53 863.135 1711.87 863.686 1712.37 863.785C1712.87 863.883 1713.34 863.491 1713.43 862.91Z" fill="white"/>
<path d="M1652.69 928.153C1652.77 927.571 1652.43 927.02 1651.93 926.922C1651.43 926.823 1650.96 927.215 1650.87 927.797C1650.79 928.378 1651.13 928.93 1651.63 929.028C1652.13 929.126 1652.6 928.735 1652.69 928.153Z" fill="white"/>
<path d="M1672.17 799.074C1672.25 798.493 1671.92 797.941 1671.42 797.843C1670.92 797.744 1670.44 798.136 1670.36 798.718C1670.27 799.299 1670.61 799.851 1671.11 799.949C1671.61 800.048 1672.09 799.656 1672.17 799.074Z" fill="white"/>
<path d="M1772.53 889.674C1772.62 889.092 1772.28 888.541 1771.78 888.442C1771.28 888.344 1770.81 888.736 1770.72 889.317C1770.64 889.899 1770.97 890.45 1771.47 890.548C1771.98 890.647 1772.45 890.255 1772.53 889.674Z" fill="white"/>
<path d="M1754.27 824.746C1754.36 824.165 1754.02 823.613 1753.52 823.515C1753.02 823.416 1752.55 823.808 1752.46 824.39C1752.38 824.971 1752.71 825.523 1753.22 825.621C1753.72 825.719 1754.19 825.328 1754.27 824.746Z" fill="white"/>
<path d="M1674.68 677.577C1674.77 676.996 1674.43 676.445 1673.93 676.346C1673.43 676.248 1672.96 676.639 1672.87 677.221C1672.79 677.803 1673.13 678.354 1673.63 678.452C1674.13 678.551 1674.6 678.159 1674.68 677.577Z" fill="white"/>
<path d="M1599.58 886.562C1599.67 885.981 1599.33 885.429 1598.83 885.331C1598.33 885.233 1597.85 885.624 1597.77 886.206C1597.69 886.788 1598.02 887.339 1598.52 887.437C1599.02 887.536 1599.5 887.144 1599.58 886.562Z" fill="white"/>
<path d="M1633.43 613.742C1633.51 613.16 1633.18 612.609 1632.68 612.511C1632.18 612.412 1631.7 612.804 1631.62 613.385C1631.53 613.967 1631.87 614.518 1632.37 614.617C1632.87 614.715 1633.34 614.323 1633.43 613.742Z" fill="white"/>
<path d="M1549.58 614.562C1549.67 613.981 1549.33 613.429 1548.83 613.331C1548.33 613.233 1547.85 613.624 1547.77 614.206C1547.69 614.788 1548.02 615.339 1548.52 615.437C1549.02 615.536 1549.5 615.144 1549.58 614.562Z" fill="white"/>
<path d="M1912.71 739.051C1912.61 738.471 1912.13 738.047 1911.62 738.103C1911.11 738.16 1910.78 738.676 1910.87 739.256C1910.97 739.836 1911.46 740.26 1911.96 740.204C1912.47 740.147 1912.8 739.631 1912.71 739.051Z" fill="white"/>
<path d="M1824.75 742.402C1824.65 741.823 1824.17 741.398 1823.66 741.455C1823.15 741.512 1822.82 742.028 1822.91 742.608C1823.01 743.188 1823.5 743.612 1824 743.555C1824.51 743.499 1824.84 742.982 1824.75 742.402Z" fill="white"/>
<path d="M1822.82 615.923C1822.73 615.343 1822.24 614.919 1821.73 614.976C1821.23 615.033 1820.89 615.549 1820.99 616.129C1821.08 616.709 1821.57 617.133 1822.08 617.076C1822.58 617.02 1822.92 616.503 1822.82 615.923Z" fill="white"/>
<path d="M1772.42 668.125C1772.33 667.545 1771.84 667.121 1771.33 667.178C1770.83 667.235 1770.49 667.751 1770.59 668.331C1770.68 668.911 1771.17 669.335 1771.68 669.278C1772.18 669.221 1772.52 668.705 1772.42 668.125Z" fill="white"/>
<path d="M1756.03 570.19C1755.94 569.61 1755.45 569.186 1754.94 569.243C1754.44 569.299 1754.1 569.815 1754.2 570.395C1754.29 570.975 1754.78 571.4 1755.29 571.343C1755.79 571.286 1756.13 570.77 1756.03 570.19Z" fill="white"/>
<path d="M1891.77 601.648C1891.67 601.068 1891.18 600.643 1890.68 600.7C1890.17 600.757 1889.84 601.273 1889.93 601.853C1890.03 602.433 1890.51 602.857 1891.02 602.8C1891.53 602.744 1891.86 602.228 1891.77 601.648Z" fill="white"/>
<path d="M1628.58 468.562C1628.67 467.981 1628.33 467.429 1627.83 467.331C1627.33 467.233 1626.85 467.624 1626.77 468.206C1626.69 468.788 1627.02 469.339 1627.52 469.437C1628.02 469.536 1628.5 469.144 1628.58 468.562Z" fill="white"/>
<path d="M1695.1 532.495C1695.19 531.913 1694.85 531.362 1694.35 531.263C1693.85 531.165 1693.38 531.557 1693.29 532.138C1693.21 532.72 1693.55 533.271 1694.05 533.369C1694.55 533.468 1695.02 533.076 1695.1 532.495Z" fill="white"/>
<path d="M1714.59 403.416C1714.67 402.834 1714.34 402.283 1713.83 402.184C1713.33 402.086 1712.86 402.478 1712.78 403.059C1712.69 403.641 1713.03 404.192 1713.53 404.291C1714.03 404.389 1714.5 403.997 1714.59 403.416Z" fill="white"/>
<path d="M1814.95 494.015C1815.04 493.433 1814.7 492.882 1814.2 492.784C1813.7 492.685 1813.22 493.077 1813.14 493.659C1813.06 494.24 1813.39 494.791 1813.89 494.89C1814.39 494.988 1814.87 494.597 1814.95 494.015Z" fill="white"/>
<path d="M1796.69 429.088C1796.78 428.506 1796.44 427.955 1795.94 427.856C1795.44 427.758 1794.96 428.15 1794.88 428.731C1794.8 429.313 1795.13 429.864 1795.63 429.963C1796.13 430.061 1796.61 429.669 1796.69 429.088Z" fill="white"/>
<path d="M1297.18 66.0977C1297.76 66.1841 1298.31 65.8489 1298.41 65.349C1298.51 64.8491 1298.12 64.3738 1297.54 64.2873C1296.96 64.2009 1296.41 64.5361 1296.31 65.036C1296.2 65.5359 1296.59 66.0112 1297.18 66.0977Z" fill="white"/>
<path d="M1232.18 5.09767C1232.76 5.18411 1233.31 4.84894 1233.41 4.34903C1233.51 3.84913 1233.12 3.37379 1232.54 3.28735C1231.96 3.2009 1231.41 3.53608 1231.31 4.03598C1231.2 4.53589 1231.59 5.01122 1232.18 5.09767Z" fill="white"/>
<path d="M1361.18 25.0977C1361.76 25.1841 1362.31 24.8489 1362.41 24.349C1362.51 23.8491 1362.12 23.3738 1361.54 23.2873C1360.96 23.2009 1360.41 23.5361 1360.31 24.036C1360.2 24.5359 1360.59 25.0112 1361.18 25.0977Z" fill="white"/>
<path d="M1270.18 125.098C1270.76 125.184 1271.31 124.849 1271.41 124.349C1271.51 123.849 1271.12 123.374 1270.54 123.287C1269.96 123.201 1269.41 123.536 1269.31 124.036C1269.2 124.536 1269.59 125.011 1270.18 125.098Z" fill="white"/>
<path d="M1335.18 107.098C1335.76 107.184 1336.31 106.849 1336.41 106.349C1336.51 105.849 1336.12 105.374 1335.54 105.287C1334.96 105.201 1334.41 105.536 1334.31 106.036C1334.2 106.536 1334.59 107.011 1335.18 107.098Z" fill="white"/>
<path d="M1325.24 254.482C1325.82 254.389 1326.24 253.903 1326.19 253.396C1326.13 252.889 1325.62 252.553 1325.04 252.646C1324.46 252.738 1324.03 253.224 1324.09 253.731C1324.14 254.238 1324.66 254.574 1325.24 254.482Z" fill="white"/>
<path d="M1231.75 215.902C1232.33 215.809 1232.76 215.323 1232.7 214.817C1232.65 214.31 1232.13 213.974 1231.55 214.066C1230.97 214.159 1230.55 214.645 1230.6 215.151C1230.66 215.658 1231.17 215.994 1231.75 215.902Z" fill="white"/>
<path d="M1358.24 214.482C1358.82 214.389 1359.24 213.903 1359.19 213.396C1359.13 212.889 1358.62 212.553 1358.04 212.646C1357.46 212.738 1357.03 213.224 1357.09 213.731C1357.14 214.238 1357.66 214.574 1358.24 214.482Z" fill="white"/>
<path d="M1306.24 163.874C1306.82 163.782 1307.24 163.296 1307.19 162.789C1307.13 162.282 1306.62 161.946 1306.04 162.039C1305.46 162.131 1305.03 162.617 1305.09 163.124C1305.14 163.631 1305.66 163.967 1306.24 163.874Z" fill="white"/>
<path d="M1404.24 147.874C1404.82 147.782 1405.24 147.296 1405.19 146.789C1405.13 146.282 1404.62 145.946 1404.04 146.039C1403.46 146.131 1403.03 146.617 1403.09 147.124C1403.14 147.631 1403.66 147.967 1404.24 147.874Z" fill="white"/>
<path d="M1441.75 558.874C1442.33 558.782 1442.76 558.296 1442.7 557.789C1442.65 557.282 1442.13 556.946 1441.55 557.039C1440.97 557.131 1440.55 557.617 1440.6 558.124C1440.66 558.631 1441.17 558.967 1441.75 558.874Z" fill="white"/>
<path d="M1372.24 283.482C1372.82 283.389 1373.24 282.903 1373.19 282.396C1373.13 281.889 1372.62 281.553 1372.04 281.646C1371.46 281.738 1371.03 282.224 1371.09 282.731C1371.14 283.238 1371.66 283.574 1372.24 283.482Z" fill="white"/>
<path d="M1507.18 148.098C1507.76 148.184 1508.31 147.849 1508.41 147.349C1508.51 146.849 1508.12 146.374 1507.54 146.287C1506.96 146.201 1506.41 146.536 1506.31 147.036C1506.2 147.536 1506.59 148.011 1507.18 148.098Z" fill="white"/>
<path d="M1442.18 87.0977C1442.76 87.1841 1443.31 86.8489 1443.41 86.349C1443.51 85.8491 1443.12 85.3738 1442.54 85.2873C1441.96 85.2009 1441.41 85.5361 1441.31 86.036C1441.2 86.5359 1441.59 87.0112 1442.18 87.0977Z" fill="white"/>
<path d="M1571.18 107.098C1571.76 107.184 1572.31 106.849 1572.41 106.349C1572.51 105.849 1572.12 105.374 1571.54 105.287C1570.96 105.201 1570.41 105.536 1570.31 106.036C1570.2 106.536 1570.59 107.011 1571.18 107.098Z" fill="white"/>
<path d="M1480.18 207.098C1480.76 207.184 1481.31 206.849 1481.41 206.349C1481.51 205.849 1481.12 205.374 1480.54 205.287C1479.96 205.201 1479.41 205.536 1479.31 206.036C1479.2 206.536 1479.59 207.011 1480.18 207.098Z" fill="white"/>
<path d="M1545.18 189.098C1545.76 189.184 1546.31 188.849 1546.41 188.349C1546.51 187.849 1546.12 187.374 1545.54 187.287C1544.96 187.201 1544.41 187.536 1544.31 188.036C1544.2 188.536 1544.59 189.011 1545.18 189.098Z" fill="white"/>
<path d="M1692.66 110.098C1693.24 110.184 1693.8 109.849 1693.9 109.349C1694 108.849 1693.61 108.374 1693.03 108.287C1692.44 108.201 1691.89 108.536 1691.79 109.036C1691.69 109.536 1692.08 110.011 1692.66 110.098Z" fill="white"/>
<path d="M1627.66 49.0977C1628.24 49.1841 1628.8 48.8489 1628.9 48.349C1629 47.8491 1628.61 47.3738 1628.03 47.2873C1627.44 47.2009 1626.89 47.5361 1626.79 48.036C1626.69 48.5359 1627.08 49.0112 1627.66 49.0977Z" fill="white"/>
<path d="M1756.66 69.0977C1757.24 69.1841 1757.8 68.8489 1757.9 68.349C1758 67.8491 1757.61 67.3738 1757.03 67.2873C1756.44 67.2009 1755.89 67.5361 1755.79 68.036C1755.69 68.5359 1756.08 69.0112 1756.66 69.0977Z" fill="white"/>
<path d="M1665.66 169.098C1666.24 169.184 1666.8 168.849 1666.9 168.349C1667 167.849 1666.61 167.374 1666.03 167.287C1665.44 167.201 1664.89 167.536 1664.79 168.036C1664.69 168.536 1665.08 169.011 1665.66 169.098Z" fill="white"/>
<path d="M1730.66 151.098C1731.24 151.184 1731.8 150.849 1731.9 150.349C1732 149.849 1731.61 149.374 1731.03 149.287C1730.44 149.201 1729.89 149.536 1729.79 150.036C1729.69 150.536 1730.08 151.011 1730.66 151.098Z" fill="white"/>
<path d="M1630.24 347.874C1630.82 347.782 1631.24 347.296 1631.19 346.789C1631.13 346.282 1630.62 345.946 1630.04 346.039C1629.46 346.131 1629.03 346.617 1629.09 347.124C1629.14 347.631 1629.66 347.967 1630.24 347.874Z" fill="white"/>
<path d="M1627.24 259.902C1627.82 259.809 1628.24 259.323 1628.19 258.817C1628.13 258.31 1627.62 257.974 1627.04 258.066C1626.46 258.159 1626.03 258.645 1626.09 259.151C1626.14 259.658 1626.66 259.994 1627.24 259.902Z" fill="white"/>
<path d="M1753.72 258.482C1754.3 258.389 1754.73 257.903 1754.68 257.396C1754.62 256.889 1754.11 256.553 1753.53 256.646C1752.95 256.738 1752.52 257.224 1752.57 257.731C1752.63 258.238 1753.14 258.574 1753.72 258.482Z" fill="white"/>
<path d="M1701.72 207.874C1702.3 207.782 1702.73 207.296 1702.67 206.789C1702.62 206.282 1702.11 205.946 1701.53 206.039C1700.94 206.131 1700.52 206.617 1700.57 207.124C1700.63 207.631 1701.14 207.967 1701.72 207.874Z" fill="white"/>
<path d="M1799.72 191.874C1800.3 191.782 1800.73 191.296 1800.67 190.789C1800.62 190.282 1800.11 189.946 1799.53 190.039C1798.94 190.131 1798.52 190.617 1798.57 191.124C1798.63 191.631 1799.14 191.967 1799.72 191.874Z" fill="white"/>
<path d="M1699.59 362.903C1700.17 362.81 1700.6 362.324 1700.54 361.817C1700.49 361.31 1699.97 360.974 1699.39 361.067C1698.81 361.159 1698.39 361.645 1698.44 362.152C1698.49 362.659 1699.01 362.995 1699.59 362.903Z" fill="white"/>
<path d="M1767.72 327.482C1768.3 327.389 1768.73 326.903 1768.67 326.396C1768.62 325.889 1768.11 325.553 1767.53 325.646C1766.94 325.738 1766.52 326.224 1766.57 326.731C1766.63 327.238 1767.14 327.574 1767.72 327.482Z" fill="white"/>
<path d="M1902.66 192.098C1903.24 192.184 1903.8 191.849 1903.9 191.349C1904 190.849 1903.61 190.374 1903.03 190.287C1902.44 190.201 1901.89 190.536 1901.79 191.036C1901.69 191.536 1902.08 192.011 1902.66 192.098Z" fill="white"/>
<path d="M1837.66 131.098C1838.24 131.184 1838.8 130.849 1838.9 130.349C1839 129.849 1838.61 129.374 1838.03 129.287C1837.44 129.201 1836.89 129.536 1836.79 130.036C1836.69 130.536 1837.08 131.011 1837.66 131.098Z" fill="white"/>
<path d="M1875.66 251.098C1876.24 251.184 1876.8 250.849 1876.9 250.349C1877 249.849 1876.61 249.374 1876.03 249.287C1875.44 249.201 1874.89 249.536 1874.79 250.036C1874.69 250.536 1875.08 251.011 1875.66 251.098Z" fill="white"/>
<path d="M88.6903 176.098C89.2716 176.184 89.8242 175.849 89.9247 175.349C90.0251 174.849 89.6353 174.374 89.054 174.287C88.4727 174.201 87.9201 174.536 87.8197 175.036C87.7192 175.536 88.109 176.011 88.6903 176.098Z" fill="white"/>
<path d="M23.6903 115.098C24.2716 115.184 24.8242 114.849 24.9247 114.349C25.0251 113.849 24.6353 113.374 24.054 113.287C23.4727 113.201 22.9201 113.536 22.8197 114.036C22.7192 114.536 23.109 115.011 23.6903 115.098Z" fill="white"/>
<path d="M152.691 135.098C153.272 135.184 153.824 134.849 153.925 134.349C154.025 133.849 153.636 133.374 153.054 133.287C152.473 133.201 151.92 133.536 151.82 134.036C151.719 134.536 152.109 135.011 152.691 135.098Z" fill="white"/>
<path d="M61.6903 235.098C62.2716 235.184 62.8242 234.849 62.9247 234.349C63.0251 233.849 62.6353 233.374 62.054 233.287C61.4727 233.201 60.9201 233.536 60.8197 234.036C60.7192 234.536 61.109 235.011 61.6903 235.098Z" fill="white"/>
<path d="M126.691 217.098C127.272 217.184 127.824 216.849 127.925 216.349C128.025 215.849 127.636 215.374 127.054 215.287C126.473 215.201 125.92 215.536 125.82 216.036C125.719 216.536 126.109 217.011 126.691 217.098Z" fill="white"/>
<path d="M116.752 364.482C117.332 364.389 117.758 363.903 117.703 363.396C117.649 362.889 117.134 362.553 116.554 362.646C115.973 362.738 115.547 363.224 115.602 363.731C115.657 364.238 116.171 364.574 116.752 364.482Z" fill="white"/>
<path d="M23.2656 325.902C23.8459 325.809 24.2721 325.323 24.2174 324.817C24.1627 324.31 23.648 323.974 23.0676 324.066C22.4873 324.159 22.0611 324.645 22.1158 325.151C22.1705 325.658 22.6852 325.994 23.2656 325.902Z" fill="white"/>
<path d="M149.752 324.482C150.332 324.389 150.758 323.903 150.703 323.396C150.649 322.889 150.134 322.553 149.554 322.646C148.973 322.738 148.547 323.224 148.602 323.731C148.657 324.238 149.171 324.574 149.752 324.482Z" fill="white"/>
<path d="M1071.75 148.874C1072.33 148.782 1072.76 148.296 1072.7 147.789C1072.65 147.282 1072.13 146.946 1071.55 147.039C1070.97 147.131 1070.55 147.617 1070.6 148.124C1070.66 148.631 1071.17 148.967 1071.75 148.874Z" fill="white"/>
<path d="M195.752 257.874C196.332 257.782 196.758 257.296 196.704 256.789C196.649 256.282 196.134 255.946 195.554 256.039C194.974 256.131 194.547 256.617 194.602 257.124C194.657 257.631 195.172 257.967 195.752 257.874Z" fill="white"/>
<path d="M203.752 459.874C204.332 459.782 204.758 459.296 204.704 458.789C204.649 458.282 204.134 457.946 203.554 458.039C202.974 458.131 202.547 458.617 202.602 459.124C202.657 459.631 203.172 459.967 203.752 459.874Z" fill="white"/>
<path d="M163.752 393.482C164.332 393.389 164.758 392.903 164.704 392.396C164.649 391.889 164.134 391.553 163.554 391.646C162.974 391.738 162.547 392.224 162.602 392.731C162.657 393.238 163.172 393.574 163.752 393.482Z" fill="white"/>
<path d="M298.69 258.098C299.272 258.184 299.824 257.849 299.925 257.349C300.025 256.849 299.635 256.374 299.054 256.287C298.473 256.201 297.92 256.536 297.82 257.036C297.719 257.536 298.109 258.011 298.69 258.098Z" fill="white"/>
<path d="M233.691 197.098C234.272 197.184 234.824 196.849 234.925 196.349C235.025 195.849 234.636 195.374 234.054 195.287C233.473 195.201 232.92 195.536 232.82 196.036C232.719 196.536 233.109 197.011 233.691 197.098Z" fill="white"/>
<path d="M271.69 317.098C272.272 317.184 272.824 316.849 272.925 316.349C273.025 315.849 272.635 315.374 272.054 315.287C271.473 315.201 270.92 315.536 270.82 316.036C270.719 316.536 271.109 317.011 271.69 317.098Z" fill="white"/>
<path d="M336.69 299.098C337.272 299.184 337.824 298.849 337.925 298.349C338.025 297.849 337.635 297.374 337.054 297.287C336.473 297.201 335.92 297.536 335.82 298.036C335.719 298.536 336.109 299.011 336.69 299.098Z" fill="white"/>
<path d="M484.176 220.098C484.757 220.184 485.31 219.849 485.411 219.349C485.511 218.849 485.121 218.374 484.54 218.287C483.959 218.201 483.406 218.536 483.306 219.036C483.205 219.536 483.595 220.011 484.176 220.098Z" fill="white"/>
<path d="M419.176 159.098C419.757 159.184 420.31 158.849 420.411 158.349C420.511 157.849 420.121 157.374 419.54 157.287C418.959 157.201 418.406 157.536 418.306 158.036C418.205 158.536 418.595 159.011 419.176 159.098Z" fill="white"/>
<path d="M548.176 179.098C548.757 179.184 549.31 178.849 549.411 178.349C549.511 177.849 549.121 177.374 548.54 177.287C547.959 177.201 547.406 177.536 547.306 178.036C547.205 178.536 547.595 179.011 548.176 179.098Z" fill="white"/>
<path d="M457.176 279.098C457.757 279.184 458.31 278.849 458.411 278.349C458.511 277.849 458.121 277.374 457.54 277.287C456.959 277.201 456.406 277.536 456.306 278.036C456.205 278.536 456.595 279.011 457.176 279.098Z" fill="white"/>
<path d="M708.69 142.098C709.272 142.184 709.824 141.849 709.925 141.349C710.025 140.849 709.635 140.374 709.054 140.287C708.473 140.201 707.92 140.536 707.82 141.036C707.719 141.536 708.109 142.011 708.69 142.098Z" fill="white"/>
<path d="M421.752 457.874C422.332 457.782 422.758 457.296 422.703 456.789C422.649 456.282 422.134 455.946 421.554 456.039C420.973 456.131 420.547 456.617 420.602 457.124C420.657 457.631 421.171 457.967 421.752 457.874Z" fill="white"/>
<path d="M418.751 369.902C419.332 369.809 419.758 369.323 419.703 368.817C419.649 368.31 419.134 367.974 418.553 368.066C417.973 368.159 417.547 368.645 417.602 369.151C417.656 369.658 418.171 369.994 418.751 369.902Z" fill="white"/>
<path d="M545.237 368.482C545.818 368.389 546.244 367.903 546.189 367.396C546.134 366.889 545.62 366.553 545.039 366.646C544.459 366.738 544.033 367.224 544.087 367.731C544.142 368.238 544.657 368.574 545.237 368.482Z" fill="white"/>
<path d="M493.237 317.874C493.818 317.782 494.244 317.296 494.189 316.789C494.134 316.282 493.62 315.946 493.039 316.039C492.459 316.131 492.033 316.617 492.087 317.124C492.142 317.631 492.657 317.967 493.237 317.874Z" fill="white"/>
<path d="M591.237 301.874C591.818 301.782 592.244 301.296 592.189 300.789C592.134 300.282 591.62 299.946 591.039 300.039C590.459 300.131 590.033 300.617 590.087 301.124C590.142 301.631 590.657 301.967 591.237 301.874Z" fill="white"/>
<path d="M491.104 472.903C491.684 472.81 492.11 472.324 492.056 471.817C492.001 471.31 491.486 470.974 490.906 471.067C490.325 471.159 489.899 471.645 489.954 472.152C490.009 472.659 490.523 472.995 491.104 472.903Z" fill="white"/>
<path d="M559.238 437.482C559.818 437.389 560.244 436.903 560.189 436.396C560.135 435.889 559.62 435.553 559.04 435.646C558.459 435.738 558.033 436.224 558.088 436.731C558.142 437.238 558.657 437.574 559.238 437.482Z" fill="white"/>
<path d="M694.176 302.098C694.757 302.184 695.31 301.849 695.41 301.349C695.511 300.849 695.121 300.374 694.54 300.287C693.958 300.201 693.406 300.536 693.305 301.036C693.205 301.536 693.595 302.011 694.176 302.098Z" fill="white"/>
<path d="M629.176 241.098C629.757 241.184 630.31 240.849 630.411 240.349C630.511 239.849 630.121 239.374 629.54 239.287C628.959 239.201 628.406 239.536 628.306 240.036C628.205 240.536 628.595 241.011 629.176 241.098Z" fill="white"/>
<path d="M758.176 261.098C758.757 261.184 759.31 260.849 759.41 260.349C759.511 259.849 759.121 259.374 758.54 259.287C757.958 259.201 757.406 259.536 757.305 260.036C757.205 260.536 757.595 261.011 758.176 261.098Z" fill="white"/>
<path d="M667.176 361.098C667.757 361.184 668.31 360.849 668.411 360.349C668.511 359.849 668.121 359.374 667.54 359.287C666.959 359.201 666.406 359.536 666.306 360.036C666.205 360.536 666.595 361.011 667.176 361.098Z" fill="white"/>
<path d="M717.69 436.098C718.272 436.184 718.824 435.849 718.925 435.349C719.025 434.849 718.635 434.374 718.054 434.287C717.473 434.201 716.92 434.536 716.82 435.036C716.719 435.536 717.109 436.011 717.69 436.098Z" fill="white"/>
<path d="M117.176 500.098C117.757 500.184 118.31 499.849 118.411 499.349C118.511 498.849 118.121 498.374 117.54 498.287C116.959 498.201 116.406 498.536 116.306 499.036C116.205 499.536 116.595 500.011 117.176 500.098Z" fill="white"/>
<path d="M52.1759 439.098C52.7572 439.184 53.3098 438.849 53.4103 438.349C53.5107 437.849 53.1209 437.374 52.5396 437.287C51.9583 437.201 51.4057 437.536 51.3053 438.036C51.2048 438.536 51.5946 439.011 52.1759 439.098Z" fill="white"/>
<path d="M295.69 430.098C296.272 430.184 296.824 429.849 296.925 429.349C297.025 428.849 296.635 428.374 296.054 428.287C295.473 428.201 294.92 428.536 294.82 429.036C294.719 429.536 295.109 430.011 295.69 430.098Z" fill="white"/>
<path d="M90.1762 559.098C90.7574 559.184 91.3101 558.849 91.4105 558.349C91.5109 557.849 91.1211 557.374 90.5399 557.287C89.9586 557.201 89.406 557.536 89.3055 558.036C89.2051 558.536 89.5949 559.011 90.1762 559.098Z" fill="white"/>
<path d="M145.238 688.482C145.818 688.389 146.244 687.903 146.189 687.396C146.135 686.889 145.62 686.553 145.04 686.646C144.459 686.738 144.033 687.224 144.088 687.731C144.142 688.238 144.657 688.574 145.238 688.482Z" fill="white"/>
<path d="M51.7514 649.902C52.3318 649.809 52.7579 649.323 52.7032 648.817C52.6486 648.31 52.1338 647.974 51.5535 648.066C50.9731 648.159 50.547 648.645 50.6016 649.151C50.6563 649.658 51.1711 649.994 51.7514 649.902Z" fill="white"/>
<path d="M350.751 839.874C351.332 839.782 351.758 839.296 351.703 838.789C351.649 838.282 351.134 837.946 350.553 838.039C349.973 838.131 349.547 838.617 349.602 839.124C349.656 839.631 350.171 839.967 350.751 839.874Z" fill="white"/>
<path d="M126.238 597.874C126.818 597.782 127.244 597.296 127.189 596.789C127.135 596.282 126.62 595.946 126.04 596.039C125.459 596.131 125.033 596.617 125.088 597.124C125.142 597.631 125.657 597.967 126.238 597.874Z" fill="white"/>
<path d="M224.238 581.874C224.818 581.782 225.244 581.296 225.189 580.789C225.135 580.282 224.62 579.946 224.04 580.039C223.459 580.131 223.033 580.617 223.088 581.124C223.142 581.631 223.657 581.967 224.238 581.874Z" fill="white"/>
<path d="M124.104 752.903C124.684 752.81 125.11 752.324 125.056 751.817C125.001 751.31 124.486 750.974 123.906 751.067C123.325 751.159 122.899 751.645 122.954 752.152C123.009 752.659 123.523 752.995 124.104 752.903Z" fill="white"/>
<path d="M192.238 717.482C192.818 717.389 193.244 716.903 193.189 716.396C193.135 715.889 192.62 715.553 192.04 715.646C191.459 715.738 191.033 716.224 191.088 716.731C191.142 717.238 191.657 717.574 192.238 717.482Z" fill="white"/>
<path d="M292.69 774.098C293.272 774.184 293.824 773.849 293.925 773.349C294.025 772.849 293.635 772.374 293.054 772.287C292.473 772.201 291.92 772.536 291.82 773.036C291.719 773.536 292.109 774.011 292.69 774.098Z" fill="white"/>
<path d="M262.176 521.098C262.757 521.184 263.31 520.849 263.411 520.349C263.511 519.849 263.121 519.374 262.54 519.287C261.959 519.201 261.406 519.536 261.306 520.036C261.205 520.536 261.595 521.011 262.176 521.098Z" fill="white"/>
<path d="M391.176 541.098C391.757 541.184 392.31 540.849 392.411 540.349C392.511 539.849 392.121 539.374 391.54 539.287C390.959 539.201 390.406 539.536 390.306 540.036C390.205 540.536 390.595 541.011 391.176 541.098Z" fill="white"/>
<path d="M300.176 641.098C300.757 641.184 301.31 640.849 301.411 640.349C301.511 639.849 301.121 639.374 300.54 639.287C299.959 639.201 299.406 639.536 299.306 640.036C299.205 640.536 299.595 641.011 300.176 641.098Z" fill="white"/>
<path d="M431.176 559.098C431.757 559.184 432.31 558.849 432.411 558.349C432.511 557.849 432.121 557.374 431.54 557.287C430.959 557.201 430.406 557.536 430.306 558.036C430.205 558.536 430.595 559.011 431.176 559.098Z" fill="white"/>
<path d="M560.176 579.098C560.757 579.184 561.31 578.849 561.41 578.349C561.511 577.849 561.121 577.374 560.54 577.287C559.958 577.201 559.406 577.536 559.305 578.036C559.205 578.536 559.595 579.011 560.176 579.098Z" fill="white"/>
<path d="M469.176 679.098C469.757 679.184 470.31 678.849 470.411 678.349C470.511 677.849 470.121 677.374 469.54 677.287C468.959 677.201 468.406 677.536 468.306 678.036C468.205 678.536 468.595 679.011 469.176 679.098Z" fill="white"/>
<path d="M534.176 661.098C534.757 661.184 535.31 660.849 535.41 660.349C535.511 659.849 535.121 659.374 534.54 659.287C533.958 659.201 533.406 659.536 533.305 660.036C533.205 660.536 533.595 661.011 534.176 661.098Z" fill="white"/>
<path d="M524.237 808.482C524.818 808.389 525.244 807.903 525.189 807.396C525.134 806.889 524.62 806.553 524.039 806.646C523.459 806.738 523.033 807.224 523.087 807.731C523.142 808.238 523.657 808.574 524.237 808.482Z" fill="white"/>
<path d="M430.751 769.902C431.332 769.809 431.758 769.323 431.703 768.817C431.649 768.31 431.134 767.974 430.553 768.066C429.973 768.159 429.547 768.645 429.602 769.151C429.656 769.658 430.171 769.994 430.751 769.902Z" fill="white"/>
<path d="M557.237 768.482C557.818 768.389 558.244 767.903 558.189 767.396C558.134 766.889 557.62 766.553 557.039 766.646C556.459 766.738 556.033 767.224 556.087 767.731C556.142 768.238 556.657 768.574 557.237 768.482Z" fill="white"/>
<path d="M737.752 933.874C738.332 933.782 738.758 933.296 738.703 932.789C738.649 932.282 738.134 931.946 737.554 932.039C736.973 932.131 736.547 932.617 736.602 933.124C736.657 933.631 737.171 933.967 737.752 933.874Z" fill="white"/>
<path d="M603.237 701.874C603.818 701.782 604.244 701.296 604.189 700.789C604.134 700.282 603.62 699.946 603.039 700.039C602.459 700.131 602.033 700.617 602.087 701.124C602.142 701.631 602.657 701.967 603.237 701.874Z" fill="white"/>
<path d="M503.104 872.903C503.684 872.81 504.11 872.324 504.056 871.817C504.001 871.31 503.486 870.974 502.906 871.067C502.325 871.159 501.899 871.645 501.954 872.152C502.009 872.659 502.523 872.995 503.104 872.903Z" fill="white"/>
<path d="M627.752 846.874C628.332 846.782 628.758 846.296 628.703 845.789C628.649 845.282 628.134 844.946 627.554 845.039C626.973 845.131 626.547 845.617 626.602 846.124C626.657 846.631 627.171 846.967 627.752 846.874Z" fill="white"/>
<path d="M706.176 702.098C706.757 702.184 707.31 701.849 707.41 701.349C707.511 700.849 707.121 700.374 706.54 700.287C705.958 700.201 705.406 700.536 705.305 701.036C705.205 701.536 705.595 702.011 706.176 702.098Z" fill="white"/>
<path d="M641.176 641.098C641.757 641.184 642.31 640.849 642.41 640.349C642.511 639.849 642.121 639.374 641.54 639.287C640.958 639.201 640.406 639.536 640.305 640.036C640.205 640.536 640.595 641.011 641.176 641.098Z" fill="white"/>
<path d="M770.176 661.098C770.757 661.184 771.31 660.849 771.41 660.349C771.511 659.849 771.121 659.374 770.54 659.287C769.958 659.201 769.406 659.536 769.305 660.036C769.205 660.536 769.595 661.011 770.176 661.098Z" fill="white"/>
<path d="M679.176 761.098C679.757 761.184 680.31 760.849 680.41 760.349C680.511 759.849 680.121 759.374 679.54 759.287C678.958 759.201 678.406 759.536 678.305 760.036C678.205 760.536 678.595 761.011 679.176 761.098Z" fill="white"/>
<path d="M744.176 743.098C744.757 743.184 745.31 742.849 745.41 742.349C745.511 741.849 745.121 741.374 744.54 741.287C743.958 741.201 743.406 741.536 743.305 742.036C743.205 742.536 743.595 743.011 744.176 743.098Z" fill="white"/>
<path d="M886.176 260.098C886.758 260.184 887.31 259.849 887.411 259.349C887.511 258.849 887.121 258.374 886.54 258.287C885.959 258.201 885.406 258.536 885.306 259.036C885.205 259.536 885.595 260.011 886.176 260.098Z" fill="white"/>
<path d="M950.176 219.098C950.758 219.184 951.31 218.849 951.411 218.349C951.511 217.849 951.121 217.374 950.54 217.287C949.959 217.201 949.406 217.536 949.306 218.036C949.205 218.536 949.595 219.011 950.176 219.098Z" fill="white"/>
<path d="M924.176 301.098C924.758 301.184 925.31 300.849 925.411 300.349C925.511 299.849 925.121 299.374 924.54 299.287C923.959 299.201 923.406 299.536 923.306 300.036C923.205 300.536 923.595 301.011 924.176 301.098Z" fill="white"/>
<path d="M914.238 448.482C914.818 448.389 915.244 447.903 915.189 447.396C915.135 446.889 914.62 446.553 914.04 446.646C913.459 446.738 913.033 447.224 913.088 447.731C913.142 448.238 913.657 448.574 914.238 448.482Z" fill="white"/>
<path d="M820.752 409.902C821.332 409.809 821.758 409.323 821.703 408.817C821.649 408.31 821.134 407.974 820.554 408.066C819.973 408.159 819.547 408.645 819.602 409.151C819.657 409.658 820.171 409.994 820.752 409.902Z" fill="white"/>
<path d="M947.238 408.482C947.818 408.389 948.244 407.903 948.189 407.396C948.135 406.889 947.62 406.553 947.04 406.646C946.459 406.738 946.033 407.224 946.088 407.731C946.142 408.238 946.657 408.574 947.238 408.482Z" fill="white"/>
<path d="M895.238 357.874C895.818 357.782 896.244 357.296 896.189 356.789C896.135 356.282 895.62 355.946 895.04 356.039C894.459 356.131 894.033 356.617 894.088 357.124C894.142 357.631 894.657 357.967 895.238 357.874Z" fill="white"/>
<path d="M993.237 341.874C993.818 341.782 994.244 341.296 994.189 340.789C994.134 340.282 993.62 339.946 993.039 340.039C992.459 340.131 992.033 340.617 992.087 341.124C992.142 341.631 992.657 341.967 993.237 341.874Z" fill="white"/>
<path d="M893.104 512.903C893.684 512.81 894.11 512.324 894.056 511.817C894.001 511.31 893.486 510.974 892.906 511.067C892.325 511.159 891.899 511.645 891.954 512.152C892.009 512.659 892.523 512.995 893.104 512.903Z" fill="white"/>
<path d="M961.238 477.482C961.818 477.389 962.244 476.903 962.189 476.396C962.135 475.889 961.62 475.553 961.04 475.646C960.459 475.738 960.033 476.224 960.088 476.731C960.142 477.238 960.657 477.574 961.238 477.482Z" fill="white"/>
<path d="M1096.18 342.098C1096.76 342.184 1097.31 341.849 1097.41 341.349C1097.51 340.849 1097.12 340.374 1096.54 340.287C1095.96 340.201 1095.41 340.536 1095.31 341.036C1095.2 341.536 1095.59 342.011 1096.18 342.098Z" fill="white"/>
<path d="M1031.18 281.098C1031.76 281.184 1032.31 280.849 1032.41 280.349C1032.51 279.849 1032.12 279.374 1031.54 279.287C1030.96 279.201 1030.41 279.536 1030.31 280.036C1030.2 280.536 1030.59 281.011 1031.18 281.098Z" fill="white"/>
<path d="M1160.18 301.098C1160.76 301.184 1161.31 300.849 1161.41 300.349C1161.51 299.849 1161.12 299.374 1160.54 299.287C1159.96 299.201 1159.41 299.536 1159.31 300.036C1159.2 300.536 1159.59 301.011 1160.18 301.098Z" fill="white"/>
<path d="M1069.18 401.098C1069.76 401.184 1070.31 400.849 1070.41 400.349C1070.51 399.849 1070.12 399.374 1069.54 399.287C1068.96 399.201 1068.41 399.536 1068.31 400.036C1068.2 400.536 1068.59 401.011 1069.18 401.098Z" fill="white"/>
<path d="M1134.18 383.098C1134.76 383.184 1135.31 382.849 1135.41 382.349C1135.51 381.849 1135.12 381.374 1134.54 381.287C1133.96 381.201 1133.41 381.536 1133.31 382.036C1133.2 382.536 1133.59 383.011 1134.18 383.098Z" fill="white"/>
<path d="M1281.66 304.098C1282.24 304.184 1282.8 303.849 1282.9 303.349C1283 302.849 1282.61 302.374 1282.03 302.287C1281.44 302.201 1280.89 302.536 1280.79 303.036C1280.69 303.536 1281.08 304.011 1281.66 304.098Z" fill="white"/>
<path d="M1254.66 363.098C1255.24 363.184 1255.8 362.849 1255.9 362.349C1256 361.849 1255.61 361.374 1255.03 361.287C1254.44 361.201 1253.89 361.536 1253.79 362.036C1253.69 362.536 1254.08 363.011 1254.66 363.098Z" fill="white"/>
<path d="M1319.66 345.098C1320.24 345.184 1320.8 344.849 1320.9 344.349C1321 343.849 1320.61 343.374 1320.03 343.287C1319.44 343.201 1318.89 343.536 1318.79 344.036C1318.69 344.536 1319.08 345.011 1319.66 345.098Z" fill="white"/>
<path d="M1219.24 541.874C1219.82 541.782 1220.24 541.296 1220.19 540.789C1220.13 540.282 1219.62 539.946 1219.04 540.039C1218.46 540.131 1218.03 540.617 1218.09 541.124C1218.14 541.631 1218.66 541.967 1219.24 541.874Z" fill="white"/>
<path d="M1216.24 453.902C1216.82 453.809 1217.24 453.323 1217.19 452.817C1217.13 452.31 1216.62 451.974 1216.04 452.066C1215.46 452.159 1215.03 452.645 1215.09 453.151C1215.14 453.658 1215.66 453.994 1216.24 453.902Z" fill="white"/>
<path d="M1342.72 452.482C1343.3 452.389 1343.73 451.903 1343.67 451.396C1343.62 450.889 1343.11 450.553 1342.52 450.646C1341.94 450.738 1341.52 451.224 1341.57 451.731C1341.63 452.238 1342.14 452.574 1342.72 452.482Z" fill="white"/>
<path d="M1290.72 401.874C1291.3 401.782 1291.73 401.296 1291.67 400.789C1291.62 400.282 1291.11 399.946 1290.52 400.039C1289.94 400.131 1289.52 400.617 1289.57 401.124C1289.63 401.631 1290.14 401.967 1290.72 401.874Z" fill="white"/>
<path d="M1388.72 385.874C1389.3 385.782 1389.73 385.296 1389.68 384.789C1389.62 384.282 1389.11 383.946 1388.53 384.039C1387.95 384.131 1387.52 384.617 1387.57 385.124C1387.63 385.631 1388.14 385.967 1388.72 385.874Z" fill="white"/>
<path d="M1288.59 556.903C1289.17 556.81 1289.6 556.324 1289.54 555.817C1289.49 555.31 1288.97 554.974 1288.39 555.067C1287.81 555.159 1287.38 555.645 1287.44 556.152C1287.49 556.659 1288.01 556.995 1288.59 556.903Z" fill="white"/>
<path d="M1356.72 521.482C1357.3 521.389 1357.73 520.903 1357.67 520.396C1357.62 519.889 1357.11 519.553 1356.53 519.646C1355.94 519.738 1355.52 520.224 1355.57 520.731C1355.63 521.238 1356.14 521.574 1356.72 521.482Z" fill="white"/>
<path d="M1491.66 386.098C1492.24 386.184 1492.8 385.849 1492.9 385.349C1493 384.849 1492.61 384.374 1492.03 384.287C1491.44 384.201 1490.89 384.536 1490.79 385.036C1490.69 385.536 1491.08 386.011 1491.66 386.098Z" fill="white"/>
<path d="M1555.66 345.098C1556.24 345.184 1556.8 344.849 1556.9 344.349C1557 343.849 1556.61 343.374 1556.03 343.287C1555.44 343.201 1554.89 343.536 1554.79 344.036C1554.69 344.536 1555.08 345.011 1555.66 345.098Z" fill="white"/>
<path d="M1464.66 445.098C1465.24 445.184 1465.8 444.849 1465.9 444.349C1466 443.849 1465.61 443.374 1465.03 443.287C1464.44 443.201 1463.89 443.536 1463.79 444.036C1463.69 444.536 1464.08 445.011 1464.66 445.098Z" fill="white"/>
<path d="M1529.66 427.098C1530.24 427.184 1530.8 426.849 1530.9 426.349C1531 425.849 1530.61 425.374 1530.03 425.287C1529.44 425.201 1528.89 425.536 1528.79 426.036C1528.69 426.536 1529.08 427.011 1529.66 427.098Z" fill="white"/>
<path d="M787.69 570.098C788.272 570.184 788.824 569.849 788.925 569.349C789.025 568.849 788.635 568.374 788.054 568.287C787.473 568.201 786.92 568.536 786.82 569.036C786.719 569.536 787.109 570.011 787.69 570.098Z" fill="white"/>
<path d="M849.662 523.098C850.243 523.184 850.796 522.849 850.896 522.349C850.997 521.849 850.607 521.374 850.026 521.287C849.444 521.201 848.892 521.536 848.791 522.036C848.691 522.536 849.081 523.011 849.662 523.098Z" fill="white"/>
<path d="M1093.18 514.098C1093.76 514.184 1094.31 513.849 1094.41 513.349C1094.51 512.849 1094.12 512.374 1093.54 512.287C1092.96 512.201 1092.41 512.536 1092.31 513.036C1092.2 513.536 1092.59 514.011 1093.18 514.098Z" fill="white"/>
<path d="M887.662 643.098C888.244 643.184 888.796 642.849 888.897 642.349C888.997 641.849 888.607 641.374 888.026 641.287C887.445 641.201 886.892 641.536 886.792 642.036C886.691 642.536 887.081 643.011 887.662 643.098Z" fill="white"/>
<path d="M952.662 625.098C953.244 625.184 953.796 624.849 953.897 624.349C953.997 623.849 953.607 623.374 953.026 623.287C952.445 623.201 951.892 623.536 951.792 624.036C951.691 624.536 952.081 625.011 952.662 625.098Z" fill="white"/>
<path d="M1084.75 852.874C1085.33 852.782 1085.76 852.296 1085.7 851.789C1085.65 851.282 1085.13 850.946 1084.55 851.039C1083.97 851.131 1083.55 851.617 1083.6 852.124C1083.66 852.631 1084.17 852.967 1084.75 852.874Z" fill="white"/>
<path d="M849.238 733.902C849.818 733.809 850.244 733.323 850.189 732.817C850.135 732.31 849.62 731.974 849.04 732.066C848.459 732.159 848.033 732.645 848.088 733.151C848.142 733.658 848.657 733.994 849.238 733.902Z" fill="white"/>
<path d="M975.723 732.482C976.304 732.389 976.73 731.903 976.675 731.396C976.621 730.889 976.106 730.553 975.525 730.646C974.945 730.738 974.519 731.224 974.574 731.731C974.628 732.238 975.143 732.574 975.723 732.482Z" fill="white"/>
<path d="M703.752 568.874C704.332 568.782 704.758 568.296 704.703 567.789C704.649 567.282 704.134 566.946 703.554 567.039C702.973 567.131 702.547 567.617 702.602 568.124C702.657 568.631 703.171 568.967 703.752 568.874Z" fill="white"/>
<path d="M1021.72 665.874C1022.3 665.782 1022.73 665.296 1022.67 664.789C1022.62 664.282 1022.11 663.946 1021.53 664.039C1020.94 664.131 1020.52 664.617 1020.57 665.124C1020.63 665.631 1021.14 665.967 1021.72 665.874Z" fill="white"/>
<path d="M921.59 836.903C922.17 836.81 922.596 836.324 922.541 835.817C922.487 835.31 921.972 834.974 921.392 835.067C920.811 835.159 920.385 835.645 920.44 836.152C920.494 836.659 921.009 836.995 921.59 836.903Z" fill="white"/>
<path d="M989.723 801.482C990.303 801.389 990.73 800.903 990.675 800.396C990.62 799.889 990.105 799.553 989.525 799.646C988.945 799.738 988.519 800.224 988.573 800.731C988.628 801.238 989.143 801.574 989.723 801.482Z" fill="white"/>
<path d="M1124.66 666.098C1125.24 666.184 1125.8 665.849 1125.9 665.349C1126 664.849 1125.61 664.374 1125.03 664.287C1124.44 664.201 1123.89 664.536 1123.79 665.036C1123.69 665.536 1124.08 666.011 1124.66 666.098Z" fill="white"/>
<path d="M1059.66 605.098C1060.24 605.184 1060.8 604.849 1060.9 604.349C1061 603.849 1060.61 603.374 1060.03 603.287C1059.44 603.201 1058.89 603.536 1058.79 604.036C1058.69 604.536 1059.08 605.011 1059.66 605.098Z" fill="white"/>
<path d="M1188.66 625.098C1189.24 625.184 1189.8 624.849 1189.9 624.349C1190 623.849 1189.61 623.374 1189.03 623.287C1188.44 623.201 1187.89 623.536 1187.79 624.036C1187.69 624.536 1188.08 625.011 1188.66 625.098Z" fill="white"/>
<path d="M1097.66 725.098C1098.24 725.184 1098.8 724.849 1098.9 724.349C1099 723.849 1098.61 723.374 1098.03 723.287C1097.44 723.201 1096.89 723.536 1096.79 724.036C1096.69 724.536 1097.08 725.011 1097.66 725.098Z" fill="white"/>
<path d="M1162.66 707.098C1163.24 707.184 1163.8 706.849 1163.9 706.349C1164 705.849 1163.61 705.374 1163.03 705.287C1162.44 705.201 1161.89 705.536 1161.79 706.036C1161.69 706.536 1162.08 707.011 1162.66 707.098Z" fill="white"/>
<path d="M1172.69 788.098C1173.27 788.184 1173.82 787.849 1173.92 787.349C1174.02 786.849 1173.64 786.374 1173.05 786.287C1172.47 786.201 1171.92 786.536 1171.82 787.036C1171.72 787.536 1172.11 788.011 1172.69 788.098Z" fill="white"/>
<path d="M1185.69 920.098C1186.27 920.184 1186.82 919.849 1186.92 919.349C1187.02 918.849 1186.64 918.374 1186.05 918.287C1185.47 918.201 1184.92 918.536 1184.82 919.036C1184.72 919.536 1185.11 920.011 1185.69 920.098Z" fill="white"/>
<path d="M1357.66 663.098C1358.24 663.184 1358.8 662.849 1358.9 662.349C1359 661.849 1358.61 661.374 1358.03 661.287C1357.44 661.201 1356.89 661.536 1356.79 662.036C1356.69 662.536 1357.08 663.011 1357.66 663.098Z" fill="white"/>
<path d="M1266.66 763.098C1267.24 763.184 1267.8 762.849 1267.9 762.349C1268 761.849 1267.61 761.374 1267.03 761.287C1266.44 761.201 1265.89 761.536 1265.79 762.036C1265.69 762.536 1266.08 763.011 1266.66 763.098Z" fill="white"/>
<path d="M1331.66 745.098C1332.24 745.184 1332.8 744.849 1332.9 744.349C1333 743.849 1332.61 743.374 1332.03 743.287C1331.44 743.201 1330.89 743.536 1330.79 744.036C1330.69 744.536 1331.08 745.011 1331.66 745.098Z" fill="white"/>
<path d="M1321.72 892.482C1322.3 892.389 1322.73 891.903 1322.67 891.396C1322.62 890.889 1322.11 890.553 1321.52 890.646C1320.94 890.738 1320.52 891.224 1320.57 891.731C1320.63 892.238 1321.14 892.574 1321.72 892.482Z" fill="white"/>
<path d="M1228.24 853.902C1228.82 853.809 1229.24 853.323 1229.19 852.817C1229.13 852.31 1228.62 851.974 1228.04 852.066C1227.46 852.159 1227.03 852.645 1227.09 853.151C1227.14 853.658 1227.66 853.994 1228.24 853.902Z" fill="white"/>
<path d="M1354.72 852.482C1355.3 852.389 1355.73 851.903 1355.67 851.396C1355.62 850.889 1355.11 850.553 1354.52 850.646C1353.94 850.738 1353.52 851.224 1353.57 851.731C1353.63 852.238 1354.14 852.574 1354.72 852.482Z" fill="white"/>
<path d="M1302.72 801.874C1303.3 801.782 1303.73 801.296 1303.67 800.789C1303.62 800.282 1303.11 799.946 1302.52 800.039C1301.94 800.131 1301.52 800.617 1301.57 801.124C1301.63 801.631 1302.14 801.967 1302.72 801.874Z" fill="white"/>
<path d="M1400.72 785.874C1401.3 785.782 1401.73 785.296 1401.67 784.789C1401.62 784.282 1401.11 783.946 1400.53 784.039C1399.94 784.131 1399.52 784.617 1399.57 785.124C1399.63 785.631 1400.14 785.967 1400.72 785.874Z" fill="white"/>
<path d="M1469.75 908.874C1470.33 908.782 1470.76 908.296 1470.7 907.789C1470.65 907.282 1470.13 906.946 1469.55 907.039C1468.97 907.131 1468.55 907.617 1468.6 908.124C1468.66 908.631 1469.17 908.967 1469.75 908.874Z" fill="white"/>
<path d="M1368.72 921.482C1369.3 921.389 1369.73 920.903 1369.68 920.396C1369.62 919.889 1369.11 919.553 1368.53 919.646C1367.95 919.738 1367.52 920.224 1367.57 920.731C1367.63 921.238 1368.14 921.574 1368.72 921.482Z" fill="white"/>
<path d="M1503.66 786.098C1504.24 786.184 1504.8 785.849 1504.9 785.349C1505 784.849 1504.61 784.374 1504.03 784.287C1503.44 784.201 1502.89 784.536 1502.79 785.036C1502.69 785.536 1503.08 786.011 1503.66 786.098Z" fill="white"/>
<path d="M1438.66 725.098C1439.24 725.184 1439.8 724.849 1439.9 724.349C1440 723.849 1439.61 723.374 1439.03 723.287C1438.44 723.201 1437.89 723.536 1437.79 724.036C1437.69 724.536 1438.08 725.011 1438.66 725.098Z" fill="white"/>
<path d="M1567.66 745.098C1568.24 745.184 1568.8 744.849 1568.9 744.349C1569 743.849 1568.61 743.374 1568.03 743.287C1567.44 743.201 1566.89 743.536 1566.79 744.036C1566.69 744.536 1567.08 745.011 1567.66 745.098Z" fill="white"/>
<path d="M1476.66 845.098C1477.24 845.184 1477.8 844.849 1477.9 844.349C1478 843.849 1477.61 843.374 1477.03 843.287C1476.44 843.201 1475.89 843.536 1475.79 844.036C1475.69 844.536 1476.08 845.011 1476.66 845.098Z" fill="white"/>
<path d="M1541.66 827.098C1542.24 827.184 1542.8 826.849 1542.9 826.349C1543 825.849 1542.61 825.374 1542.03 825.287C1541.44 825.201 1540.89 825.536 1540.79 826.036C1540.69 826.536 1541.08 827.011 1541.66 827.098Z" fill="white"/>
</g>
<g filter="url(#filter5_if_762_1728)">
<path d="M790.69 591.098C791.271 591.184 791.824 590.849 791.924 590.349C792.025 589.849 791.635 589.374 791.054 589.287C790.473 589.201 789.92 589.536 789.819 590.036C789.719 590.536 790.109 591.011 790.69 591.098Z" fill="white"/>
<path d="M644.204 506.098C644.786 506.184 645.338 505.849 645.439 505.349C645.539 504.849 645.149 504.374 644.568 504.287C643.987 504.201 643.434 504.536 643.334 505.036C643.233 505.536 643.623 506.011 644.204 506.098Z" fill="white"/>
<path d="M856.204 325.098C856.786 325.184 857.338 324.849 857.439 324.349C857.539 323.849 857.149 323.374 856.568 323.287C855.987 323.201 855.434 323.536 855.334 324.036C855.233 324.536 855.623 325.011 856.204 325.098Z" fill="white"/>
<path d="M1224.2 242.098C1224.79 242.184 1225.34 241.849 1225.44 241.349C1225.54 240.849 1225.15 240.374 1224.57 240.287C1223.99 240.201 1223.43 240.536 1223.33 241.036C1223.23 241.536 1223.62 242.011 1224.2 242.098Z" fill="white"/>
<path d="M1433.2 323.098C1433.79 323.184 1434.34 322.849 1434.44 322.349C1434.54 321.849 1434.15 321.374 1433.57 321.287C1432.99 321.201 1432.43 321.536 1432.33 322.036C1432.23 322.536 1432.62 323.011 1433.2 323.098Z" fill="white"/>
<path d="M1553.2 510.098C1553.79 510.184 1554.34 509.849 1554.44 509.349C1554.54 508.849 1554.15 508.374 1553.57 508.287C1552.99 508.201 1552.43 508.536 1552.33 509.036C1552.23 509.536 1552.62 510.011 1553.2 510.098Z" fill="white"/>
<path d="M1291.2 649.098C1291.79 649.184 1292.34 648.849 1292.44 648.349C1292.54 647.849 1292.15 647.374 1291.57 647.287C1290.99 647.201 1290.43 647.536 1290.33 648.036C1290.23 648.536 1290.62 649.011 1291.2 649.098Z" fill="white"/>
<path d="M1730.2 716.098C1730.79 716.184 1731.34 715.849 1731.44 715.349C1731.54 714.849 1731.15 714.374 1730.57 714.287C1729.99 714.201 1729.43 714.536 1729.33 715.036C1729.23 715.536 1729.62 716.011 1730.2 716.098Z" fill="white"/>
<path d="M1175.2 835.098C1175.79 835.184 1176.34 834.849 1176.44 834.349C1176.54 833.849 1176.15 833.374 1175.57 833.287C1174.99 833.201 1174.43 833.536 1174.33 834.036C1174.23 834.536 1174.62 835.011 1175.2 835.098Z" fill="white"/>
<path d="M824.204 206.098C824.786 206.184 825.338 205.849 825.439 205.349C825.539 204.849 825.149 204.374 824.568 204.287C823.987 204.201 823.434 204.536 823.334 205.036C823.233 205.536 823.623 206.011 824.204 206.098Z" fill="white"/>
<path d="M248.69 344.098C249.271 344.184 249.824 343.849 249.924 343.349C250.025 342.849 249.635 342.374 249.054 342.287C248.473 342.201 247.92 342.536 247.819 343.036C247.719 343.536 248.109 344.011 248.69 344.098Z" fill="white"/>
<path d="M1522.2 1161.1C1522.79 1161.18 1523.34 1160.85 1523.44 1160.35C1523.54 1159.85 1523.15 1159.37 1522.57 1159.29C1521.99 1159.2 1521.43 1159.54 1521.33 1160.04C1521.23 1160.54 1521.62 1161.01 1522.2 1161.1Z" fill="white"/>
<path d="M1677.2 1034.1C1677.79 1034.18 1678.34 1033.85 1678.44 1033.35C1678.54 1032.85 1678.15 1032.37 1677.57 1032.29C1676.99 1032.2 1676.43 1032.54 1676.33 1033.04C1676.23 1033.54 1676.62 1034.01 1677.2 1034.1Z" fill="white"/>
<path d="M1122.2 1170.1C1122.79 1170.18 1123.34 1169.85 1123.44 1169.35C1123.54 1168.85 1123.15 1168.37 1122.57 1168.29C1121.99 1168.2 1121.43 1168.54 1121.33 1169.04C1121.23 1169.54 1121.62 1170.01 1122.2 1170.1Z" fill="white"/>
<path d="M943.204 976.098C943.786 976.184 944.338 975.849 944.439 975.349C944.539 974.849 944.149 974.374 943.568 974.287C942.987 974.201 942.434 974.536 942.334 975.036C942.233 975.536 942.623 976.011 943.204 976.098Z" fill="white"/>
<path d="M634.204 1052.1C634.786 1052.18 635.338 1051.85 635.439 1051.35C635.539 1050.85 635.149 1050.37 634.568 1050.29C633.987 1050.2 633.434 1050.54 633.334 1051.04C633.233 1051.54 633.623 1052.01 634.204 1052.1Z" fill="white"/>
<path d="M314.204 1144.1C314.786 1144.18 315.338 1143.85 315.439 1143.35C315.539 1142.85 315.149 1142.37 314.568 1142.29C313.987 1142.2 313.434 1142.54 313.334 1143.04C313.233 1143.54 313.623 1144.01 314.204 1144.1Z" fill="white"/>
<path d="M363.204 628.098C363.786 628.184 364.338 627.849 364.439 627.349C364.539 626.849 364.149 626.374 363.568 626.287C362.987 626.201 362.434 626.536 362.334 627.036C362.233 627.536 362.623 628.011 363.204 628.098Z" fill="white"/>
<path d="M157.204 543.098C157.786 543.184 158.338 542.849 158.439 542.349C158.539 541.849 158.149 541.374 157.568 541.287C156.987 541.201 156.434 541.536 156.334 542.036C156.233 542.536 156.623 543.011 157.204 543.098Z" fill="white"/>
<path d="M371.204 218.098C371.786 218.184 372.338 217.849 372.439 217.349C372.539 216.849 372.149 216.374 371.568 216.287C370.987 216.201 370.434 216.536 370.334 217.036C370.233 217.536 370.623 218.011 371.204 218.098Z" fill="white"/>
</g>
<defs>
<filter id="filter0_ddf_762_1728" x="27.7588" y="844.193" width="94.1902" height="116.776" filterUnits="userSpaceOnUse" color-interpolation-filters="sRGB">
<feFlood flood-opacity="0" result="BackgroundImageFix"/>
<feColorMatrix in="SourceAlpha" type="matrix" values="0 0 0 0 0 0 0 0 0 0 0 0 0 0 0 0 0 0 127 0" result="hardAlpha"/>
<feOffset dx="-13" dy="9"/>
<feGaussianBlur stdDeviation="13.5"/>
<feComposite in2="hardAlpha" operator="out"/>
<feColorMatrix type="matrix" values="0 0 0 0 1 0 0 0 0 0.78 0 0 0 0 0 0 0 0 1 0"/>
<feBlend mode="normal" in2="BackgroundImageFix" result="effect1_dropShadow_762_1728"/>
<feColorMatrix in="SourceAlpha" type="matrix" values="0 0 0 0 0 0 0 0 0 0 0 0 0 0 0 0 0 0 127 0" result="hardAlpha"/>
<feOffset dx="-16" dy="26"/>
<feGaussianBlur stdDeviation="11.5"/>
<feComposite in2="hardAlpha" operator="out"/>
<feColorMatrix type="matrix" values="0 0 0 0 0.941667 0 0 0 0 0.351163 0 0 0 0 0.0980903 0 0 0 1 0"/>
<feBlend mode="normal" in2="effect1_dropShadow_762_1728" result="effect2_dropShadow_762_1728"/>
<feBlend mode="normal" in="SourceGraphic" in2="effect2_dropShadow_762_1728" result="shape"/>
<feGaussianBlur stdDeviation="10" result="effect3_foregroundBlur_762_1728"/>
</filter>
<filter id="filter1_ddf_762_1728" x="1310.28" y="607.24" width="88.8123" height="124.408" filterUnits="userSpaceOnUse" color-interpolation-filters="sRGB">
<feFlood flood-opacity="0" result="BackgroundImageFix"/>
<feColorMatrix in="SourceAlpha" type="matrix" values="0 0 0 0 0 0 0 0 0 0 0 0 0 0 0 0 0 0 127 0" result="hardAlpha"/>
<feOffset dx="19" dy="9"/>
<feGaussianBlur stdDeviation="13.5"/>
<feComposite in2="hardAlpha" operator="out"/>
<feColorMatrix type="matrix" values="0 0 0 0 1 0 0 0 0 0.78 0 0 0 0 0 0 0 0 1 0"/>
<feBlend mode="normal" in2="BackgroundImageFix" result="effect1_dropShadow_762_1728"/>
<feColorMatrix in="SourceAlpha" type="matrix" values="0 0 0 0 0 0 0 0 0 0 0 0 0 0 0 0 0 0 127 0" result="hardAlpha"/>
<feOffset dx="20" dy="26"/>
<feGaussianBlur stdDeviation="11.5"/>
<feComposite in2="hardAlpha" operator="out"/>
<feColorMatrix type="matrix" values="0 0 0 0 0.941667 0 0 0 0 0.351163 0 0 0 0 0.0980903 0 0 0 1 0"/>
<feBlend mode="normal" in2="effect1_dropShadow_762_1728" result="effect2_dropShadow_762_1728"/>
<feBlend mode="normal" in="SourceGraphic" in2="effect2_dropShadow_762_1728" result="shape"/>
<feGaussianBlur stdDeviation="10" result="effect3_foregroundBlur_762_1728"/>
</filter>
<filter id="filter2_ddf_762_1728" x="1750.43" y="132.672" width="100.178" height="133.787" filterUnits="userSpaceOnUse" color-interpolation-filters="sRGB">
<feFlood flood-opacity="0" result="BackgroundImageFix"/>
<feColorMatrix in="SourceAlpha" type="matrix" values="0 0 0 0 0 0 0 0 0 0 0 0 0 0 0 0 0 0 127 0" result="hardAlpha"/>
<feOffset dx="19" dy="-35"/>
<feGaussianBlur stdDeviation="13.5"/>
<feComposite in2="hardAlpha" operator="out"/>
<feColorMatrix type="matrix" values="0 0 0 0 1 0 0 0 0 0.78 0 0 0 0 0 0 0 0 1 0"/>
<feBlend mode="normal" in2="BackgroundImageFix" result="effect1_dropShadow_762_1728"/>
<feColorMatrix in="SourceAlpha" type="matrix" values="0 0 0 0 0 0 0 0 0 0 0 0 0 0 0 0 0 0 127 0" result="hardAlpha"/>
<feOffset dx="20" dy="-43"/>
<feGaussianBlur stdDeviation="11.5"/>
<feComposite in2="hardAlpha" operator="out"/>
<feColorMatrix type="matrix" values="0 0 0 0 0.941667 0 0 0 0 0.351163 0 0 0 0 0.0980903 0 0 0 1 0"/>
<feBlend mode="normal" in2="effect1_dropShadow_762_1728" result="effect2_dropShadow_762_1728"/>
<feBlend mode="normal" in="SourceGraphic" in2="effect2_dropShadow_762_1728" result="shape"/>
<feGaussianBlur stdDeviation="10" result="effect3_foregroundBlur_762_1728"/>
</filter>
<filter id="filter3_f_762_1728" x="29.6184" y="245.701" width="1760.55" height="729.86" filterUnits="userSpaceOnUse" color-interpolation-filters="sRGB">
<feFlood flood-opacity="0" result="BackgroundImageFix"/>
<feBlend mode="normal" in="SourceGraphic" in2="BackgroundImageFix" result="shape"/>
<feGaussianBlur stdDeviation="0.5" result="effect1_foregroundBlur_762_1728"/>
</filter>
<filter id="filter4_if_762_1728" x="-50.8889" y="0.273743" width="2021.8" height="1273.65" filterUnits="userSpaceOnUse" color-interpolation-filters="sRGB">
<feFlood flood-opacity="0" result="BackgroundImageFix"/>
<feBlend mode="normal" in="SourceGraphic" in2="BackgroundImageFix" result="shape"/>
<feColorMatrix in="SourceAlpha" type="matrix" values="0 0 0 0 0 0 0 0 0 0 0 0 0 0 0 0 0 0 127 0" result="hardAlpha"/>
<feOffset dy="-5"/>
<feComposite in2="hardAlpha" operator="arithmetic" k2="-1" k3="1"/>
<feColorMatrix type="matrix" values="0 0 0 0 1 0 0 0 0 0.991333 0 0 0 0 0.783333 0 0 0 1 0"/>
<feBlend mode="normal" in2="shape" result="effect1_innerShadow_762_1728"/>
<feGaussianBlur stdDeviation="1.5" result="effect2_foregroundBlur_762_1728"/>
</filter>
<filter id="filter5_if_762_1728" x="154.318" y="202.274" width="1579.14" height="969.838" filterUnits="userSpaceOnUse" color-interpolation-filters="sRGB">
<feFlood flood-opacity="0" result="BackgroundImageFix"/>
<feBlend mode="normal" in="SourceGraphic" in2="BackgroundImageFix" result="shape"/>
<feColorMatrix in="SourceAlpha" type="matrix" values="0 0 0 0 0 0 0 0 0 0 0 0 0 0 0 0 0 0 127 0" result="hardAlpha"/>
<feOffset dy="-5"/>
<feComposite in2="hardAlpha" operator="arithmetic" k2="-1" k3="1"/>
<feColorMatrix type="matrix" values="0 0 0 0 1 0 0 0 0 0.991333 0 0 0 0 0.783333 0 0 0 1 0"/>
<feBlend mode="normal" in2="shape" result="effect1_innerShadow_762_1728"/>
<feGaussianBlur stdDeviation="1" result="effect2_foregroundBlur_762_1728"/>
</filter>
<linearGradient id="paint0_linear_762_1728" x1="48.3678" y1="572.582" x2="-4.58255" y2="595.718" gradientUnits="userSpaceOnUse">
<stop/>
<stop offset="0.60429" stop-color="white" stop-opacity="0.89"/>
</linearGradient>
<linearGradient id="paint1_linear_762_1728" x1="708.645" y1="962.439" x2="671.449" y2="968.98" gradientUnits="userSpaceOnUse">
<stop/>
<stop offset="0.60429" stop-color="white" stop-opacity="0.89"/>
</linearGradient>
<linearGradient id="paint2_linear_762_1728" x1="1782.85" y1="909.065" x2="1742.76" y2="881.283" gradientUnits="userSpaceOnUse">
<stop/>
<stop offset="0.60429" stop-color="white" stop-opacity="0.89"/>
</linearGradient>
<linearGradient id="paint3_linear_762_1728" x1="961.339" y1="248.543" x2="921.924" y2="234.366" gradientUnits="userSpaceOnUse">
<stop/>
<stop offset="0.60429" stop-color="white" stop-opacity="0.89"/>
</linearGradient>
</defs>
</svg>
