<svg width="72" height="80" viewBox="0 0 72 80" fill="none" xmlns="http://www.w3.org/2000/svg">
<path d="M65.3219 71.41L71.6985 0H0.768555L0.851888 0.926667L7.13522 71.42L7.18855 72.0067L35.9652 80H36.4186L65.2619 72L65.3152 71.4133L65.3219 71.41ZM36.2952 15.5967H56.9052L56.2852 22.7967L35.9519 31.8367L36.2919 33.4633H55.3719L53.1752 58.6333L36.2219 63.3333L19.2752 58.64L18.2086 46.5867H25.1852L25.7452 52.6967L25.7986 53.29L36.0819 56.0233H36.5252L46.6952 53.1967L46.7452 52.6067L47.7052 41.32L47.7819 40.4H17.6252L16.9919 33.1567L38.0219 24.1533L37.6886 22.52H16.0886L15.4719 15.5867H36.2719L36.2952 15.5967Z" />
</svg>
