<svg width="52" height="40" viewBox="0 0 52 40" fill="none" xmlns="http://www.w3.org/2000/svg">
<path d="M49.4 0.0171177C49.1785 -0.00570591 48.9552 -0.00570591 48.7337 0.0171177H3.23375C2.94213 0.0216111 2.65245 0.0653369 2.3725 0.147118L25.8537 23.5309L49.4 0.0171177Z" />
<path d="M51.805 2.27588L28.145 25.8384C27.5361 26.4437 26.7124 26.7835 25.8538 26.7835C24.9951 26.7835 24.1714 26.4437 23.5625 25.8384L0.11375 2.45463C0.0416641 2.71957 0.00344286 2.99258 0 3.26713V35.7671C0 36.6291 0.34241 37.4557 0.951903 38.0652C1.5614 38.6747 2.38805 39.0171 3.25 39.0171H48.75C49.612 39.0171 50.4386 38.6747 51.0481 38.0652C51.6576 37.4557 52 36.6291 52 35.7671V3.26713C51.9871 2.92857 51.9213 2.59411 51.805 2.27588ZM5.47625 35.7671H3.2175V33.4434L15.0312 21.7271L17.3225 24.0184L5.47625 35.7671ZM48.7175 35.7671H46.4425L34.5962 24.0184L36.8875 21.7271L48.7012 33.4434L48.7175 35.7671Z" />
</svg>
