<svg width="81" height="48" viewBox="0 0 81 48" fill="none" xmlns="http://www.w3.org/2000/svg">
<path d="M80.8819 45.9619C79.7175 46.4022 78.4323 46.4013 77.2686 45.9591C76.105 45.517 75.1433 44.6643 74.5652 43.5619L63.0652 27.6585L61.3985 25.4352L48.0552 43.5819C47.5118 44.638 46.6024 45.4602 45.4969 45.8945C44.3914 46.3288 43.1656 46.3457 42.0485 45.9419L59.2419 22.8752L43.2485 2.03853C44.3985 1.62412 45.6562 1.61862 46.8097 2.02298C47.9633 2.42733 48.9423 3.21683 49.5819 4.25853L61.5019 20.3585L73.4885 4.3252C74.0361 3.28782 74.9458 2.48783 76.0447 2.0773C77.1435 1.66676 78.3549 1.67432 79.4485 2.09853L73.2419 10.3352L64.8352 21.2785C64.6017 21.4868 64.4149 21.742 64.287 22.0275C64.1591 22.313 64.093 22.6224 64.093 22.9352C64.093 23.248 64.1591 23.5574 64.287 23.8429C64.4149 24.1284 64.6017 24.3836 64.8352 24.5919L80.8485 45.9652L80.8819 45.9619ZM0.888543 22.5885L2.28854 15.6719C6.13521 1.9952 21.8152 -3.6948 32.6019 4.77187C38.9185 9.7352 40.4952 16.7619 40.1852 24.6819H4.60188C4.02521 38.8252 14.2319 47.3652 27.2819 43.0019C29.3974 42.2404 31.291 40.966 32.7931 39.2929C34.2951 37.6198 35.3587 35.6003 35.8885 33.4152C36.5785 31.1952 37.7152 30.8152 39.8019 31.4552C39.4542 34.1631 38.4969 36.757 37.0021 39.0416C35.5073 41.3262 33.5139 43.2421 31.1719 44.6452C27.3033 46.7613 22.8646 47.6 18.4906 47.0414C14.1166 46.4829 10.0312 44.5556 6.81854 41.5352C3.64197 37.9598 1.72213 33.4435 1.35188 28.6752C1.35188 27.8919 1.08521 27.1585 0.905209 26.4552C0.888983 25.1675 0.881205 23.8797 0.881876 22.5919L0.888543 22.5885ZM4.64521 21.6352H36.8252C36.6252 11.3819 30.1552 4.10853 21.5252 4.04187C11.9185 3.90853 5.04521 11.0219 4.62188 21.5885L4.64521 21.6352Z"/>
</svg>
