<svg width="52" height="51" viewBox="0 0 52 51" fill="none" xmlns="http://www.w3.org/2000/svg">
<path fill-rule="evenodd" clip-rule="evenodd" d="M26 0.0170898C11.635 0.0170898 0 11.4876 0 25.6494C0 36.9917 7.4425 46.5718 17.7775 49.9681C19.0775 50.1924 19.565 49.4234 19.565 48.7506C19.565 48.1418 19.5325 46.1233 19.5325 43.9766C13 45.1621 11.31 42.4066 10.79 40.9648C10.4975 40.2278 9.23 37.953 8.125 37.3442C7.215 36.8636 5.915 35.6781 8.0925 35.646C10.14 35.614 11.6025 37.5044 12.09 38.2734C14.43 42.1503 18.1675 41.0609 19.6625 40.388C19.89 38.7219 20.5725 37.6005 21.32 36.9597C15.535 36.3189 9.49 34.1081 9.49 24.3037C9.49 21.5162 10.4975 19.2093 12.155 17.415C11.895 16.7742 10.985 14.1469 12.415 10.6225C12.415 10.6225 14.5925 9.94962 19.565 13.2498C21.645 12.6731 23.855 12.3847 26.065 12.3847C28.275 12.3847 30.485 12.6731 32.565 13.2498C37.5375 9.91758 39.715 10.6225 39.715 10.6225C41.145 14.1469 40.235 16.7742 39.975 17.415C41.6325 19.2093 42.64 21.4842 42.64 24.3037C42.64 34.1401 36.5625 36.3189 30.7775 36.9597C31.72 37.7607 32.5325 39.2987 32.5325 41.7017C32.5325 45.13 32.5 47.8855 32.5 48.7506C32.5 49.4234 32.9875 50.2244 34.2875 49.9681C39.4489 48.2502 43.9339 44.9798 47.1113 40.6174C50.2887 36.2549 51.9984 31.02 52 25.6494C52 11.4876 40.365 0.0170898 26 0.0170898Z" />
</svg>
