<svg width="72" height="80" viewBox="0 0 72 80" xmlns="http://www.w3.org/2000/svg">
<path d="M0.698547 0L7.11855 72L35.9285 80L64.8135 71.99L71.2435 0H0.703548H0.698547ZM59.3085 67.41L36.0885 73.845V73.88L36.0285 73.86L35.9685 73.88V73.845L12.7485 67.41L7.25855 5.89H64.7985L59.3085 67.41V67.41ZM46.8085 41.42L45.7885 52.87L35.9285 55.53L26.0935 52.88L25.4635 45.83H16.5985L17.8335 59.7L35.9635 64.715L54.0385 59.7L56.4635 32.59H24.2785L23.4735 23.545H57.2635L58.0535 14.715H13.8185L16.2035 41.42H46.8085Z"/>
</svg>
