<svg width="81" height="80" viewBox="0 0 81 80" fill="none" xmlns="http://www.w3.org/2000/svg">
<path d="M0.24353 0V80H80.2435V0H0.24353ZM5.26855 4.5H75.2686V40V75.1893H5.26855V40V4.5ZM55.6763 36.3636C50.4944 36.3636 47.1454 39.68 47.1454 44.0727C47.1454 48.8364 49.9454 51.1164 54.1563 52.9091L55.6108 53.5382C58.2763 54.7127 59.8617 55.3964 59.8617 57.4C59.8617 59.0909 58.309 60.3055 55.8908 60.3055C53.0253 60.3055 51.3963 58.7855 50.1526 56.7455L45.389 59.4727C47.0763 62.8582 50.5999 65.4545 56.0254 65.4545C61.5526 65.4545 65.6981 62.5891 65.6981 57.3382C65.6981 52.4291 62.8981 50.2509 57.9199 48.1455L56.4726 47.52C53.9526 46.4145 52.8799 45.6909 52.8799 43.9636C52.8799 42.5455 53.949 41.44 55.6799 41.44C57.3708 41.44 58.4363 42.1673 59.4399 43.9636L64.0072 41.0291C62.0726 37.6473 59.4072 36.3636 55.6799 36.3636H55.6763ZM34.4035 36.7127V56.5782C34.4035 59.48 33.1599 60.2327 31.2581 60.2327C29.2581 60.2327 28.3926 58.8546 27.4944 57.2291L22.7308 60.1018C24.1126 63.0364 26.8363 65.4545 31.5017 65.4545C36.6799 65.4545 40.2435 62.6909 40.2435 56.64V36.7127H34.4072H34.4035Z"/>
</svg>
