<svg width="52" height="51" viewBox="0 0 52 51" fill="none" xmlns="http://www.w3.org/2000/svg">
<path fill-rule="evenodd" clip-rule="evenodd" d="M6.4305e-07 4.27095C6.4305e-07 3.14276 0.457709 2.06077 1.27244 1.26302C2.08716 0.465268 3.19217 0.0170955 4.34436 0.0170955H47.6509C48.2219 0.0161824 48.7875 0.125555 49.3152 0.338951C49.843 0.552346 50.3226 0.865575 50.7266 1.2607C51.1306 1.65583 51.451 2.1251 51.6695 2.64164C51.888 3.15818 52.0003 3.71185 52 4.27095V46.6753C52.0006 47.2345 51.8886 47.7883 51.6704 48.3051C51.4522 48.8219 51.1321 49.2915 50.7284 49.687C50.3247 50.0825 49.8453 50.3962 49.3176 50.6102C48.7899 50.8241 48.2244 50.9341 47.6533 50.9338H4.34436C3.77366 50.9338 3.20854 50.8237 2.6813 50.6097C2.15407 50.3958 1.67504 50.0823 1.2716 49.687C0.868157 49.2918 0.548203 48.8225 0.330017 48.3062C0.111831 47.7898 -0.000309862 47.2364 6.4305e-07 46.6776V4.27095ZM20.5825 19.4302H27.6238V22.8926C28.6402 20.9022 31.2402 19.1108 35.1473 19.1108C42.6376 19.1108 44.4127 23.0754 44.4127 30.3495V43.8239H36.8325V32.0066C36.8325 27.8639 35.8162 25.5263 33.2351 25.5263C29.6542 25.5263 28.1651 28.0467 28.1651 32.0066V43.8239H20.5825V19.4302ZM7.58255 43.5069H15.1651V19.1108H7.58255V43.5046V43.5069ZM16.25 11.154C16.2643 11.7897 16.1488 12.4218 15.9102 13.0131C15.6716 13.6045 15.3148 14.1433 14.8607 14.5979C14.4066 15.0524 13.8644 15.4135 13.2658 15.6601C12.6672 15.9067 12.0244 16.0337 11.375 16.0337C10.7256 16.0337 10.0828 15.9067 9.4842 15.6601C8.88562 15.4135 8.34337 15.0524 7.88927 14.5979C7.43517 14.1433 7.07837 13.6045 6.8398 13.0131C6.60123 12.4218 6.4857 11.7897 6.5 11.154C6.52806 9.90616 7.054 8.71873 7.96518 7.84596C8.87637 6.97319 10.1003 6.48448 11.375 6.48448C12.6497 6.48448 13.8736 6.97319 14.7848 7.84596C15.696 8.71873 16.2219 9.90616 16.25 11.154Z" />
</svg>
