<svg width="32" height="81" viewBox="0 0 32 81" fill="none" xmlns="http://www.w3.org/2000/svg">
<g clip-path="url(#clip0_21_2)">
<path fill-rule="evenodd" clip-rule="evenodd" d="M0.00813371 2.43104L0.0162674 4.36208L1.02478 4.97229C2.32789 5.76083 3.85872 7.70417 4.4557 9.32812C5.24771 11.4819 5.36206 12.7525 5.36515 19.4308L5.36792 25.541L6.4659 24.2642C7.12518 23.4975 8.10751 22.64 8.92408 22.1185C10.1852 21.3133 10.3988 21.2442 11.852 21.1706C14.509 21.0365 16.391 21.9246 18.4204 24.2702C19.5425 25.5675 20.767 27.6194 21.1564 28.855C21.3404 29.4387 21.3977 33.0021 21.4674 48.2162C21.5515 66.5379 21.5589 66.8806 21.8938 67.9233C22.401 69.5031 23.1751 70.8279 24.1311 71.7523C25.5597 73.1339 25.8353 73.2162 29.0304 73.2162H31.8822V71.5496V69.8829L29.5642 69.8808C27.4795 69.879 27.1643 69.83 26.4318 69.3931C25.5619 68.8744 24.62 67.6733 24.4844 66.9104C24.4388 66.6546 24.3777 58.1954 24.3482 48.1121C24.2947 29.7915 24.2739 29.0765 23.7452 27.4871C23.6691 27.2579 23.5658 26.8802 23.5155 26.6475C23.4219 26.2125 22.6272 24.5446 21.8315 23.1121C21.5454 22.5973 19.6406 20.8965 18.3811 20.0315C16.2601 18.5746 14.9277 18.1306 12.6878 18.1344C11.2826 18.1369 10.4866 18.251 9.48869 18.5935C8.75817 18.8444 8.11759 19.0496 8.06538 19.0496C8.01333 19.0496 7.97022 17.901 7.96989 16.4975C7.96794 8.90937 6.04737 3.89812 2.25648 1.59042C1.50741 1.13438 0.693275 0.702497 0.447327 0.630622L0 0.5L0.00813371 2.43104ZM0 28.9454V49.8829H1.38525H2.77033L2.72723 31.0808L2.68396 12.2787L2.26331 11.1329C1.87975 10.0885 0.463432 8.00792 0.135826 8.00792C0.0611629 8.00792 0 17.4298 0 28.9454ZM10.9608 24.4556C8.63861 25.1656 6.32878 28.3706 5.61696 31.8708C5.4133 32.8725 5.36792 34.6242 5.36792 41.4892V49.8829H6.75056H8.13321V41.1408C8.13321 32.9181 8.1524 32.3325 8.45756 31.2885C9.05617 29.2394 10.4661 27.9558 12.1185 27.9558C13.6021 27.9558 14.8309 28.8496 15.5744 30.4694L16.0224 31.4454L16.1117 49.5704C16.2119 69.8752 16.1322 68.536 17.4431 71.9662C18.0073 73.4425 18.392 74.085 19.7551 75.8283C21.5289 78.0967 22.723 79.0548 24.7827 79.8623C25.7429 80.2387 26.3137 80.2996 28.89 80.2996H31.8822V78.6329V76.9662H29.6348C26.8256 76.9662 25.8011 76.7325 24.1418 75.7127C21.9958 74.3935 20.4017 72.1987 19.4898 69.3071L19.113 68.1121L19.0317 49.4662L18.9504 30.8204L18.5097 29.616C17.9746 28.1533 16.5469 26.1862 15.4814 25.4435C14.0433 24.441 12.2733 24.0544 10.9608 24.4556Z" />
</g>
<defs>
<clipPath id="clip0_21_2">
<rect width="31.8822" height="80"  transform="translate(0 0.5)"/>
</clipPath>
</defs>
</svg>
