<svg width="72" height="80" viewBox="0 0 72 80" fill="none" xmlns="http://www.w3.org/2000/svg">
<path d="M35.7315 80C34.6297 80 33.6001 79.7035 32.6386 79.1907L22.8672 73.3896C21.4049 72.5763 22.1381 72.2798 22.5787 72.1316C24.5659 71.4705 24.9345 71.3263 26.9897 70.1565C27.2141 70.0082 27.5065 70.0763 27.7309 70.2246L35.2227 74.7117C35.5191 74.8559 35.8877 74.8559 36.1081 74.7117L65.4303 57.7369C65.7268 57.5927 65.871 57.2962 65.871 56.9276V23.0422C65.871 22.6776 65.7268 22.3812 65.4303 22.2369L36.1081 5.33428C35.8156 5.18605 35.447 5.18605 35.2227 5.33428L5.89244 22.2329C5.59998 22.3772 5.45174 22.7497 5.45174 23.0382V56.9196C5.45174 57.2121 5.59998 57.5847 5.89244 57.7289L13.9051 62.3642C18.2399 64.5597 20.9642 61.9836 20.9642 59.4195V25.9828C20.9642 25.5421 21.3288 25.0974 21.8456 25.0974H25.5955C26.0282 25.0974 26.4769 25.466 26.4769 25.9828V59.4236C26.4769 65.2287 23.3199 68.614 17.8072 68.614C16.1166 68.614 14.7945 68.614 11.0446 66.7711L3.3324 62.3682C2.39275 61.8219 1.61293 61.0386 1.07088 60.0966C0.528835 59.1545 0.243546 58.0866 0.24353 56.9997V23.1143C0.24353 20.9108 1.41738 18.8516 3.3324 17.7499L32.6426 0.775093C33.5941 0.266232 34.6565 0 35.7355 0C36.8145 0 37.8769 0.266232 38.8284 0.775093L68.1426 17.7499C70.0616 18.8476 71.2315 20.9108 71.2315 23.1143V56.9997C71.2315 59.1992 70.0576 61.2584 68.1426 62.3682L38.8284 79.3389C37.8628 79.7796 36.7611 80 35.7315 80V80ZM44.7697 56.6993C31.9095 56.6993 29.2653 50.818 29.2653 45.8261C29.2653 45.3854 29.6339 44.9407 30.1467 44.9407H33.9687C34.4094 44.9407 34.774 45.2332 34.774 45.6779C35.3629 49.568 37.0496 51.483 44.8459 51.483C51.0156 51.483 53.6678 50.0808 53.6678 46.7756C53.6678 44.8646 52.9266 43.4704 43.3034 42.5169C35.2948 41.7156 30.2989 39.9408 30.2989 33.5508C30.2989 27.6014 35.2948 24.0718 43.676 24.0718C53.0788 24.0718 57.7101 27.3129 58.2951 34.36C58.288 34.5979 58.2099 34.8281 58.0707 35.0211C57.9225 35.1653 57.7061 35.3135 57.4858 35.3135H53.6678C53.479 35.3095 53.297 35.2428 53.1505 35.1238C53.0039 35.0048 52.9012 34.8404 52.8585 34.6565C51.9731 30.6021 49.6975 29.288 43.676 29.288C36.9093 29.288 36.1001 31.6398 36.1001 33.4025C36.1001 35.5299 37.0496 36.1909 46.1719 37.3688C55.2102 38.5426 59.4729 40.2333 59.4729 46.5593C59.3928 53.0295 54.1085 56.6993 44.7697 56.6993V56.6993Z"/>
</svg>
