<svg width="81" height="80" viewBox="0 0 81 80" fill="none" xmlns="http://www.w3.org/2000/svg">
<path d="M57.5906 0C54.3895 0.023491 51.206 0.476009 48.1251 1.34546L47.9069 1.41092C45.9662 1.07857 44.0029 0.895 42.0342 0.861823C37.9869 0.792732 34.5068 1.74547 31.7068 3.33457C28.9432 2.40365 23.2122 0.800005 17.1722 1.12001C12.9649 1.34183 8.37577 2.58183 4.97575 6.06549C1.583 9.54915 -0.209737 14.9383 0.168447 22.2729C0.270266 24.2983 0.862997 27.5965 1.85209 31.8729C2.83392 36.1457 4.22302 41.1457 5.9503 45.7094C7.67759 50.2767 9.57214 54.3785 12.5322 57.164C14.0085 58.5604 16.0413 59.7349 18.4377 59.6367C20.1213 59.5713 21.6449 58.8549 22.9577 57.7967C23.5977 58.6149 24.2813 58.9713 24.9031 59.3022C25.685 59.7167 26.4486 60.0004 27.2377 60.1895C29.423 60.7488 31.6988 60.8614 33.9287 60.5204C34.8996 60.364 35.9214 60.0586 36.9396 59.6222C36.976 60.7204 37.0196 61.7967 37.0669 62.8877C37.205 66.3422 37.296 69.5313 38.365 72.3277C38.536 72.7859 39.0051 75.1386 40.8632 77.215C42.7178 79.295 46.3542 80.5896 50.4924 79.7314C53.4124 79.1241 57.1288 78.0296 59.5943 74.6259C62.0307 71.2586 63.1325 66.4259 63.3507 58.5931C63.4052 58.1713 63.4707 57.8113 63.5397 57.4731L64.1216 57.524H64.187C67.3034 57.6622 70.6852 57.2331 73.5107 55.9603C76.0126 54.8331 77.9035 53.6985 79.2817 51.6803C79.6271 51.1821 80.0053 50.5785 80.1071 49.5348C80.2089 48.4985 79.598 46.8694 78.5762 46.1203C76.5289 44.6148 75.2453 45.1857 73.8671 45.4657C72.5107 45.7566 71.1289 45.9166 69.7362 45.9494C73.7107 39.4621 76.558 32.5675 78.1835 26.4656C79.1435 22.8656 79.6853 19.5456 79.7289 16.6437C79.7726 13.7419 79.5289 11.171 77.7362 8.94551C72.1325 2.00001 64.2525 0.0800003 58.1579 0.0145454C57.9688 0.010909 57.7797 0.00727285 57.5906 0.0109092V0ZM57.4306 2.13456C63.1943 2.08001 70.5616 3.65093 75.8489 10.2073C77.038 11.6801 77.3907 13.8328 77.3507 16.4874C77.3071 19.1383 76.8017 22.3092 75.878 25.7856C74.0853 32.5202 70.6962 40.3675 65.9216 47.4148C66.0915 47.5316 66.2746 47.628 66.467 47.7021C67.4634 48.1021 69.7325 48.4439 74.2671 47.5421C75.4053 47.3057 76.2416 47.1494 77.1071 47.7894C77.3146 47.9609 77.4795 48.1783 77.5887 48.4244C77.6978 48.6705 77.7483 48.9386 77.7362 49.2076C77.689 49.6139 77.5346 50.0005 77.2889 50.3276C76.4162 51.604 74.6853 52.8149 72.4671 53.8112C70.5071 54.6985 67.6925 55.1603 65.1979 55.1894C63.947 55.2003 62.7943 55.1058 61.8161 54.8112L61.7506 54.7894C61.3725 58.3204 60.5034 65.2986 59.9397 68.4804C59.4852 71.0477 58.6924 73.0877 57.1761 74.615C55.6633 76.1423 53.5251 77.0623 50.6451 77.6623C47.0778 78.4041 44.4778 77.6041 42.8014 76.2332C41.1287 74.8696 40.3614 73.055 39.8996 71.9423C39.5832 71.1786 39.4196 70.1859 39.2596 68.8586C39.0839 67.2695 38.9662 65.6745 38.9069 64.0768C38.802 61.2744 38.7681 58.4699 38.805 55.6658C37.3141 56.9894 35.4596 57.8694 33.4705 58.2004C31.1068 58.5894 28.9904 58.2076 27.7286 57.9022C27.1099 57.75 26.5117 57.5242 25.9468 57.2294C25.3577 56.9276 24.8013 56.5858 24.4304 55.9094C24.2119 55.5234 24.142 55.0707 24.2341 54.6367C24.3529 54.1957 24.6168 53.8076 24.9831 53.5349C25.6668 52.9967 26.565 52.6985 27.9213 52.4221C30.3941 51.9312 31.2559 51.593 31.7796 51.1894C32.2268 50.8439 32.7323 50.1458 33.6268 49.1167C33.6225 49.0719 33.6189 49.027 33.6159 48.9821C32.0207 48.9388 30.4569 48.5295 29.045 47.7857C28.5323 48.313 25.8995 51.0149 22.6886 54.7603C21.3395 56.3276 19.8486 57.2258 18.274 57.2913C16.6995 57.3567 15.2776 56.5858 14.0704 55.4513C11.6522 53.1749 9.72487 49.2585 8.04486 44.833C6.37212 40.4039 5.00484 35.4729 4.03756 31.2729C3.06301 27.0729 2.48846 23.6874 2.40846 22.0547C2.04482 15.1128 3.71756 10.4364 6.5903 7.48732C9.46305 4.53821 13.3976 3.42184 17.2376 3.20729C24.125 2.82184 30.6668 5.15276 31.9905 5.65458C34.5396 3.97457 37.8232 2.92729 41.9287 2.99275C43.8746 3.01935 45.8115 3.26329 47.7033 3.72002L47.7724 3.69093C48.6051 3.40729 49.4524 3.16729 50.3106 2.9782C52.6467 2.44985 55.032 2.16951 57.427 2.14183V2.13456H57.4306ZM57.9506 4.3673H57.4524C55.485 4.39385 53.5246 4.60815 51.5979 5.0073C55.4225 6.6728 58.7828 9.2467 61.387 12.5055C62.964 14.4555 64.2727 16.608 65.2779 18.9056C65.6561 19.7856 65.9107 20.531 66.0525 21.1056C66.1252 21.3965 66.1761 21.6401 66.1907 21.8947C66.2047 22.0558 66.1911 22.2181 66.1507 22.3747L66.1289 22.4183C66.2343 25.3383 65.4889 27.3165 65.3979 30.102C65.3288 32.1238 65.8598 34.4984 65.9907 37.0839C66.1143 39.5202 65.8125 42.193 64.1834 44.8185C64.3216 44.9785 64.4452 45.1385 64.5761 45.2985C68.8852 38.7166 71.9943 31.4293 73.6489 25.222C74.5325 21.8765 75.0053 18.8474 75.0453 16.4474C75.0816 14.0474 74.6198 12.3055 74.0307 11.5819C69.4198 5.86185 63.1834 4.40366 57.9506 4.36366V4.3673ZM41.496 5.22185C37.4341 5.22912 34.5177 6.42186 32.3105 8.20369C30.0304 10.0473 28.5032 12.5673 27.4995 15.1528C26.528 17.7366 25.934 20.4469 25.7359 23.2001L25.7831 23.1747C27.0086 22.5056 28.6195 21.8401 30.3432 21.4547C32.0705 21.0692 33.9287 20.9492 35.6123 21.582C37.296 22.2183 38.6887 23.7056 39.1941 25.9674C41.6123 36.8257 38.4414 40.8621 37.2705 43.9057C36.8274 45.0093 36.4474 46.1372 36.1323 47.2839C36.2814 47.2476 36.4305 47.2112 36.5759 47.1967C37.2147 47.1621 37.8521 47.2871 38.4305 47.5603C39.6087 48.033 40.416 49.0221 40.8523 50.1567C40.9651 50.4549 41.0487 50.7749 41.096 51.1021C41.1469 51.2403 41.1687 51.3821 41.1651 51.5276C41.0346 55.6796 41.0491 59.8349 41.2087 63.9858C41.2887 65.7822 41.4051 67.3604 41.5542 68.6077C41.6996 69.8513 41.9105 70.7968 42.0451 71.1168C42.4814 72.1859 43.1251 73.5823 44.2887 74.5314C45.4524 75.4768 47.1142 76.1096 50.1578 75.4768C52.7979 74.9277 54.427 74.1677 55.5179 73.0659C56.6015 71.9714 57.2524 70.4477 57.667 68.1095C58.2888 64.6077 59.5397 54.4585 59.6888 52.5458C59.6234 51.1094 59.8415 50.0003 60.3143 49.1567C60.8052 48.2912 61.5616 47.7603 62.2125 47.473C62.5397 47.3276 62.8452 47.233 63.0961 47.1639C62.8298 46.7933 62.5508 46.4318 62.2597 46.0803C61.3222 44.9782 60.5516 43.7444 59.9725 42.4184C59.6959 41.8718 59.4012 41.3345 59.0888 40.8075C58.6343 40.0075 58.0561 39.0075 57.4524 37.8839C56.2415 35.6329 54.9251 32.9057 54.2415 30.2475C53.5615 27.5965 53.4597 24.8511 55.2052 22.9129C56.7543 21.1929 59.467 20.4801 63.5434 20.8801C63.4234 20.531 63.3507 20.2401 63.147 19.7747C62.2222 17.6644 61.0201 15.687 59.5725 13.8946C56.1179 9.61097 50.5288 5.36367 41.8887 5.22549H41.496V5.22185ZM18.674 5.39276C18.2376 5.39276 17.8013 5.40731 17.3649 5.42912C13.8958 5.62185 10.6158 6.60004 8.27032 9.0146C5.91757 11.4255 4.37211 15.3819 4.70666 21.9347C4.77575 23.1711 5.33212 26.6474 6.28485 30.7711C7.23758 34.902 8.59032 39.7566 10.2121 44.0439C11.834 48.3348 13.8049 52.0694 15.674 53.8367C16.6158 54.7203 17.434 55.0767 18.1758 55.0476C18.9213 55.0112 19.8158 54.5967 20.914 53.3203C22.9141 50.98 24.9879 48.7037 27.1322 46.4948C25.6178 45.2236 24.4515 43.5881 23.7431 41.7421C23.044 39.9125 22.831 37.933 23.125 35.9966C23.4777 33.5311 23.525 31.2256 23.485 29.4075C23.4413 27.6329 23.3104 26.4547 23.3104 25.7165V25.6147C23.3071 21.7716 23.9957 17.9593 25.3431 14.3601C26.3032 11.8801 27.7359 9.36006 29.885 7.32004C27.7759 6.64731 24.0304 5.62185 19.9758 5.42912C19.5398 5.40638 19.1033 5.39426 18.6667 5.39276H18.674ZM61.2706 23.0001C58.9397 23.0292 57.6306 23.6147 56.9433 24.3783C55.9688 25.462 55.8779 27.3602 56.4815 29.702C57.0815 32.0438 58.3252 34.6657 59.4961 36.8402C60.0779 37.9311 60.6452 38.913 61.1034 39.7057C61.5652 40.5057 61.9034 41.073 62.107 41.5603C62.2961 42.0039 62.507 42.3966 62.7179 42.7639C63.6197 40.913 63.7834 39.0984 63.6888 37.2039C63.5688 34.862 63.0088 32.4657 63.0925 30.0402C63.1834 27.2038 63.7616 25.3529 63.8125 23.1601C62.9693 23.0542 62.1204 23.0008 61.2706 23.0001ZM32.9796 23.382C32.2673 23.3886 31.5578 23.4715 30.8632 23.6292C29.4825 23.9543 28.1501 24.458 26.8995 25.1274C26.4813 25.3456 26.0777 25.6002 25.6995 25.8874L25.6268 25.9529C25.6486 26.4402 25.7468 27.622 25.7904 29.3565C25.8268 31.2584 25.7831 33.6838 25.405 36.302C24.5831 42.0039 28.845 46.7239 33.8559 46.7312C34.1468 45.5603 34.6305 44.3748 35.1105 43.1239C36.5069 39.4766 39.2523 36.8184 36.9396 26.4365C36.5614 24.7383 35.8123 24.0511 34.7796 23.662C34.2007 23.4635 33.5914 23.3687 32.9796 23.382ZM60.1797 24.062H60.3543C60.5797 24.0692 60.7906 24.0947 60.9725 24.1347C61.1398 24.168 61.2998 24.2308 61.4452 24.3202C61.511 24.3597 61.5679 24.4124 61.6123 24.475C61.6567 24.5375 61.6877 24.6086 61.7034 24.6838V24.7129C61.7091 24.8723 61.666 25.0296 61.5797 25.1638C61.4777 25.3468 61.3504 25.5145 61.2016 25.662C60.8498 26.0368 60.3848 26.2859 59.8779 26.3711C59.3813 26.4299 58.8802 26.3072 58.467 26.0256C58.2997 25.9169 58.1491 25.7847 58.0197 25.6329C57.9086 25.5157 57.8329 25.3695 57.8015 25.2111C57.7939 25.1333 57.8029 25.0548 57.8279 24.9808C57.853 24.9068 57.8936 24.839 57.947 24.782C58.0611 24.6575 58.1982 24.5563 58.3506 24.4838C58.9251 24.2151 59.5493 24.0689 60.1834 24.0547V24.062H60.1797ZM33.3141 24.622C33.4959 24.622 33.6887 24.6402 33.885 24.6656C34.4087 24.7383 34.8778 24.8729 35.2341 25.0729C35.4087 25.1638 35.5614 25.2802 35.6923 25.4256C35.7603 25.5031 35.8122 25.5933 35.845 25.6911C35.8776 25.7881 35.8888 25.8911 35.8778 25.9929C35.8439 26.1854 35.7541 26.3637 35.6196 26.5056C35.4786 26.6747 35.3131 26.8218 35.1287 26.942C34.6772 27.2498 34.1292 27.383 33.5868 27.3165C33.036 27.2293 32.5297 26.962 32.1468 26.5565C31.9855 26.3952 31.8484 26.2115 31.7396 26.0111C31.6263 25.8367 31.5763 25.6288 31.5977 25.422C31.6486 25.0583 31.9577 24.8765 32.2523 24.7674C32.5935 24.6627 32.9504 24.6184 33.3068 24.6365L33.3141 24.622ZM64.4416 49.1021H64.4307C63.9252 49.2839 63.5107 49.3567 63.1579 49.5021C62.8071 49.6333 62.5161 49.888 62.3397 50.2185C62.1216 50.6003 61.9397 51.2803 61.9943 52.4367C62.1507 52.5406 62.3225 52.6191 62.5034 52.6694C63.0888 52.844 64.0743 52.9603 65.1761 52.9421C67.3652 52.9167 70.0634 52.4221 71.4962 51.7749C72.6707 51.244 73.7616 50.553 74.7362 49.7239C69.9471 50.6839 67.2452 50.4294 65.5834 49.7639C65.1723 49.5991 64.7876 49.3749 64.4416 49.0985V49.1021ZM36.8487 49.4148H36.7759C36.5941 49.4294 36.3287 49.4876 35.8196 50.0403C34.6196 51.3421 34.205 52.1567 33.2159 52.9203C32.2341 53.684 30.9505 54.0876 28.3904 54.5967C27.5795 54.7567 27.1177 54.9349 26.805 55.0767C26.9068 55.1567 26.8959 55.1785 27.045 55.2549C27.4195 55.4549 27.9032 55.6294 28.2886 55.7276C29.3904 55.9931 31.1977 56.3058 33.085 55.9931C34.9687 55.6803 36.9323 54.804 38.605 52.5276C38.896 52.1349 38.9251 51.553 38.6887 50.9276C38.4451 50.3094 37.9214 49.7712 37.5505 49.6185C37.3285 49.5161 37.0916 49.4498 36.8487 49.4221V49.4148Z" />
</svg>
