<svg width="68" height="80" viewBox="0 0 68 80" fill="none" xmlns="http://www.w3.org/2000/svg">
<path d="M60.4741 63.4198L24.588 74.0336C23.4916 74.3581 22.4408 73.4098 22.6712 72.3034L35.4912 10.9078C35.7311 9.75906 37.3181 9.57734 37.8187 10.6406L61.5559 61.0461C62.0036 61.9976 61.4928 63.1191 60.4739 63.42L60.4741 63.4198ZM66.6278 60.9155L39.1437 2.55093C37.3319 -0.838289 33.0444 -0.71532 31.3694 2.12124L1.56125 50.4011C0.637808 51.9066 0.65609 53.762 1.61375 55.248L16.1845 77.8197C17.6869 79.6108 19.0761 80.4556 21.4489 79.7537L63.7434 67.2447C66.5611 66.4009 67.9189 63.6787 66.6278 60.9156V60.9155Z"/>
</svg>
