<svg width="81" height="72" viewBox="0 0 81 72" fill="none" xmlns="http://www.w3.org/2000/svg">
<path d="M80.8819 36.0084C80.8819 30.7084 74.2452 25.6851 64.0686 22.5718C66.4186 12.2018 65.3752 3.94842 60.7752 1.30508C59.6606 0.680819 58.3991 0.366592 57.1219 0.395085V4.02842C57.8719 4.02842 58.4752 4.17842 58.9819 4.45508C61.1986 5.72842 62.1619 10.5684 61.4119 16.7984C61.2319 18.3318 60.9386 19.9451 60.5786 21.5918C57.1707 20.7705 53.7119 20.177 50.2252 19.8151C48.1481 16.9494 45.8819 14.2256 43.4419 11.6618C48.7586 6.72175 53.7486 4.01508 57.1419 4.01508V0.378418C52.6552 0.378418 46.7852 3.57508 40.8486 9.11842C34.9152 3.61175 29.0419 0.445085 24.5586 0.445085V4.07842C27.9352 4.07842 32.9419 6.77175 38.2586 11.6784C35.9752 14.0784 33.6919 16.7984 31.5219 19.8151C28.028 20.173 24.5631 20.7722 21.1519 21.6084C20.7914 20.0477 20.5077 18.4703 20.3019 16.8818C19.5352 10.6484 20.4819 5.80842 22.6852 4.52175C23.1719 4.22842 23.8086 4.09508 24.5586 4.09508V0.461751C23.1919 0.461751 21.9486 0.755085 20.8752 1.37175C16.2919 4.01508 15.2652 12.2484 17.6286 22.5884C7.48523 25.7218 0.881897 30.7251 0.881897 36.0084C0.881897 41.3084 7.51856 46.3318 17.6952 49.4418C15.3452 59.8151 16.3886 68.0684 20.9886 70.7084C22.0486 71.3284 23.2886 71.6217 24.6552 71.6217C29.1419 71.6217 35.0119 68.4251 40.9486 62.8818C46.8819 68.3918 52.7519 71.5551 57.2386 71.5551C58.5256 71.5823 59.7967 71.2671 60.9219 70.6418C65.5052 68.0018 66.5319 59.7684 64.1686 49.4284C74.2786 46.3151 80.8819 41.2918 80.8819 36.0084ZM59.6486 25.1318C59.0152 27.3113 58.2811 29.4602 57.4486 31.5718C56.0858 28.9209 54.5894 26.341 52.9652 23.8418C55.2819 24.1851 57.5152 24.6084 59.6519 25.1318H59.6486ZM52.1819 42.4984C50.961 44.63 49.6498 46.7085 48.2519 48.7284C43.3594 49.1596 38.4387 49.1652 33.5452 48.7451C30.7384 44.7357 28.2837 40.491 26.2086 36.0584C28.2805 31.6154 30.7248 27.3558 33.5152 23.3251C38.4065 22.893 43.3261 22.8863 48.2186 23.3051C49.5719 25.2451 50.8952 27.3184 52.1652 29.5051C53.4052 31.6384 54.5319 33.8051 55.5586 35.9918C54.5205 38.2049 53.394 40.3756 52.1819 42.4984ZM57.4486 40.3784C58.3286 42.5618 59.0819 44.7484 59.6986 46.8684C57.5652 47.3918 55.3119 47.8318 52.9819 48.1718C54.5994 45.6498 56.0901 43.0488 57.4486 40.3784ZM40.9152 57.7784C39.3986 56.2118 37.8819 54.4684 36.3819 52.5584C37.8486 52.6251 39.3486 52.6751 40.8652 52.6751C42.3986 52.6751 43.9152 52.6418 45.3986 52.5584C43.9319 54.4684 42.4152 56.2118 40.9152 57.7784ZM28.7819 48.1718C26.5344 47.8461 24.3031 47.4168 22.0952 46.8851C22.6986 44.7818 23.4486 42.6118 24.2952 40.4451C24.9652 41.7451 25.6686 43.0518 26.4352 44.3584C27.2019 45.6618 27.9819 46.9351 28.7819 48.1718ZM40.8319 14.2384C42.3486 15.8051 43.8652 17.5484 45.3652 19.4584C43.8986 19.3918 42.3986 19.3418 40.8819 19.3418C39.3486 19.3418 37.8319 19.3751 36.3486 19.4584C37.8152 17.5484 39.3319 15.8051 40.8319 14.2384ZM28.7652 23.8451C27.1481 26.3615 25.6574 28.957 24.2986 31.6218C23.4426 29.4966 22.6917 27.3307 22.0486 25.1318C24.1819 24.6251 26.4352 24.1851 28.7652 23.8451ZM14.0086 44.2584C8.23523 41.7984 4.5019 38.5684 4.5019 36.0084C4.5019 33.4484 8.23523 30.2018 14.0086 27.7584C15.4086 27.1551 16.9419 26.6151 18.5252 26.1118C19.4552 29.3051 20.6786 32.6318 22.1919 36.0418C20.7631 39.249 19.5548 42.55 18.5752 45.9218C17.0267 45.4423 15.5027 44.8872 14.0086 44.2584ZM22.7819 67.5584C20.5652 66.2918 19.6019 61.4451 20.3519 55.2184C20.5319 53.6851 20.8252 52.0684 21.1852 50.4218C24.3786 51.2051 27.8686 51.8084 31.5386 52.2018C33.6158 55.0674 35.882 57.7912 38.3219 60.3551C33.0052 65.2951 28.0152 68.0018 24.6219 68.0018C23.9817 68.0087 23.3497 67.8576 22.7819 67.5618V67.5584ZM61.4619 55.1351C62.2286 61.3651 61.2819 66.2084 59.0786 67.4951C58.5919 67.7884 57.9552 67.9184 57.2052 67.9184C53.8286 67.9184 48.8219 65.2284 43.5052 60.3184C45.935 57.7653 48.1859 55.0478 50.2419 52.1851C53.7358 51.8272 57.2007 51.228 60.6119 50.3918C60.9886 52.0384 61.2786 53.6184 61.4619 55.1351ZM67.7386 44.2584C66.3386 44.8618 64.8052 45.4018 63.2219 45.9051C62.2251 42.5161 61.0001 39.1986 59.5552 35.9751C61.0552 32.5851 62.2586 29.2751 63.1719 26.0951C64.7253 26.5761 66.2548 27.1312 67.7552 27.7584C73.5286 30.2184 77.2619 33.4484 77.2619 36.0084C77.2452 38.5684 73.5119 41.8151 67.7386 44.2584Z" />
<path d="M40.8653 43.4618C42.842 43.4618 44.7378 42.6766 46.1356 41.2788C47.5333 39.881 48.3186 37.9853 48.3186 36.0085C48.3186 34.0318 47.5333 32.136 46.1356 30.7382C44.7378 29.3404 42.842 28.5552 40.8653 28.5552C38.8885 28.5552 36.9927 29.3404 35.595 30.7382C34.1972 32.136 33.4119 34.0318 33.4119 36.0085C33.4119 37.9853 34.1972 39.881 35.595 41.2788C36.9927 42.6766 38.8885 43.4618 40.8653 43.4618Z"/>
</svg>
