<svg width="424" height="488" viewBox="0 0 424 488" fill="none" xmlns="http://www.w3.org/2000/svg">
<path d="M412.295 359.151C414.481 371.054 415.056 383.022 413.083 394.908C411.948 402.092 409.844 408.931 405.799 415.08C403.695 418.269 401.213 421.014 398.138 423.25C394.965 425.502 391.874 427.639 388.701 429.891C384.164 433.08 379.15 435.234 373.889 436.516C368.924 437.749 363.959 438.982 358.879 439.524C349.919 440.51 340.993 439.869 332.164 437.994C325.967 436.695 320.032 434.541 314.163 432.174C310.037 430.53 306.009 428.869 301.882 427.225C289.849 422.539 279.508 415.239 270.056 406.575C261.688 398.947 254.29 390.447 246.81 382.062C226.656 359.062 206.518 336.161 186.544 313.029C169.974 293.893 151.923 276.219 132.229 260.239C117.943 248.73 103.673 237.32 89.3876 225.812C77.0909 215.898 65.0244 205.541 54.1745 193.967C42.0752 180.979 30.8801 167.333 21.8552 152.11C17.2358 144.465 13.57 136.458 11.5975 127.663C9.67438 119.164 9.47741 110.681 11.1053 102.198C13.0127 91.7419 18.7341 83.4893 26.2802 76.4533C34.7799 68.4473 44.2331 61.9046 54.574 56.4305C68.3673 49.1646 83.1634 44.8743 98.4526 42.3266C107.034 40.8967 115.649 41.4888 124.296 42.8865C135.015 44.5473 145.273 47.7042 155.219 52.0282C174.897 60.6106 192.817 72.0205 209.404 85.7813C223.772 97.7829 236.644 111.149 248.381 125.617C260.908 141.169 272.909 157.215 284.613 173.31C296.959 190.211 309.486 206.98 323.015 223.075C338.205 241.225 353.132 259.622 368.223 277.789C370.639 280.731 373.253 283.641 375.752 286.469C384.432 296.58 392.471 307.102 398.602 318.955C403.09 327.636 407.101 336.497 409.402 346.049C410.553 350.52 411.375 354.844 412.295 359.151Z" fill="#151515" fill-opacity="0.76"/>
<mask id="mask0_165_8" style="mask-type:alpha" maskUnits="userSpaceOnUse" x="10" y="41" width="405" height="399">
<path d="M412.295 359.151C414.481 371.054 415.056 383.022 413.083 394.908C411.948 402.092 409.844 408.931 405.799 415.08C403.695 418.269 401.213 421.014 398.138 423.25C394.965 425.502 391.874 427.639 388.701 429.891C384.164 433.08 379.15 435.234 373.889 436.516C368.924 437.749 363.959 438.982 358.879 439.524C349.919 440.51 340.993 439.869 332.164 437.994C325.967 436.695 320.032 434.541 314.163 432.174C310.037 430.53 306.009 428.869 301.882 427.225C289.849 422.539 279.508 415.239 270.056 406.575C261.688 398.947 254.29 390.447 246.81 382.062C226.656 359.062 206.518 336.161 186.544 313.029C169.974 293.893 151.923 276.219 132.229 260.239C117.943 248.73 103.673 237.32 89.3876 225.812C77.0909 215.898 65.0244 205.541 54.1745 193.967C42.0752 180.979 30.8801 167.333 21.8552 152.11C17.2358 144.465 13.57 136.458 11.5975 127.663C9.67438 119.164 9.47741 110.681 11.1053 102.198C13.0127 91.7419 18.7341 83.4893 26.2802 76.4533C34.7799 68.4473 44.2331 61.9046 54.574 56.4305C68.3673 49.1646 83.1634 44.8743 98.4526 42.3266C107.034 40.8967 115.649 41.4888 124.296 42.8865C135.015 44.5473 145.273 47.7042 155.219 52.0282C174.897 60.6106 192.817 72.0205 209.404 85.7813C223.772 97.7829 236.644 111.149 248.381 125.617C260.908 141.169 272.909 157.215 284.613 173.31C296.959 190.211 309.486 206.98 323.015 223.075C338.205 241.225 353.132 259.622 368.223 277.789C370.639 280.731 373.253 283.641 375.752 286.469C384.432 296.58 392.471 307.102 398.602 318.955C403.09 327.636 407.101 336.497 409.402 346.049C410.553 350.52 411.375 354.844 412.295 359.151Z" fill="black"/>
</mask>
<g mask="url(#mask0_165_8)">
<path d="M104.373 -26.1782C104.719 -24.715 105.097 -23.6628 105.179 -22.5614C105.721 -18.6979 106.165 -14.8182 106.707 -10.9548C110.011 10.6967 116.405 31.4276 126.055 51.0079C139.65 78.4466 155.365 104.619 175.553 127.817C207.741 164.627 245.124 194.894 288.952 216.991C317.721 231.459 347.115 244.809 376.92 256.976C403.257 267.794 429.149 279.599 454.137 293.278C461.042 296.994 467.864 300.825 474.128 305.559C477.136 307.795 479.898 310.377 482.561 312.974C483.893 314.273 484.994 316.016 485.882 317.693C488.002 321.901 487.164 325.995 483.251 328.674C481.163 330.137 478.631 331.37 476.215 332.077C472.45 333.211 468.636 334.05 464.756 334.493C432.731 337.599 401.018 335.28 369.898 326.78C350.779 321.551 332.563 313.84 314.858 304.929C284.428 289.622 256.432 270.666 230.047 249.211C195.228 220.95 165.325 188.118 139.466 151.571C125.542 131.892 112.095 112.032 98.3522 92.2217C88.0778 77.409 77.5403 62.8429 65.7534 49.296C56.5968 38.7576 46.7496 28.9427 35.3571 20.8046C30.639 17.4342 25.6578 14.3104 20.2985 11.9593C15.4816 9.82195 10.4511 8.22714 5.07525 8.21048C2.03386 8.21037 -0.925335 8.70346 -3.6873 10.3802C-6.36706 11.9419 -8.10976 14.2599 -8.93186 17.2355C-9.7704 20.1125 -9.78696 23.0552 -9.49114 26.0473C-8.40643 34.9906 -5.11875 43.1613 -0.680257 50.9376C5.45144 61.5744 13.0299 71.1591 20.7892 80.6124C36.1762 99.338 52.9772 116.814 70.5673 133.551C91.3959 153.296 111.156 173.929 129.962 195.531C140.237 207.303 150.676 218.844 160.852 230.631C183.078 256.328 208.213 278.802 236.276 298.153C260.327 314.725 285.463 329.292 311.552 342.28C325.608 349.366 339.894 356.009 354.197 362.749C378.971 374.538 403.532 386.869 427.073 400.991C441.146 409.393 454.823 418.468 467.35 429.154C475.734 436.273 483.592 443.885 490.217 452.615C492.683 455.854 494.853 459.142 496.299 462.956C497.236 465.537 497.877 468.167 497.729 470.929C497.466 475.434 495.543 479.1 492.156 481.894C488.687 484.804 484.593 486.399 480.286 487.319C472.263 489.062 464.241 488.371 456.251 486.661C446.486 484.638 437.263 481.005 428.336 476.714C417.421 471.436 407.146 465.139 397.348 458.053C362.546 432.932 326.461 409.849 289.801 387.571C265.191 372.512 241.649 355.956 219.686 337.312C200.206 320.789 182.27 302.59 165.141 283.749C133.709 249.043 103.806 213.17 75.5799 175.801C62.182 158.062 48.3403 140.701 33.4299 124.228C23.8787 113.755 13.9822 103.644 2.86918 94.75C-3.09833 89.9658 -9.37822 85.7405 -16.1349 82.3043C-24.1081 78.2598 -32.4759 75.4976 -41.4356 74.6589C-47.8143 74.0997 -53.8478 75.0037 -59.6511 77.8969C-68.1343 81.7435 -72.0637 88.5824 -71.4557 97.7065C-71.0285 105.137 -68.5792 111.927 -64.7819 118.29C-60.1296 126.132 -53.9649 132.708 -47.2577 138.889C-38.1503 147.307 -28.2866 154.787 -18.2421 162.136C0.120794 175.601 19.3879 187.8 38.655 200C50.9025 207.793 63.2486 215.569 75.4302 223.576C97.6729 238.422 118.419 255.241 138.245 273.226C165.962 298.413 192.807 324.455 219.143 351.089C230.963 363.008 241.55 376.045 252.235 389.066C262.132 401.002 271.946 413.053 282.73 424.232C293.005 434.787 303.97 444.618 316.53 452.461C327.856 459.596 339.939 465.186 353.174 467.948C359.273 469.264 365.47 469.954 371.718 469.116C374.891 468.689 377.998 467.867 380.891 466.371C382.568 465.483 383.998 464.333 384.557 462.212C384.64 462.705 384.903 463.067 384.886 463.577C384.722 465.023 383.785 466.092 382.585 466.799C380.447 467.966 378.211 469.149 375.893 469.84C369.991 471.533 364.089 471.401 358.072 470.579C346.039 468.935 334.81 464.824 324.141 459.201C308.589 451.047 295.306 440.081 282.993 427.635C272.143 416.669 262.165 404.849 252.465 392.88C239.215 376.637 225.62 360.756 210.611 346.124C200.797 336.506 190.9 327.003 180.987 317.402C163.825 300.797 146.481 284.324 128.447 268.574C103.985 247.102 77.7152 228.163 50.0968 210.867C31.6681 199.44 13.5682 187.554 -4.54814 175.568C-18.3244 166.509 -31.4431 156.53 -43.9864 145.745C-49.9046 140.648 -55.461 135.289 -60.4092 129.321C-65.5054 123.074 -69.7631 116.382 -72.0808 108.557C-73.2808 104.398 -74.0862 100.172 -74.0038 95.7994C-73.8227 87.152 -69.9426 80.6255 -62.4294 76.4336C-55.1135 72.2746 -47.2881 71.1734 -39.0024 72.2259C-29.681 73.4099 -20.9516 76.5173 -12.7153 80.9235C-3.69002 85.8065 4.33243 91.9718 11.9439 98.7124C24.3227 109.728 35.485 121.959 46.302 134.553C59.2561 149.628 71.3224 165.46 83.3887 181.293C110.891 217.363 139.906 252.167 170.533 285.689C187.153 303.905 204.661 321.365 223.632 337.263C244.017 354.345 265.717 369.585 288.338 383.659C307.901 395.808 327.381 408.073 346.879 420.437C363.877 431.189 380.054 443.092 396.394 454.765C405.601 461.341 415.152 467.556 425.262 472.867C435.8 478.308 446.683 482.781 458.503 484.967C464.455 486.003 470.422 486.53 476.39 485.839C479.875 485.461 483.278 484.59 486.468 483.045C495.017 478.985 497.943 471.603 493.981 463.038C492.551 459.931 490.644 457.004 488.672 454.292C481.225 444.28 472.035 435.977 462.319 428.168C448.017 416.561 432.646 407.058 416.946 398.015C392.846 384.189 367.825 372.137 342.656 360.415C320.035 349.991 297.726 339.008 276.108 326.694C249.887 311.7 224.965 294.766 201.67 275.432C184.836 261.408 169.827 245.559 155.344 229.217C137.113 208.634 118.8 188.166 100.207 167.845C91.9218 158.885 83.0939 150.32 74.2824 141.853C59.1747 127.237 44.1491 112.507 30.258 96.6745C21.4794 86.5801 12.8653 76.2555 5.05675 65.2898C0.0263986 58.2205 -4.62583 50.9868 -7.89708 42.9147C-10.5766 36.5688 -12.4833 29.9927 -12.4502 22.8907C-12.4831 22.0852 -12.4173 21.2631 -12.3351 20.5398C-11.4962 9.75522 -3.81865 5.9415 3.6122 5.51432C9.03737 5.21857 14.3145 6.46817 19.2958 8.37539C27.2197 11.5157 34.3544 16.004 41.111 21.265C51.698 29.436 61.0849 38.9222 69.8798 49.1153C81.338 62.5142 91.6124 76.7187 101.624 91.1697C115.909 111.802 130.113 132.55 144.563 152.952C160.969 175.969 178.904 197.818 199.223 217.547C230.934 248.455 265.72 275.302 304.83 296.462C319.083 304.124 333.714 311.012 348.773 316.816C373.794 326.434 399.687 331.548 426.451 332.766C437.285 333.292 448.152 333.408 459.035 332.405C465.134 331.896 471.118 331.304 476.938 329.118C478.746 328.411 480.44 327.622 481.969 326.455C484.764 324.367 485.438 321.72 483.712 318.662C482.808 316.887 481.525 315.276 480.177 313.878C476.857 310.376 473.01 307.368 468.966 305C460.762 300.183 452.559 295.366 444.125 290.993C419.893 278.201 394.774 267.383 369.44 257.107C342.348 246.009 315.683 233.826 289.494 220.854C255.251 203.953 224.887 181.742 197.203 155.535C163.47 123.443 138.022 85.713 118.904 43.3796C112.953 30.1781 108.745 16.4835 106.066 2.23001C104.356 -6.812 103.535 -16.0019 103.93 -25.1918C103.913 -25.2905 104.094 -25.4219 104.373 -26.1782Z" fill="#FBE8DE" fill-opacity="0.1"/>
</g>
</svg>
