<svg width="1918" height="1167" viewBox="0 0 1918 1167" fill="none" xmlns="http://www.w3.org/2000/svg">
<g opacity="0.5">
<g filter="url(#filter0_ddf_113_332)">
<path d="M140.89 763.168L148.697 757.193L152.949 758.739L149.612 767.282L147.602 765.965L144.701 776.555L141.991 774.192L136.383 795.9L118.922 804.969L118.759 790.192L135.373 772.512L131.322 771.944L143.96 763.644L140.89 763.168Z" fill="#1ABBB1"/>
</g>
<g opacity="0.5" filter="url(#filter1_ddf_113_332)">
<path d="M1381.28 532.434L1381.46 522.605L1385.32 520.24L1389.93 528.169L1387.64 528.923L1394.13 537.785L1390.59 538.435L1404.09 556.336L1400.32 575.647L1388.65 566.577L1385.16 542.568L1382.19 545.385L1383.56 530.328L1381.28 532.434Z" fill="#1ABBB1"/>
</g>
<g opacity="0.5" filter="url(#filter2_ddf_113_332)">
<path d="M1833.49 133.482L1825.69 139.459L1821.43 137.915L1824.77 129.37L1826.78 130.686L1829.68 120.096L1832.39 122.458L1837.99 100.748L1855.44 91.6721L1855.61 106.449L1839.01 124.136L1843.06 124.701L1830.42 133.006L1833.49 133.482Z" fill="#1ABBB1"/>
</g>
</g>
<g filter="url(#filter3_f_113_332)">
<path d="M81.9763 503.523C83.4124 501.271 88.7539 490.215 93.9067 478.829C99.0596 467.444 102.073 460.04 100.636 462.293C99.2002 464.546 93.8588 475.602 88.7059 486.987C83.5531 498.373 80.5401 505.776 81.9763 503.523Z" fill="url(#paint0_linear_113_332)"/>
<path d="M741.11 867.507C742.5 867.04 748.097 863.693 753.612 860.03C759.126 856.368 762.47 853.777 761.081 854.245C759.691 854.712 754.094 858.059 748.579 861.722C743.064 865.384 739.721 867.974 741.11 867.507Z" fill="url(#paint1_linear_113_332)"/>
<path d="M1768.13 850.786C1772.39 847.915 1791.79 833.732 1811.46 819.108C1831.12 804.484 1843.6 794.957 1839.34 797.828C1835.07 800.7 1815.67 814.882 1796 829.506C1776.34 844.13 1763.86 853.658 1768.13 850.786Z" fill="url(#paint2_linear_113_332)"/>
<path d="M981.676 160.124C983.734 159.151 992.831 153.825 1001.99 148.227C1011.16 142.63 1016.91 138.882 1014.86 139.855C1012.8 140.829 1003.7 146.155 994.538 151.752C985.376 157.349 979.617 161.097 981.676 160.124Z" fill="url(#paint3_linear_113_332)"/>
</g>
<g opacity="0.3" filter="url(#filter4_if_113_332)">
<path d="M176.176 821.098C176.757 821.184 177.31 820.849 177.411 820.349C177.511 819.849 177.121 819.374 176.54 819.287C175.959 819.201 175.406 819.536 175.306 820.036C175.205 820.536 175.595 821.011 176.176 821.098Z" fill="white"/>
<path d="M111.176 760.098C111.757 760.184 112.31 759.849 112.41 759.349C112.511 758.849 112.121 758.374 111.54 758.287C110.958 758.201 110.406 758.536 110.305 759.036C110.205 759.536 110.595 760.011 111.176 760.098Z" fill="white"/>
<path d="M240.176 780.098C240.758 780.184 241.31 779.849 241.411 779.349C241.511 778.849 241.121 778.374 240.54 778.287C239.959 778.201 239.406 778.536 239.306 779.036C239.205 779.536 239.595 780.011 240.176 780.098Z" fill="white"/>
<path d="M214.176 862.098C214.758 862.184 215.31 861.849 215.411 861.349C215.511 860.849 215.121 860.374 214.54 860.287C213.959 860.201 213.406 860.536 213.306 861.036C213.205 861.536 213.595 862.011 214.176 862.098Z" fill="white"/>
<path d="M204.238 1009.48C204.818 1009.39 205.244 1008.9 205.189 1008.4C205.135 1007.89 204.62 1007.55 204.04 1007.65C203.459 1007.74 203.033 1008.22 203.088 1008.73C203.142 1009.24 203.657 1009.57 204.238 1009.48Z" fill="white"/>
<path d="M110.751 970.902C111.332 970.81 111.758 970.324 111.703 969.817C111.649 969.31 111.134 968.974 110.553 969.066C109.973 969.159 109.547 969.645 109.602 970.152C109.656 970.659 110.171 970.995 110.751 970.902Z" fill="white"/>
<path d="M34.2656 1031.87C34.846 1031.78 35.2721 1031.3 35.2175 1030.79C35.1628 1030.28 34.648 1029.95 34.0677 1030.04C33.4873 1030.13 33.0612 1030.62 33.1159 1031.12C33.1705 1031.63 33.6853 1031.97 34.2656 1031.87Z" fill="white"/>
<path d="M111.266 881.875C111.846 881.782 112.272 881.296 112.217 880.789C112.163 880.282 111.648 879.946 111.068 880.039C110.487 880.131 110.061 880.617 110.116 881.124C110.171 881.631 110.685 881.967 111.266 881.875Z" fill="white"/>
<path d="M35.2656 893.874C35.846 893.782 36.2721 893.296 36.2175 892.789C36.1628 892.282 35.648 891.946 35.0677 892.038C34.4873 892.131 34.0612 892.617 34.1159 893.124C34.1705 893.631 34.6853 893.967 35.2656 893.874Z" fill="white"/>
<path d="M55.2656 708.874C55.846 708.782 56.2721 708.296 56.2175 707.789C56.1628 707.282 55.648 706.946 55.0677 707.039C54.4873 707.131 54.0612 707.617 54.1159 708.124C54.1705 708.631 54.6853 708.967 55.2656 708.874Z" fill="white"/>
<path d="M17.2656 610.874C17.846 610.782 18.2721 610.296 18.2175 609.789C18.1628 609.282 17.648 608.946 17.0677 609.039C16.4873 609.131 16.0612 609.617 16.1159 610.124C16.1705 610.631 16.6853 610.967 17.2656 610.874Z" fill="white"/>
<path d="M114.266 587.874C114.846 587.782 115.272 587.296 115.217 586.789C115.163 586.282 114.648 585.946 114.068 586.039C113.487 586.131 113.061 586.617 113.116 587.124C113.171 587.631 113.685 587.967 114.266 587.874Z" fill="white"/>
<path d="M22.2656 452.874C22.846 452.782 23.2721 452.296 23.2175 451.789C23.1628 451.282 22.648 450.946 22.0677 451.039C21.4873 451.131 21.0612 451.617 21.1159 452.124C21.1705 452.631 21.6853 452.967 22.2656 452.874Z" fill="white"/>
<path d="M24.2656 326.874C24.846 326.782 25.2721 326.296 25.2175 325.789C25.1628 325.282 24.648 324.946 24.0677 325.039C23.4873 325.131 23.0612 325.617 23.1159 326.124C23.1705 326.631 23.6853 326.967 24.2656 326.874Z" fill="white"/>
<path d="M43.2656 143.874C43.846 143.782 44.2721 143.296 44.2175 142.789C44.1628 142.282 43.648 141.946 43.0677 142.039C42.4873 142.131 42.0612 142.617 42.1158 143.124C42.1705 143.631 42.6853 143.967 43.2656 143.874Z" fill="white"/>
<path d="M4.26561 29.8744C4.84595 29.782 5.27211 29.296 5.21744 28.789C5.16277 28.2821 4.64799 27.9461 4.06764 28.0386C3.4873 28.1311 3.06116 28.617 3.11583 29.124C3.17049 29.631 3.68527 29.9669 4.26561 29.8744Z" fill="white"/>
<path d="M237.238 969.482C237.818 969.389 238.244 968.903 238.189 968.396C238.135 967.889 237.62 967.553 237.04 967.646C236.459 967.738 236.033 968.224 236.088 968.731C236.142 969.238 236.657 969.574 237.238 969.482Z" fill="white"/>
<path d="M319.752 749.874C320.332 749.782 320.758 749.296 320.703 748.789C320.649 748.282 320.134 747.946 319.554 748.039C318.973 748.131 318.547 748.617 318.602 749.124C318.656 749.631 319.171 749.967 319.752 749.874Z" fill="white"/>
<path d="M283.237 902.874C283.818 902.782 284.244 902.296 284.189 901.789C284.135 901.282 283.62 900.946 283.039 901.039C282.459 901.131 282.033 901.617 282.088 902.124C282.142 902.631 282.657 902.967 283.237 902.874Z" fill="white"/>
<path d="M183.104 1073.9C183.684 1073.81 184.11 1073.32 184.056 1072.82C184.001 1072.31 183.486 1071.97 182.906 1072.07C182.326 1072.16 181.899 1072.65 181.954 1073.15C182.009 1073.66 182.523 1074 183.104 1073.9Z" fill="white"/>
<path d="M251.238 1038.48C251.818 1038.39 252.244 1037.9 252.189 1037.4C252.135 1036.89 251.62 1036.55 251.04 1036.65C250.459 1036.74 250.033 1037.22 250.088 1037.73C250.142 1038.24 250.657 1038.57 251.238 1038.48Z" fill="white"/>
<path d="M386.176 903.098C386.757 903.184 387.31 902.849 387.41 902.349C387.511 901.849 387.121 901.374 386.54 901.287C385.958 901.201 385.406 901.536 385.305 902.036C385.205 902.536 385.595 903.011 386.176 903.098Z" fill="white"/>
<path d="M321.176 842.098C321.757 842.184 322.31 841.849 322.41 841.349C322.511 840.849 322.121 840.374 321.54 840.287C320.959 840.201 320.406 840.536 320.305 841.036C320.205 841.536 320.595 842.011 321.176 842.098Z" fill="white"/>
<path d="M450.176 862.098C450.757 862.184 451.31 861.849 451.41 861.349C451.511 860.849 451.121 860.374 450.54 860.287C449.958 860.201 449.406 860.536 449.305 861.036C449.205 861.536 449.595 862.011 450.176 862.098Z" fill="white"/>
<path d="M359.176 962.098C359.757 962.184 360.31 961.849 360.41 961.349C360.511 960.849 360.121 960.374 359.54 960.287C358.958 960.201 358.406 960.536 358.305 961.036C358.205 961.536 358.595 962.011 359.176 962.098Z" fill="white"/>
<path d="M424.176 944.098C424.757 944.184 425.31 943.849 425.41 943.349C425.511 942.849 425.121 942.374 424.54 942.287C423.958 942.201 423.406 942.536 423.305 943.036C423.205 943.536 423.595 944.011 424.176 944.098Z" fill="white"/>
<path d="M571.662 865.098C572.243 865.184 572.796 864.849 572.896 864.349C572.997 863.849 572.607 863.374 572.025 863.287C571.444 863.201 570.892 863.536 570.791 864.036C570.691 864.536 571.081 865.011 571.662 865.098Z" fill="white"/>
<path d="M506.662 804.098C507.243 804.184 507.796 803.849 507.896 803.349C507.997 802.849 507.607 802.374 507.026 802.287C506.444 802.201 505.892 802.536 505.791 803.036C505.691 803.536 506.081 804.011 506.662 804.098Z" fill="white"/>
<path d="M635.662 824.098C636.243 824.184 636.796 823.849 636.896 823.349C636.997 822.849 636.607 822.374 636.026 822.287C635.444 822.201 634.892 822.536 634.791 823.036C634.691 823.536 635.081 824.011 635.662 824.098Z" fill="white"/>
<path d="M544.662 924.098C545.243 924.184 545.796 923.849 545.896 923.349C545.997 922.849 545.607 922.374 545.026 922.287C544.444 922.201 543.892 922.536 543.791 923.036C543.691 923.536 544.081 924.011 544.662 924.098Z" fill="white"/>
<path d="M818.69 738.098C819.271 738.184 819.824 737.849 819.925 737.349C820.025 736.849 819.635 736.374 819.054 736.287C818.473 736.201 817.92 736.536 817.82 737.036C817.719 737.536 818.109 738.011 818.69 738.098Z" fill="white"/>
<path d="M509.237 1102.87C509.818 1102.78 510.244 1102.3 510.189 1101.79C510.134 1101.28 509.62 1100.95 509.039 1101.04C508.459 1101.13 508.033 1101.62 508.088 1102.12C508.142 1102.63 508.657 1102.97 509.237 1102.87Z" fill="white"/>
<path d="M506.237 1014.9C506.818 1014.81 507.244 1014.32 507.189 1013.82C507.134 1013.31 506.62 1012.97 506.039 1013.07C505.459 1013.16 505.033 1013.64 505.087 1014.15C505.142 1014.66 505.657 1014.99 506.237 1014.9Z" fill="white"/>
<path d="M632.723 1013.48C633.303 1013.39 633.73 1012.9 633.675 1012.4C633.62 1011.89 633.105 1011.55 632.525 1011.65C631.945 1011.74 631.519 1012.22 631.573 1012.73C631.628 1013.24 632.143 1013.57 632.723 1013.48Z" fill="white"/>
<path d="M580.723 962.874C581.303 962.782 581.73 962.296 581.675 961.789C581.62 961.282 581.105 960.946 580.525 961.039C579.945 961.131 579.519 961.617 579.573 962.124C579.628 962.631 580.143 962.967 580.723 962.874Z" fill="white"/>
<path d="M578.589 1117.9C579.17 1117.81 579.596 1117.32 579.541 1116.82C579.487 1116.31 578.972 1115.97 578.391 1116.07C577.811 1116.16 577.385 1116.65 577.44 1117.15C577.494 1117.66 578.009 1118 578.589 1117.9Z" fill="white"/>
<path d="M646.723 1082.48C647.303 1082.39 647.73 1081.9 647.675 1081.4C647.62 1080.89 647.105 1080.55 646.525 1080.65C645.945 1080.74 645.519 1081.22 645.573 1081.73C645.628 1082.24 646.143 1082.57 646.723 1082.48Z" fill="white"/>
<path d="M781.662 947.098C782.243 947.184 782.796 946.849 782.896 946.349C782.997 945.849 782.607 945.374 782.025 945.287C781.444 945.201 780.892 945.536 780.791 946.036C780.691 946.536 781.081 947.011 781.662 947.098Z" fill="white"/>
<path d="M716.662 886.098C717.243 886.184 717.796 885.849 717.896 885.349C717.997 884.849 717.607 884.374 717.026 884.287C716.444 884.201 715.892 884.536 715.791 885.036C715.691 885.536 716.081 886.011 716.662 886.098Z" fill="white"/>
<path d="M845.662 906.098C846.243 906.184 846.796 905.849 846.896 905.349C846.997 904.849 846.607 904.374 846.025 904.287C845.444 904.201 844.892 904.536 844.791 905.036C844.691 905.536 845.08 906.011 845.662 906.098Z" fill="white"/>
<path d="M754.662 1006.1C755.243 1006.18 755.796 1005.85 755.896 1005.35C755.997 1004.85 755.607 1004.37 755.026 1004.29C754.444 1004.2 753.892 1004.54 753.791 1005.04C753.691 1005.54 754.081 1006.01 754.662 1006.1Z" fill="white"/>
<path d="M819.662 988.098C820.243 988.184 820.796 987.849 820.896 987.349C820.997 986.849 820.607 986.374 820.026 986.287C819.444 986.201 818.892 986.536 818.791 987.036C818.691 987.536 819.081 988.011 819.662 988.098Z" fill="white"/>
<path d="M928.176 806.098C928.757 806.184 929.31 805.849 929.41 805.349C929.511 804.849 929.121 804.374 928.54 804.287C927.958 804.201 927.406 804.536 927.305 805.036C927.205 805.536 927.595 806.011 928.176 806.098Z" fill="white"/>
<path d="M1057.18 826.098C1057.76 826.185 1058.31 825.849 1058.41 825.35C1058.51 824.85 1058.12 824.374 1057.54 824.288C1056.96 824.201 1056.41 824.537 1056.31 825.036C1056.2 825.536 1056.59 826.012 1057.18 826.098Z" fill="white"/>
<path d="M966.176 926.099C966.757 926.185 967.31 925.85 967.41 925.35C967.511 924.85 967.121 924.375 966.54 924.289C965.958 924.202 965.406 924.537 965.305 925.037C965.205 925.537 965.595 926.012 966.176 926.099Z" fill="white"/>
<path d="M1031.18 908.099C1031.76 908.185 1032.31 907.85 1032.41 907.35C1032.51 906.85 1032.12 906.375 1031.54 906.288C1030.96 906.202 1030.41 906.537 1030.31 907.037C1030.2 907.537 1030.59 908.012 1031.18 908.099Z" fill="white"/>
<path d="M1021.24 1055.48C1021.82 1055.39 1022.24 1054.91 1022.19 1054.4C1022.13 1053.89 1021.62 1053.56 1021.04 1053.65C1020.46 1053.74 1020.03 1054.23 1020.09 1054.73C1020.14 1055.24 1020.66 1055.58 1021.24 1055.48Z" fill="white"/>
<path d="M927.751 1016.9C928.332 1016.81 928.758 1016.33 928.703 1015.82C928.649 1015.31 928.134 1014.98 927.553 1015.07C926.973 1015.16 926.547 1015.65 926.602 1016.15C926.656 1016.66 927.171 1017 927.751 1016.9Z" fill="white"/>
<path d="M1054.24 1015.48C1054.82 1015.39 1055.24 1014.9 1055.19 1014.4C1055.13 1013.89 1054.62 1013.55 1054.04 1013.65C1053.46 1013.74 1053.03 1014.23 1053.09 1014.73C1053.14 1015.24 1053.66 1015.58 1054.24 1015.48Z" fill="white"/>
<path d="M1002.24 964.876C1002.82 964.783 1003.24 964.297 1003.19 963.791C1003.13 963.284 1002.62 962.948 1002.04 963.04C1001.46 963.133 1001.03 963.619 1001.09 964.125C1001.14 964.632 1001.66 964.968 1002.24 964.876Z" fill="white"/>
<path d="M1100.24 948.876C1100.82 948.783 1101.24 948.297 1101.19 947.79C1101.13 947.283 1100.62 946.947 1100.04 947.04C1099.46 947.132 1099.03 947.618 1099.09 948.125C1099.14 948.632 1099.66 948.968 1100.24 948.876Z" fill="white"/>
<path d="M1000.1 1119.9C1000.68 1119.81 1001.11 1119.33 1001.06 1118.82C1001 1118.31 1000.49 1117.98 999.906 1118.07C999.325 1118.16 998.899 1118.65 998.954 1119.15C999.008 1119.66 999.523 1120 1000.1 1119.9Z" fill="white"/>
<path d="M1068.24 1084.48C1068.82 1084.39 1069.24 1083.91 1069.19 1083.4C1069.13 1082.89 1068.62 1082.56 1068.04 1082.65C1067.46 1082.74 1067.03 1083.23 1067.09 1083.73C1067.14 1084.24 1067.66 1084.58 1068.24 1084.48Z" fill="white"/>
<path d="M1203.18 949.099C1203.76 949.185 1204.31 948.85 1204.41 948.35C1204.51 947.85 1204.12 947.375 1203.54 947.289C1202.96 947.202 1202.41 947.537 1202.31 948.037C1202.2 948.537 1202.59 949.013 1203.18 949.099Z" fill="white"/>
<path d="M1138.18 888.099C1138.76 888.185 1139.31 887.85 1139.41 887.35C1139.51 886.85 1139.12 886.375 1138.54 886.289C1137.96 886.202 1137.41 886.537 1137.31 887.037C1137.2 887.537 1137.59 888.012 1138.18 888.099Z" fill="white"/>
<path d="M1267.18 908.099C1267.76 908.185 1268.31 907.85 1268.41 907.35C1268.51 906.85 1268.12 906.375 1267.54 906.288C1266.96 906.202 1266.41 906.537 1266.31 907.037C1266.2 907.537 1266.59 908.012 1267.18 908.099Z" fill="white"/>
<path d="M1176.18 1008.1C1176.76 1008.19 1177.31 1007.85 1177.41 1007.35C1177.51 1006.85 1177.12 1006.38 1176.54 1006.29C1175.96 1006.2 1175.41 1006.54 1175.31 1007.04C1175.2 1007.54 1175.59 1008.01 1176.18 1008.1Z" fill="white"/>
<path d="M1241.18 990.099C1241.76 990.186 1242.31 989.851 1242.41 989.351C1242.51 988.851 1242.12 988.375 1241.54 988.289C1240.96 988.202 1240.41 988.538 1240.31 989.038C1240.2 989.537 1240.59 990.013 1241.18 990.099Z" fill="white"/>
<path d="M1388.66 911.099C1389.24 911.185 1389.8 910.85 1389.9 910.35C1390 909.85 1389.61 909.375 1389.03 909.289C1388.44 909.202 1387.89 909.537 1387.79 910.037C1387.69 910.537 1388.08 911.013 1388.66 911.099Z" fill="white"/>
<path d="M1323.66 850.099C1324.24 850.185 1324.8 849.85 1324.9 849.35C1325 848.85 1324.61 848.375 1324.03 848.288C1323.44 848.202 1322.89 848.537 1322.79 849.037C1322.69 849.537 1323.08 850.012 1323.66 850.099Z" fill="white"/>
<path d="M1452.66 870.099C1453.24 870.185 1453.8 869.85 1453.9 869.35C1454 868.85 1453.61 868.375 1453.03 868.288C1452.44 868.202 1451.89 868.537 1451.79 869.037C1451.69 869.537 1452.08 870.012 1452.66 870.099Z" fill="white"/>
<path d="M1361.66 970.099C1362.24 970.186 1362.8 969.85 1362.9 969.35C1363 968.851 1362.61 968.375 1362.03 968.289C1361.44 968.202 1360.89 968.538 1360.79 969.037C1360.69 969.537 1361.08 970.013 1361.66 970.099Z" fill="white"/>
<path d="M1426.66 952.099C1427.24 952.186 1427.8 951.851 1427.9 951.351C1428 950.851 1427.61 950.375 1427.03 950.289C1426.44 950.202 1425.89 950.538 1425.79 951.038C1425.69 951.537 1426.08 952.013 1426.66 952.099Z" fill="white"/>
<path d="M1326.24 1148.88C1326.82 1148.78 1327.24 1148.3 1327.19 1147.79C1327.13 1147.28 1326.62 1146.95 1326.04 1147.04C1325.46 1147.13 1325.03 1147.62 1325.09 1148.13C1325.14 1148.63 1325.66 1148.97 1326.24 1148.88Z" fill="white"/>
<path d="M1323.24 1060.9C1323.82 1060.81 1324.24 1060.33 1324.19 1059.82C1324.13 1059.31 1323.62 1058.98 1323.04 1059.07C1322.46 1059.16 1322.03 1059.65 1322.09 1060.15C1322.14 1060.66 1322.66 1061 1323.24 1060.9Z" fill="white"/>
<path d="M1449.72 1059.48C1450.3 1059.39 1450.73 1058.91 1450.67 1058.4C1450.62 1057.89 1450.11 1057.56 1449.53 1057.65C1448.94 1057.74 1448.52 1058.23 1448.57 1058.73C1448.63 1059.24 1449.14 1059.58 1449.72 1059.48Z" fill="white"/>
<path d="M1397.72 1008.88C1398.3 1008.78 1398.73 1008.3 1398.67 1007.79C1398.62 1007.28 1398.11 1006.95 1397.53 1007.04C1396.94 1007.13 1396.52 1007.62 1396.57 1008.13C1396.63 1008.63 1397.14 1008.97 1397.72 1008.88Z" fill="white"/>
<path d="M1495.72 992.876C1496.3 992.783 1496.73 992.297 1496.67 991.79C1496.62 991.283 1496.11 990.947 1495.53 991.04C1494.94 991.132 1494.52 991.618 1494.57 992.125C1494.63 992.632 1495.14 992.968 1495.72 992.876Z" fill="white"/>
<path d="M1395.59 1163.9C1396.17 1163.81 1396.6 1163.33 1396.54 1162.82C1396.49 1162.31 1395.97 1161.98 1395.39 1162.07C1394.81 1162.16 1394.38 1162.65 1394.44 1163.15C1394.49 1163.66 1395.01 1164 1395.59 1163.9Z" fill="white"/>
<path d="M1463.72 1128.48C1464.3 1128.39 1464.73 1127.91 1464.67 1127.4C1464.62 1126.89 1464.11 1126.56 1463.53 1126.65C1462.94 1126.74 1462.52 1127.23 1462.57 1127.73C1462.63 1128.24 1463.14 1128.58 1463.72 1128.48Z" fill="white"/>
<path d="M1598.66 993.099C1599.24 993.186 1599.8 992.851 1599.9 992.351C1600 991.851 1599.61 991.375 1599.03 991.289C1598.44 991.202 1597.89 991.538 1597.79 992.038C1597.69 992.537 1598.08 993.013 1598.66 993.099Z" fill="white"/>
<path d="M1533.66 932.099C1534.24 932.185 1534.8 931.85 1534.9 931.35C1535 930.85 1534.61 930.375 1534.03 930.289C1533.44 930.202 1532.89 930.537 1532.79 931.037C1532.69 931.537 1533.08 932.013 1533.66 932.099Z" fill="white"/>
<path d="M1596.69 865.098C1597.27 865.184 1597.82 864.849 1597.92 864.349C1598.02 863.849 1597.64 863.374 1597.05 863.287C1596.47 863.201 1595.92 863.536 1595.82 864.036C1595.72 864.536 1596.11 865.011 1596.69 865.098Z" fill="white"/>
<path d="M1683.27 966.236C1683.35 965.654 1683.01 965.103 1682.51 965.004C1682.01 964.906 1681.54 965.298 1681.45 965.879C1681.37 966.461 1681.71 967.012 1682.21 967.111C1682.71 967.209 1683.18 966.817 1683.27 966.236Z" fill="white"/>
<path d="M1622.53 1031.48C1622.61 1030.9 1622.27 1030.35 1621.77 1030.25C1621.27 1030.15 1620.8 1030.54 1620.71 1031.12C1620.63 1031.7 1620.97 1032.26 1621.47 1032.35C1621.97 1032.45 1622.44 1032.06 1622.53 1031.48Z" fill="white"/>
<path d="M1642.01 902.4C1642.09 901.819 1641.76 901.267 1641.26 901.169C1640.76 901.07 1640.28 901.462 1640.2 902.044C1640.11 902.625 1640.45 903.177 1640.95 903.275C1641.45 903.373 1641.93 902.982 1642.01 902.4Z" fill="white"/>
<path d="M1742.37 993C1742.46 992.418 1742.12 991.867 1741.62 991.768C1741.12 991.67 1740.65 992.062 1740.56 992.643C1740.48 993.225 1740.81 993.776 1741.32 993.875C1741.82 993.973 1742.29 993.581 1742.37 993Z" fill="white"/>
<path d="M1871.54 937.422C1871.44 936.842 1870.95 936.417 1870.45 936.474C1869.94 936.531 1869.61 937.047 1869.7 937.627C1869.8 938.207 1870.28 938.631 1870.79 938.574C1871.3 938.518 1871.63 938.002 1871.54 937.422Z" fill="white"/>
<path d="M1833.33 1031.06C1833.24 1030.48 1832.75 1030.06 1832.24 1030.11C1831.73 1030.17 1831.4 1030.69 1831.5 1031.27C1831.59 1031.85 1832.08 1032.27 1832.58 1032.21C1833.09 1032.16 1833.43 1031.64 1833.33 1031.06Z" fill="white"/>
<path d="M1831.4 904.582C1831.31 904.002 1830.82 903.578 1830.32 903.634C1829.81 903.691 1829.47 904.207 1829.57 904.787C1829.66 905.367 1830.15 905.791 1830.66 905.735C1831.17 905.678 1831.5 905.162 1831.4 904.582Z" fill="white"/>
<path d="M1781.01 956.784C1780.91 956.204 1780.42 955.78 1779.92 955.836C1779.41 955.893 1779.08 956.409 1779.17 956.989C1779.27 957.569 1779.75 957.993 1780.26 957.936C1780.77 957.88 1781.1 957.364 1781.01 956.784Z" fill="white"/>
<path d="M1764.61 858.849C1764.52 858.269 1764.03 857.844 1763.52 857.901C1763.02 857.958 1762.68 858.474 1762.78 859.054C1762.87 859.634 1763.36 860.058 1763.87 860.001C1764.37 859.945 1764.71 859.429 1764.61 858.849Z" fill="white"/>
<path d="M1900.35 890.306C1900.25 889.726 1899.77 889.302 1899.26 889.359C1898.75 889.415 1898.42 889.931 1898.51 890.511C1898.61 891.091 1899.1 891.516 1899.6 891.459C1900.11 891.402 1900.44 890.886 1900.35 890.306Z" fill="white"/>
<path d="M1764.43 755.91C1764.51 755.328 1764.17 754.777 1763.67 754.678C1763.17 754.58 1762.7 754.972 1762.61 755.553C1762.53 756.135 1762.87 756.686 1763.37 756.785C1763.87 756.883 1764.34 756.491 1764.43 755.91Z" fill="white"/>
<path d="M1703.69 821.153C1703.77 820.571 1703.43 820.02 1702.93 819.922C1702.43 819.823 1701.96 820.215 1701.87 820.797C1701.79 821.378 1702.13 821.93 1702.63 822.028C1703.13 822.126 1703.6 821.735 1703.69 821.153Z" fill="white"/>
<path d="M1723.17 692.074C1723.25 691.493 1722.92 690.941 1722.42 690.843C1721.92 690.744 1721.44 691.136 1721.36 691.718C1721.27 692.299 1721.61 692.851 1722.11 692.949C1722.61 693.048 1723.09 692.656 1723.17 692.074Z" fill="white"/>
<path d="M1823.53 782.674C1823.62 782.092 1823.28 781.541 1822.78 781.442C1822.28 781.344 1821.81 781.736 1821.72 782.317C1821.64 782.899 1821.97 783.45 1822.47 783.548C1822.98 783.647 1823.45 783.255 1823.53 782.674Z" fill="white"/>
<path d="M1805.27 717.746C1805.36 717.165 1805.02 716.613 1804.52 716.515C1804.02 716.416 1803.55 716.808 1803.46 717.39C1803.38 717.971 1803.71 718.523 1804.22 718.621C1804.72 718.719 1805.19 718.328 1805.27 717.746Z" fill="white"/>
<path d="M1725.68 570.577C1725.77 569.996 1725.43 569.445 1724.93 569.346C1724.43 569.248 1723.96 569.639 1723.87 570.221C1723.79 570.803 1724.13 571.354 1724.63 571.452C1725.13 571.551 1725.6 571.159 1725.68 570.577Z" fill="white"/>
<path d="M1650.58 779.562C1650.67 778.981 1650.33 778.429 1649.83 778.331C1649.33 778.233 1648.85 778.624 1648.77 779.206C1648.69 779.788 1649.02 780.339 1649.52 780.437C1650.02 780.536 1650.5 780.144 1650.58 779.562Z" fill="white"/>
<path d="M1684.43 506.742C1684.51 506.16 1684.18 505.609 1683.68 505.511C1683.17 505.412 1682.7 505.804 1682.62 506.385C1682.53 506.967 1682.87 507.518 1683.37 507.617C1683.87 507.715 1684.34 507.323 1684.43 506.742Z" fill="white"/>
<path d="M1600.58 507.562C1600.67 506.981 1600.33 506.429 1599.83 506.331C1599.33 506.233 1598.85 506.624 1598.77 507.206C1598.69 507.788 1599.02 508.339 1599.52 508.437C1600.02 508.536 1600.5 508.144 1600.58 507.562Z" fill="white"/>
<path d="M1875.75 635.402C1875.65 634.823 1875.17 634.398 1874.66 634.455C1874.15 634.512 1873.82 635.028 1873.91 635.608C1874.01 636.188 1874.5 636.612 1875 636.555C1875.51 636.499 1875.84 635.982 1875.75 635.402Z" fill="white"/>
<path d="M1873.82 508.923C1873.73 508.343 1873.24 507.919 1872.73 507.976C1872.23 508.033 1871.89 508.549 1871.99 509.129C1872.08 509.709 1872.57 510.133 1873.08 510.076C1873.58 510.02 1873.92 509.503 1873.82 508.923Z" fill="white"/>
<path d="M1823.42 561.125C1823.33 560.545 1822.84 560.121 1822.33 560.178C1821.83 560.235 1821.49 560.751 1821.59 561.331C1821.68 561.911 1822.17 562.335 1822.68 562.278C1823.19 562.221 1823.52 561.705 1823.42 561.125Z" fill="white"/>
<path d="M1807.03 463.19C1806.94 462.61 1806.45 462.186 1805.94 462.243C1805.44 462.299 1805.1 462.815 1805.2 463.395C1805.29 463.975 1805.78 464.4 1806.29 464.343C1806.79 464.286 1807.13 463.77 1807.03 463.19Z" fill="white"/>
<path d="M1679.58 361.562C1679.67 360.981 1679.33 360.43 1678.83 360.331C1678.33 360.233 1677.85 360.624 1677.77 361.206C1677.69 361.788 1678.02 362.339 1678.52 362.437C1679.02 362.536 1679.5 362.144 1679.58 361.562Z" fill="white"/>
<path d="M1746.1 425.495C1746.19 424.913 1745.85 424.362 1745.35 424.263C1744.85 424.165 1744.38 424.557 1744.29 425.138C1744.21 425.72 1744.55 426.271 1745.05 426.369C1745.55 426.468 1746.02 426.076 1746.1 425.495Z" fill="white"/>
<path d="M1765.59 296.416C1765.67 295.834 1765.34 295.283 1764.83 295.184C1764.33 295.086 1763.86 295.478 1763.78 296.059C1763.69 296.641 1764.03 297.192 1764.53 297.291C1765.03 297.389 1765.5 296.997 1765.59 296.416Z" fill="white"/>
<path d="M1865.95 387.015C1866.04 386.433 1865.7 385.882 1865.2 385.784C1864.7 385.685 1864.22 386.077 1864.14 386.659C1864.06 387.24 1864.39 387.792 1864.89 387.89C1865.39 387.988 1865.87 387.597 1865.95 387.015Z" fill="white"/>
<path d="M1847.69 322.088C1847.78 321.506 1847.44 320.955 1846.94 320.856C1846.44 320.758 1845.96 321.15 1845.88 321.731C1845.8 322.313 1846.13 322.864 1846.63 322.963C1847.13 323.061 1847.61 322.669 1847.69 322.088Z" fill="white"/>
<path d="M1321.18 18.0977C1321.76 18.1841 1322.31 17.8489 1322.41 17.349C1322.51 16.8491 1322.12 16.3738 1321.54 16.2873C1320.96 16.2009 1320.41 16.5361 1320.31 17.036C1320.2 17.5359 1320.59 18.0112 1321.18 18.0977Z" fill="white"/>
<path d="M1386.18 0.0976665C1386.76 0.184113 1387.31 -0.15106 1387.41 -0.650966C1387.51 -1.15087 1387.12 -1.62621 1386.54 -1.71265C1385.96 -1.7991 1385.41 -1.46392 1385.31 -0.964015C1385.2 -0.464109 1385.59 0.0112204 1386.18 0.0976665Z" fill="white"/>
<path d="M1376.24 147.482C1376.82 147.389 1377.24 146.903 1377.19 146.396C1377.13 145.889 1376.62 145.553 1376.04 145.646C1375.46 145.738 1375.03 146.224 1375.09 146.731C1375.14 147.238 1375.66 147.574 1376.24 147.482Z" fill="white"/>
<path d="M1282.75 108.902C1283.33 108.809 1283.76 108.323 1283.7 107.817C1283.65 107.31 1283.13 106.974 1282.55 107.066C1281.97 107.159 1281.55 107.645 1281.6 108.151C1281.66 108.658 1282.17 108.994 1282.75 108.902Z" fill="white"/>
<path d="M1409.24 107.482C1409.82 107.389 1410.24 106.903 1410.19 106.396C1410.13 105.889 1409.62 105.553 1409.04 105.646C1408.46 105.738 1408.03 106.224 1408.09 106.731C1408.14 107.238 1408.66 107.574 1409.24 107.482Z" fill="white"/>
<path d="M1357.24 56.8744C1357.82 56.782 1358.24 56.296 1358.19 55.789C1358.13 55.2821 1357.62 54.9461 1357.04 55.0386C1356.46 55.1311 1356.03 55.617 1356.09 56.124C1356.14 56.631 1356.66 56.9669 1357.24 56.8744Z" fill="white"/>
<path d="M1455.24 40.8744C1455.82 40.7819 1456.24 40.296 1456.19 39.789C1456.13 39.2821 1455.62 38.9461 1455.04 39.0386C1454.46 39.1311 1454.03 39.617 1454.09 40.124C1454.14 40.6309 1454.66 40.9669 1455.24 40.8744Z" fill="white"/>
<path d="M1492.75 451.874C1493.33 451.782 1493.76 451.296 1493.7 450.789C1493.65 450.282 1493.13 449.946 1492.55 450.039C1491.97 450.131 1491.55 450.617 1491.6 451.124C1491.66 451.631 1492.17 451.967 1492.75 451.874Z" fill="white"/>
<path d="M1423.24 176.482C1423.82 176.389 1424.24 175.903 1424.19 175.396C1424.13 174.889 1423.62 174.553 1423.04 174.646C1422.46 174.738 1422.03 175.224 1422.09 175.731C1422.14 176.238 1422.66 176.574 1423.24 176.482Z" fill="white"/>
<path d="M1558.18 41.0977C1558.76 41.1841 1559.31 40.8489 1559.41 40.349C1559.51 39.8491 1559.12 39.3738 1558.54 39.2873C1557.96 39.2009 1557.41 39.5361 1557.31 40.036C1557.2 40.5359 1557.59 41.0112 1558.18 41.0977Z" fill="white"/>
<path d="M1622.18 0.0976665C1622.76 0.184113 1623.31 -0.15106 1623.41 -0.650966C1623.51 -1.15087 1623.12 -1.62621 1622.54 -1.71265C1621.96 -1.7991 1621.41 -1.46392 1621.31 -0.964015C1621.2 -0.464109 1621.59 0.0112204 1622.18 0.0976665Z" fill="white"/>
<path d="M1531.18 100.098C1531.76 100.184 1532.31 99.8489 1532.41 99.349C1532.51 98.8491 1532.12 98.3738 1531.54 98.2873C1530.96 98.2009 1530.41 98.5361 1530.31 99.036C1530.2 99.5359 1530.59 100.011 1531.18 100.098Z" fill="white"/>
<path d="M1596.18 82.0977C1596.76 82.1841 1597.31 81.8489 1597.41 81.349C1597.51 80.8491 1597.12 80.3738 1596.54 80.2873C1595.96 80.2009 1595.41 80.5361 1595.31 81.036C1595.2 81.5359 1595.59 82.0112 1596.18 82.0977Z" fill="white"/>
<path d="M1743.66 3.09767C1744.24 3.18412 1744.8 2.84895 1744.9 2.34904C1745 1.84914 1744.61 1.3738 1744.03 1.28736C1743.44 1.20091 1742.89 1.53609 1742.79 2.03599C1742.69 2.5359 1743.08 3.01123 1743.66 3.09767Z" fill="white"/>
<path d="M1716.66 62.0977C1717.24 62.1841 1717.8 61.8489 1717.9 61.349C1718 60.8491 1717.61 60.3738 1717.03 60.2873C1716.44 60.2009 1715.89 60.5361 1715.79 61.036C1715.69 61.5359 1716.08 62.0112 1716.66 62.0977Z" fill="white"/>
<path d="M1781.66 44.0977C1782.24 44.1841 1782.8 43.8489 1782.9 43.349C1783 42.8491 1782.61 42.3738 1782.03 42.2873C1781.44 42.2009 1780.89 42.5361 1780.79 43.036C1780.69 43.5359 1781.08 44.0112 1781.66 44.0977Z" fill="white"/>
<path d="M1681.24 240.874C1681.82 240.782 1682.24 240.296 1682.19 239.789C1682.13 239.282 1681.62 238.946 1681.04 239.039C1680.46 239.131 1680.03 239.617 1680.09 240.124C1680.14 240.631 1680.66 240.967 1681.24 240.874Z" fill="white"/>
<path d="M1678.24 152.902C1678.82 152.809 1679.24 152.323 1679.19 151.817C1679.13 151.31 1678.62 150.974 1678.04 151.066C1677.46 151.159 1677.03 151.645 1677.09 152.151C1677.14 152.658 1677.66 152.994 1678.24 152.902Z" fill="white"/>
<path d="M1804.72 151.482C1805.3 151.389 1805.73 150.903 1805.68 150.396C1805.62 149.889 1805.11 149.553 1804.53 149.646C1803.94 149.738 1803.52 150.224 1803.57 150.731C1803.63 151.238 1804.14 151.574 1804.72 151.482Z" fill="white"/>
<path d="M1752.72 100.874C1753.3 100.782 1753.73 100.296 1753.67 99.7891C1753.62 99.2821 1753.11 98.9461 1752.53 99.0386C1751.94 99.1311 1751.52 99.6171 1751.57 100.124C1751.63 100.631 1752.14 100.967 1752.72 100.874Z" fill="white"/>
<path d="M1850.72 84.8744C1851.3 84.7819 1851.73 84.296 1851.67 83.789C1851.62 83.2821 1851.11 82.9461 1850.53 83.0386C1849.94 83.1311 1849.52 83.617 1849.57 84.124C1849.63 84.6309 1850.14 84.9669 1850.72 84.8744Z" fill="white"/>
<path d="M1750.59 255.903C1751.17 255.81 1751.6 255.324 1751.54 254.817C1751.49 254.31 1750.97 253.974 1750.39 254.067C1749.81 254.159 1749.38 254.645 1749.44 255.152C1749.49 255.659 1750.01 255.995 1750.59 255.903Z" fill="white"/>
<path d="M1818.72 220.482C1819.3 220.389 1819.73 219.903 1819.67 219.396C1819.62 218.889 1819.11 218.553 1818.53 218.646C1817.94 218.738 1817.52 219.224 1817.57 219.731C1817.63 220.238 1818.14 220.574 1818.72 220.482Z" fill="white"/>
<path d="M1888.66 24.0977C1889.24 24.1841 1889.8 23.8489 1889.9 23.349C1890 22.8491 1889.61 22.3738 1889.03 22.2874C1888.44 22.2009 1887.89 22.5361 1887.79 23.036C1887.69 23.5359 1888.08 24.0112 1888.66 24.0977Z" fill="white"/>
<path d="M139.69 69.0977C140.272 69.1841 140.824 68.8489 140.925 68.349C141.025 67.8491 140.635 67.3738 140.054 67.2873C139.473 67.2009 138.92 67.5361 138.82 68.036C138.719 68.5359 139.109 69.0112 139.69 69.0977Z" fill="white"/>
<path d="M74.6902 8.09766C75.2715 8.1841 75.8241 7.84893 75.9245 7.34903C76.025 6.84912 75.6352 6.37379 75.0539 6.28734C74.4726 6.20089 73.92 6.53607 73.8196 7.03598C73.7191 7.53588 74.1089 8.01121 74.6902 8.09766Z" fill="white"/>
<path d="M203.691 28.0977C204.272 28.1841 204.824 27.8489 204.925 27.349C205.025 26.8491 204.636 26.3738 204.054 26.2873C203.473 26.2009 202.92 26.5361 202.82 27.036C202.719 27.5359 203.109 28.0112 203.691 28.0977Z" fill="white"/>
<path d="M112.69 128.098C113.271 128.184 113.824 127.849 113.925 127.349C114.025 126.849 113.635 126.374 113.054 126.287C112.473 126.201 111.92 126.536 111.82 127.036C111.719 127.536 112.109 128.011 112.69 128.098Z" fill="white"/>
<path d="M177.69 110.098C178.272 110.184 178.824 109.849 178.925 109.349C179.025 108.849 178.635 108.374 178.054 108.287C177.473 108.201 176.92 108.536 176.82 109.036C176.719 109.536 177.109 110.011 177.69 110.098Z" fill="white"/>
<path d="M167.752 257.482C168.332 257.389 168.758 256.903 168.703 256.396C168.649 255.889 168.134 255.553 167.554 255.646C166.973 255.738 166.547 256.224 166.602 256.731C166.657 257.238 167.171 257.574 167.752 257.482Z" fill="white"/>
<path d="M74.2656 218.902C74.846 218.809 75.2721 218.323 75.2175 217.817C75.1628 217.31 74.648 216.974 74.0677 217.066C73.4873 217.159 73.0612 217.645 73.1159 218.151C73.1705 218.658 73.6853 218.994 74.2656 218.902Z" fill="white"/>
<path d="M200.752 217.482C201.332 217.389 201.758 216.903 201.704 216.396C201.649 215.889 201.134 215.553 200.554 215.646C199.973 215.738 199.547 216.224 199.602 216.731C199.657 217.238 200.171 217.574 200.752 217.482Z" fill="white"/>
<path d="M1122.75 41.8744C1123.33 41.782 1123.76 41.296 1123.7 40.789C1123.65 40.2821 1123.13 39.9461 1122.55 40.0386C1121.97 40.1311 1121.55 40.617 1121.6 41.124C1121.66 41.631 1122.17 41.9669 1122.75 41.8744Z" fill="white"/>
<path d="M246.752 150.874C247.332 150.782 247.758 150.296 247.704 149.789C247.649 149.282 247.134 148.946 246.554 149.039C245.973 149.131 245.547 149.617 245.602 150.124C245.657 150.631 246.171 150.967 246.752 150.874Z" fill="white"/>
<path d="M254.752 352.874C255.332 352.782 255.758 352.296 255.704 351.789C255.649 351.282 255.134 350.946 254.554 351.039C253.973 351.131 253.547 351.617 253.602 352.124C253.657 352.631 254.171 352.967 254.752 352.874Z" fill="white"/>
<path d="M214.752 286.482C215.332 286.389 215.758 285.903 215.704 285.396C215.649 284.889 215.134 284.553 214.554 284.646C213.973 284.738 213.547 285.224 213.602 285.731C213.657 286.238 214.171 286.574 214.752 286.482Z" fill="white"/>
<path d="M349.69 151.098C350.272 151.184 350.824 150.849 350.925 150.349C351.025 149.849 350.635 149.374 350.054 149.287C349.473 149.201 348.92 149.536 348.82 150.036C348.719 150.536 349.109 151.011 349.69 151.098Z" fill="white"/>
<path d="M284.69 90.0977C285.272 90.1841 285.824 89.8489 285.925 89.349C286.025 88.8491 285.635 88.3738 285.054 88.2873C284.473 88.2009 283.92 88.5361 283.82 89.036C283.719 89.5359 284.109 90.0112 284.69 90.0977Z" fill="white"/>
<path d="M322.69 210.098C323.272 210.184 323.824 209.849 323.925 209.349C324.025 208.849 323.635 208.374 323.054 208.287C322.473 208.201 321.92 208.536 321.82 209.036C321.719 209.536 322.109 210.011 322.69 210.098Z" fill="white"/>
<path d="M387.69 192.098C388.272 192.184 388.824 191.849 388.925 191.349C389.025 190.849 388.635 190.374 388.054 190.287C387.473 190.201 386.92 190.536 386.82 191.036C386.719 191.536 387.109 192.011 387.69 192.098Z" fill="white"/>
<path d="M535.176 113.098C535.757 113.184 536.31 112.849 536.41 112.349C536.511 111.849 536.121 111.374 535.54 111.287C534.959 111.201 534.406 111.536 534.305 112.036C534.205 112.536 534.595 113.011 535.176 113.098Z" fill="white"/>
<path d="M470.176 52.0977C470.757 52.1841 471.31 51.8489 471.41 51.349C471.511 50.8491 471.121 50.3738 470.54 50.2873C469.958 50.2009 469.406 50.5361 469.305 51.036C469.205 51.5359 469.595 52.0112 470.176 52.0977Z" fill="white"/>
<path d="M599.176 72.0977C599.757 72.1841 600.31 71.8489 600.41 71.349C600.511 70.8491 600.121 70.3738 599.54 70.2873C598.958 70.2009 598.406 70.5361 598.305 71.036C598.205 71.5359 598.595 72.0112 599.176 72.0977Z" fill="white"/>
<path d="M508.176 172.098C508.757 172.184 509.31 171.849 509.41 171.349C509.511 170.849 509.121 170.374 508.54 170.287C507.958 170.201 507.406 170.536 507.305 171.036C507.205 171.536 507.595 172.011 508.176 172.098Z" fill="white"/>
<path d="M759.69 35.0977C760.272 35.1841 760.824 34.8489 760.925 34.349C761.025 33.8491 760.635 33.3738 760.054 33.2873C759.473 33.2009 758.92 33.5361 758.82 34.036C758.719 34.5359 759.109 35.0112 759.69 35.0977Z" fill="white"/>
<path d="M472.752 350.874C473.332 350.782 473.758 350.296 473.703 349.789C473.649 349.282 473.134 348.946 472.554 349.039C471.973 349.131 471.547 349.617 471.602 350.124C471.656 350.631 472.171 350.967 472.752 350.874Z" fill="white"/>
<path d="M469.751 262.902C470.332 262.809 470.758 262.323 470.703 261.817C470.649 261.31 470.134 260.974 469.554 261.066C468.973 261.159 468.547 261.645 468.602 262.151C468.656 262.658 469.171 262.994 469.751 262.902Z" fill="white"/>
<path d="M596.237 261.482C596.818 261.389 597.244 260.903 597.189 260.396C597.134 259.889 596.62 259.553 596.039 259.646C595.459 259.738 595.033 260.224 595.088 260.731C595.142 261.238 595.657 261.574 596.237 261.482Z" fill="white"/>
<path d="M544.237 210.874C544.818 210.782 545.244 210.296 545.189 209.789C545.134 209.282 544.62 208.946 544.039 209.039C543.459 209.131 543.033 209.617 543.088 210.124C543.142 210.631 543.657 210.967 544.237 210.874Z" fill="white"/>
<path d="M642.237 194.874C642.818 194.782 643.244 194.296 643.189 193.789C643.134 193.282 642.62 192.946 642.039 193.039C641.459 193.131 641.033 193.617 641.088 194.124C641.142 194.631 641.657 194.967 642.237 194.874Z" fill="white"/>
<path d="M542.104 365.903C542.684 365.81 543.11 365.324 543.056 364.817C543.001 364.31 542.486 363.974 541.906 364.067C541.325 364.159 540.899 364.645 540.954 365.152C541.009 365.659 541.523 365.995 542.104 365.903Z" fill="white"/>
<path d="M610.237 330.482C610.818 330.389 611.244 329.903 611.189 329.396C611.135 328.889 610.62 328.553 610.039 328.646C609.459 328.738 609.033 329.224 609.088 329.731C609.142 330.238 609.657 330.574 610.237 330.482Z" fill="white"/>
<path d="M745.176 195.098C745.757 195.184 746.31 194.849 746.41 194.349C746.511 193.849 746.121 193.374 745.54 193.287C744.958 193.201 744.406 193.536 744.305 194.036C744.205 194.536 744.595 195.011 745.176 195.098Z" fill="white"/>
<path d="M680.176 134.098C680.757 134.184 681.31 133.849 681.41 133.349C681.511 132.849 681.121 132.374 680.54 132.287C679.958 132.201 679.406 132.536 679.305 133.036C679.205 133.536 679.595 134.011 680.176 134.098Z" fill="white"/>
<path d="M809.176 154.098C809.757 154.184 810.31 153.849 810.41 153.349C810.511 152.849 810.121 152.374 809.54 152.287C808.958 152.201 808.406 152.536 808.305 153.036C808.205 153.536 808.595 154.011 809.176 154.098Z" fill="white"/>
<path d="M718.176 254.098C718.757 254.184 719.31 253.849 719.41 253.349C719.511 252.849 719.121 252.374 718.54 252.287C717.958 252.201 717.406 252.536 717.305 253.036C717.205 253.536 717.595 254.011 718.176 254.098Z" fill="white"/>
<path d="M768.69 329.098C769.272 329.184 769.824 328.849 769.925 328.349C770.025 327.849 769.635 327.374 769.054 327.287C768.473 327.201 767.92 327.536 767.82 328.036C767.719 328.536 768.109 329.011 768.69 329.098Z" fill="white"/>
<path d="M168.176 393.098C168.757 393.184 169.31 392.849 169.411 392.349C169.511 391.849 169.121 391.374 168.54 391.287C167.959 391.201 167.406 391.536 167.306 392.036C167.205 392.536 167.595 393.011 168.176 393.098Z" fill="white"/>
<path d="M103.176 332.098C103.757 332.184 104.31 331.849 104.41 331.349C104.511 330.849 104.121 330.374 103.54 330.287C102.958 330.201 102.406 330.536 102.305 331.036C102.205 331.536 102.595 332.011 103.176 332.098Z" fill="white"/>
<path d="M346.69 323.098C347.272 323.184 347.824 322.849 347.925 322.349C348.025 321.849 347.635 321.374 347.054 321.287C346.473 321.201 345.92 321.536 345.82 322.036C345.719 322.536 346.109 323.011 346.69 323.098Z" fill="white"/>
<path d="M141.176 452.098C141.757 452.184 142.31 451.849 142.41 451.349C142.511 450.849 142.121 450.374 141.54 450.287C140.958 450.201 140.406 450.536 140.305 451.036C140.205 451.536 140.595 452.011 141.176 452.098Z" fill="white"/>
<path d="M196.238 581.482C196.818 581.389 197.244 580.903 197.189 580.396C197.135 579.889 196.62 579.553 196.04 579.646C195.459 579.738 195.033 580.224 195.088 580.731C195.142 581.238 195.657 581.574 196.238 581.482Z" fill="white"/>
<path d="M102.751 542.902C103.332 542.809 103.758 542.323 103.703 541.817C103.649 541.31 103.134 540.974 102.553 541.066C101.973 541.159 101.547 541.645 101.602 542.151C101.656 542.658 102.171 542.994 102.751 542.902Z" fill="white"/>
<path d="M401.751 732.874C402.332 732.782 402.758 732.296 402.703 731.789C402.649 731.282 402.134 730.946 401.554 731.039C400.973 731.131 400.547 731.617 400.602 732.124C400.656 732.631 401.171 732.967 401.751 732.874Z" fill="white"/>
<path d="M177.237 490.874C177.818 490.782 178.244 490.296 178.189 489.789C178.135 489.282 177.62 488.946 177.039 489.039C176.459 489.131 176.033 489.617 176.088 490.124C176.142 490.631 176.657 490.967 177.237 490.874Z" fill="white"/>
<path d="M275.237 474.874C275.818 474.782 276.244 474.296 276.189 473.789C276.135 473.282 275.62 472.946 275.039 473.039C274.459 473.131 274.033 473.617 274.088 474.124C274.142 474.631 274.657 474.967 275.237 474.874Z" fill="white"/>
<path d="M175.104 645.903C175.684 645.81 176.11 645.324 176.056 644.817C176.001 644.31 175.486 643.974 174.906 644.067C174.325 644.159 173.899 644.645 173.954 645.152C174.009 645.659 174.523 645.995 175.104 645.903Z" fill="white"/>
<path d="M243.238 610.482C243.818 610.389 244.244 609.903 244.189 609.396C244.135 608.889 243.62 608.553 243.04 608.646C242.459 608.738 242.033 609.224 242.088 609.731C242.142 610.238 242.657 610.574 243.238 610.482Z" fill="white"/>
<path d="M343.69 667.098C344.272 667.184 344.824 666.849 344.925 666.349C345.025 665.849 344.635 665.374 344.054 665.287C343.473 665.201 342.92 665.536 342.82 666.036C342.719 666.536 343.109 667.011 343.69 667.098Z" fill="white"/>
<path d="M313.176 414.098C313.757 414.184 314.31 413.849 314.411 413.349C314.511 412.849 314.121 412.374 313.54 412.287C312.959 412.201 312.406 412.536 312.306 413.036C312.205 413.536 312.595 414.011 313.176 414.098Z" fill="white"/>
<path d="M442.176 434.098C442.757 434.184 443.31 433.849 443.41 433.349C443.511 432.849 443.121 432.374 442.54 432.287C441.958 432.201 441.406 432.536 441.305 433.036C441.205 433.536 441.595 434.011 442.176 434.098Z" fill="white"/>
<path d="M351.176 534.098C351.757 534.184 352.31 533.849 352.41 533.349C352.511 532.849 352.121 532.374 351.54 532.287C350.958 532.201 350.406 532.536 350.305 533.036C350.205 533.536 350.595 534.011 351.176 534.098Z" fill="white"/>
<path d="M482.176 452.098C482.757 452.184 483.31 451.849 483.41 451.349C483.511 450.849 483.121 450.374 482.54 450.287C481.958 450.201 481.406 450.536 481.305 451.036C481.205 451.536 481.595 452.011 482.176 452.098Z" fill="white"/>
<path d="M611.176 472.098C611.757 472.184 612.31 471.849 612.41 471.349C612.511 470.849 612.121 470.374 611.54 470.287C610.958 470.201 610.406 470.536 610.305 471.036C610.205 471.536 610.595 472.011 611.176 472.098Z" fill="white"/>
<path d="M520.176 572.098C520.757 572.184 521.31 571.849 521.41 571.349C521.511 570.849 521.121 570.374 520.54 570.287C519.959 570.201 519.406 570.536 519.305 571.036C519.205 571.536 519.595 572.011 520.176 572.098Z" fill="white"/>
<path d="M585.176 554.098C585.757 554.184 586.31 553.849 586.41 553.349C586.511 552.849 586.121 552.374 585.54 552.287C584.958 552.201 584.406 552.536 584.305 553.036C584.205 553.536 584.595 554.011 585.176 554.098Z" fill="white"/>
<path d="M575.237 701.482C575.818 701.389 576.244 700.903 576.189 700.396C576.134 699.889 575.62 699.553 575.039 699.646C574.459 699.738 574.033 700.224 574.087 700.731C574.142 701.238 574.657 701.574 575.237 701.482Z" fill="white"/>
<path d="M481.751 662.902C482.332 662.809 482.758 662.323 482.703 661.817C482.649 661.31 482.134 660.974 481.554 661.066C480.973 661.159 480.547 661.645 480.602 662.151C480.656 662.658 481.171 662.994 481.751 662.902Z" fill="white"/>
<path d="M608.237 661.482C608.818 661.389 609.244 660.903 609.189 660.396C609.134 659.889 608.62 659.553 608.039 659.646C607.459 659.738 607.033 660.224 607.087 660.731C607.142 661.238 607.657 661.574 608.237 661.482Z" fill="white"/>
<path d="M788.752 826.874C789.332 826.782 789.758 826.296 789.703 825.789C789.649 825.282 789.134 824.946 788.554 825.039C787.973 825.131 787.547 825.617 787.602 826.124C787.656 826.631 788.171 826.967 788.752 826.874Z" fill="white"/>
<path d="M654.237 594.874C654.818 594.782 655.244 594.296 655.189 593.789C655.134 593.282 654.62 592.946 654.039 593.039C653.459 593.131 653.033 593.617 653.088 594.124C653.142 594.631 653.657 594.967 654.237 594.874Z" fill="white"/>
<path d="M554.104 765.903C554.684 765.81 555.11 765.324 555.055 764.817C555.001 764.31 554.486 763.974 553.906 764.067C553.325 764.159 552.899 764.645 552.954 765.152C553.009 765.659 553.523 765.995 554.104 765.903Z" fill="white"/>
<path d="M678.752 739.874C679.332 739.782 679.758 739.296 679.703 738.789C679.649 738.282 679.134 737.946 678.554 738.039C677.973 738.131 677.547 738.617 677.602 739.124C677.656 739.631 678.171 739.967 678.752 739.874Z" fill="white"/>
<path d="M757.176 595.098C757.757 595.184 758.31 594.849 758.41 594.349C758.511 593.849 758.121 593.374 757.54 593.287C756.958 593.201 756.406 593.536 756.305 594.036C756.205 594.536 756.595 595.011 757.176 595.098Z" fill="white"/>
<path d="M692.176 534.098C692.757 534.184 693.31 533.849 693.41 533.349C693.511 532.849 693.121 532.374 692.54 532.287C691.958 532.201 691.406 532.536 691.305 533.036C691.205 533.536 691.595 534.011 692.176 534.098Z" fill="white"/>
<path d="M821.176 554.098C821.757 554.184 822.31 553.849 822.41 553.349C822.511 552.849 822.121 552.374 821.54 552.287C820.958 552.201 820.406 552.536 820.305 553.036C820.205 553.536 820.595 554.011 821.176 554.098Z" fill="white"/>
<path d="M730.176 654.098C730.757 654.184 731.31 653.849 731.41 653.349C731.511 652.849 731.121 652.374 730.54 652.287C729.958 652.201 729.406 652.536 729.305 653.036C729.205 653.536 729.595 654.011 730.176 654.098Z" fill="white"/>
<path d="M795.176 636.098C795.757 636.184 796.31 635.849 796.41 635.349C796.511 634.849 796.121 634.374 795.54 634.287C794.958 634.201 794.406 634.536 794.305 635.036C794.205 635.536 794.595 636.011 795.176 636.098Z" fill="white"/>
<path d="M937.176 153.098C937.758 153.184 938.31 152.849 938.411 152.349C938.511 151.849 938.121 151.374 937.54 151.287C936.959 151.201 936.406 151.536 936.306 152.036C936.205 152.536 936.595 153.011 937.176 153.098Z" fill="white"/>
<path d="M1001.18 112.098C1001.76 112.184 1002.31 111.849 1002.41 111.349C1002.51 110.849 1002.12 110.374 1001.54 110.287C1000.96 110.201 1000.41 110.536 1000.31 111.036C1000.21 111.536 1000.6 112.011 1001.18 112.098Z" fill="white"/>
<path d="M975.176 194.098C975.758 194.184 976.31 193.849 976.411 193.349C976.511 192.849 976.121 192.374 975.54 192.287C974.959 192.201 974.406 192.536 974.306 193.036C974.205 193.536 974.595 194.011 975.176 194.098Z" fill="white"/>
<path d="M965.238 341.482C965.818 341.389 966.244 340.903 966.189 340.396C966.135 339.889 965.62 339.553 965.04 339.646C964.459 339.738 964.033 340.224 964.088 340.731C964.142 341.238 964.657 341.574 965.238 341.482Z" fill="white"/>
<path d="M871.752 302.902C872.332 302.809 872.758 302.323 872.703 301.817C872.649 301.31 872.134 300.974 871.554 301.066C870.973 301.159 870.547 301.645 870.602 302.151C870.656 302.658 871.171 302.994 871.752 302.902Z" fill="white"/>
<path d="M998.238 301.482C998.818 301.389 999.244 300.903 999.189 300.396C999.135 299.889 998.62 299.553 998.04 299.646C997.459 299.738 997.033 300.224 997.088 300.731C997.142 301.238 997.657 301.574 998.238 301.482Z" fill="white"/>
<path d="M946.237 250.874C946.818 250.782 947.244 250.296 947.189 249.789C947.135 249.282 946.62 248.946 946.039 249.039C945.459 249.131 945.033 249.617 945.088 250.124C945.142 250.631 945.657 250.967 946.237 250.874Z" fill="white"/>
<path d="M1044.24 234.874C1044.82 234.782 1045.24 234.296 1045.19 233.789C1045.13 233.282 1044.62 232.946 1044.04 233.039C1043.46 233.131 1043.03 233.617 1043.09 234.124C1043.14 234.631 1043.66 234.967 1044.24 234.874Z" fill="white"/>
<path d="M944.104 405.903C944.684 405.81 945.11 405.324 945.056 404.817C945.001 404.31 944.486 403.974 943.906 404.067C943.326 404.159 942.899 404.645 942.954 405.152C943.009 405.659 943.523 405.995 944.104 405.903Z" fill="white"/>
<path d="M1012.24 370.482C1012.82 370.389 1013.24 369.903 1013.19 369.396C1013.13 368.889 1012.62 368.553 1012.04 368.646C1011.46 368.738 1011.03 369.224 1011.09 369.731C1011.14 370.238 1011.66 370.574 1012.24 370.482Z" fill="white"/>
<path d="M1147.18 235.098C1147.76 235.184 1148.31 234.849 1148.41 234.349C1148.51 233.849 1148.12 233.374 1147.54 233.287C1146.96 233.201 1146.41 233.536 1146.31 234.036C1146.2 234.536 1146.59 235.011 1147.18 235.098Z" fill="white"/>
<path d="M1082.18 174.098C1082.76 174.184 1083.31 173.849 1083.41 173.349C1083.51 172.849 1083.12 172.374 1082.54 172.287C1081.96 172.201 1081.41 172.536 1081.31 173.036C1081.2 173.536 1081.59 174.011 1082.18 174.098Z" fill="white"/>
<path d="M1211.18 194.098C1211.76 194.184 1212.31 193.849 1212.41 193.349C1212.51 192.849 1212.12 192.374 1211.54 192.287C1210.96 192.201 1210.41 192.536 1210.31 193.036C1210.2 193.536 1210.59 194.011 1211.18 194.098Z" fill="white"/>
<path d="M1120.18 294.098C1120.76 294.184 1121.31 293.849 1121.41 293.349C1121.51 292.849 1121.12 292.374 1120.54 292.287C1119.96 292.201 1119.41 292.536 1119.31 293.036C1119.2 293.536 1119.59 294.011 1120.18 294.098Z" fill="white"/>
<path d="M1185.18 276.098C1185.76 276.184 1186.31 275.849 1186.41 275.349C1186.51 274.849 1186.12 274.374 1185.54 274.287C1184.96 274.201 1184.41 274.536 1184.31 275.036C1184.2 275.536 1184.59 276.011 1185.18 276.098Z" fill="white"/>
<path d="M1332.66 197.098C1333.24 197.184 1333.8 196.849 1333.9 196.349C1334 195.849 1333.61 195.374 1333.03 195.287C1332.44 195.201 1331.89 195.536 1331.79 196.036C1331.69 196.536 1332.08 197.011 1332.66 197.098Z" fill="white"/>
<path d="M1305.66 256.098C1306.24 256.184 1306.8 255.849 1306.9 255.349C1307 254.849 1306.61 254.374 1306.03 254.287C1305.44 254.201 1304.89 254.536 1304.79 255.036C1304.69 255.536 1305.08 256.011 1305.66 256.098Z" fill="white"/>
<path d="M1370.66 238.098C1371.24 238.184 1371.8 237.849 1371.9 237.349C1372 236.849 1371.61 236.374 1371.03 236.287C1370.44 236.201 1369.89 236.536 1369.79 237.036C1369.69 237.536 1370.08 238.011 1370.66 238.098Z" fill="white"/>
<path d="M1270.24 434.874C1270.82 434.782 1271.24 434.296 1271.19 433.789C1271.13 433.282 1270.62 432.946 1270.04 433.039C1269.46 433.131 1269.03 433.617 1269.09 434.124C1269.14 434.631 1269.66 434.967 1270.24 434.874Z" fill="white"/>
<path d="M1267.24 346.902C1267.82 346.809 1268.24 346.323 1268.19 345.817C1268.13 345.31 1267.62 344.974 1267.04 345.066C1266.46 345.159 1266.03 345.645 1266.09 346.151C1266.14 346.658 1266.66 346.994 1267.24 346.902Z" fill="white"/>
<path d="M1393.72 345.482C1394.3 345.389 1394.73 344.903 1394.67 344.396C1394.62 343.889 1394.11 343.553 1393.53 343.646C1392.94 343.738 1392.52 344.224 1392.57 344.731C1392.63 345.238 1393.14 345.574 1393.72 345.482Z" fill="white"/>
<path d="M1341.72 294.874C1342.3 294.782 1342.73 294.296 1342.67 293.789C1342.62 293.282 1342.11 292.946 1341.53 293.039C1340.94 293.131 1340.52 293.617 1340.57 294.124C1340.63 294.631 1341.14 294.967 1341.72 294.874Z" fill="white"/>
<path d="M1439.72 278.874C1440.3 278.782 1440.73 278.296 1440.68 277.789C1440.62 277.282 1440.11 276.946 1439.53 277.039C1438.94 277.131 1438.52 277.617 1438.57 278.124C1438.63 278.631 1439.14 278.967 1439.72 278.874Z" fill="white"/>
<path d="M1339.59 449.903C1340.17 449.81 1340.6 449.324 1340.54 448.817C1340.49 448.31 1339.97 447.974 1339.39 448.067C1338.81 448.159 1338.38 448.645 1338.44 449.152C1338.49 449.659 1339.01 449.995 1339.59 449.903Z" fill="white"/>
<path d="M1407.72 414.482C1408.3 414.389 1408.73 413.903 1408.67 413.396C1408.62 412.889 1408.11 412.553 1407.53 412.646C1406.94 412.738 1406.52 413.224 1406.57 413.731C1406.63 414.238 1407.14 414.574 1407.72 414.482Z" fill="white"/>
<path d="M1542.66 279.098C1543.24 279.184 1543.8 278.849 1543.9 278.349C1544 277.849 1543.61 277.374 1543.03 277.287C1542.44 277.201 1541.89 277.536 1541.79 278.036C1541.69 278.536 1542.08 279.011 1542.66 279.098Z" fill="white"/>
<path d="M1606.66 238.098C1607.24 238.184 1607.8 237.849 1607.9 237.349C1608 236.849 1607.61 236.374 1607.03 236.287C1606.44 236.201 1605.89 236.536 1605.79 237.036C1605.69 237.536 1606.08 238.011 1606.66 238.098Z" fill="white"/>
<path d="M1515.66 338.098C1516.24 338.184 1516.8 337.849 1516.9 337.349C1517 336.849 1516.61 336.374 1516.03 336.287C1515.44 336.201 1514.89 336.536 1514.79 337.036C1514.69 337.536 1515.08 338.011 1515.66 338.098Z" fill="white"/>
<path d="M1580.66 320.098C1581.24 320.184 1581.8 319.849 1581.9 319.349C1582 318.849 1581.61 318.374 1581.03 318.287C1580.44 318.201 1579.89 318.536 1579.79 319.036C1579.69 319.536 1580.08 320.011 1580.66 320.098Z" fill="white"/>
<path d="M838.69 463.098C839.272 463.184 839.824 462.849 839.925 462.349C840.025 461.849 839.635 461.374 839.054 461.287C838.473 461.201 837.92 461.536 837.82 462.036C837.719 462.536 838.109 463.011 838.69 463.098Z" fill="white"/>
<path d="M900.662 416.098C901.243 416.184 901.796 415.849 901.896 415.349C901.997 414.849 901.607 414.374 901.026 414.287C900.444 414.201 899.892 414.536 899.791 415.036C899.691 415.536 900.081 416.011 900.662 416.098Z" fill="white"/>
<path d="M1144.18 407.098C1144.76 407.184 1145.31 406.849 1145.41 406.349C1145.51 405.849 1145.12 405.374 1144.54 405.287C1143.96 405.201 1143.41 405.536 1143.31 406.036C1143.2 406.536 1143.59 407.011 1144.18 407.098Z" fill="white"/>
<path d="M938.662 536.098C939.243 536.184 939.796 535.849 939.896 535.349C939.997 534.849 939.607 534.374 939.026 534.287C938.445 534.201 937.892 534.536 937.791 535.036C937.691 535.536 938.081 536.011 938.662 536.098Z" fill="white"/>
<path d="M1003.66 518.098C1004.24 518.184 1004.8 517.849 1004.9 517.349C1005 516.849 1004.61 516.374 1004.03 516.287C1003.44 516.201 1002.89 516.536 1002.79 517.036C1002.69 517.536 1003.08 518.011 1003.66 518.098Z" fill="white"/>
<path d="M1135.75 745.874C1136.33 745.782 1136.76 745.296 1136.7 744.789C1136.65 744.282 1136.13 743.946 1135.55 744.039C1134.97 744.131 1134.55 744.617 1134.6 745.124C1134.66 745.631 1135.17 745.967 1135.75 745.874Z" fill="white"/>
<path d="M900.238 626.902C900.818 626.809 901.244 626.323 901.189 625.817C901.135 625.31 900.62 624.974 900.04 625.066C899.459 625.159 899.033 625.645 899.088 626.151C899.142 626.658 899.657 626.994 900.238 626.902Z" fill="white"/>
<path d="M1026.72 625.482C1027.3 625.389 1027.73 624.903 1027.68 624.396C1027.62 623.889 1027.11 623.553 1026.53 623.646C1025.94 623.738 1025.52 624.224 1025.57 624.731C1025.63 625.238 1026.14 625.574 1026.72 625.482Z" fill="white"/>
<path d="M754.752 461.874C755.332 461.782 755.758 461.296 755.703 460.789C755.649 460.282 755.134 459.946 754.554 460.039C753.973 460.131 753.547 460.617 753.602 461.124C753.656 461.631 754.171 461.967 754.752 461.874Z" fill="white"/>
<path d="M1072.72 558.874C1073.3 558.782 1073.73 558.296 1073.67 557.789C1073.62 557.282 1073.11 556.946 1072.53 557.039C1071.94 557.131 1071.52 557.617 1071.57 558.124C1071.63 558.631 1072.14 558.967 1072.72 558.874Z" fill="white"/>
<path d="M972.59 729.903C973.17 729.81 973.596 729.324 973.541 728.817C973.487 728.31 972.972 727.974 972.392 728.067C971.811 728.159 971.385 728.645 971.44 729.152C971.494 729.659 972.009 729.995 972.59 729.903Z" fill="white"/>
<path d="M1040.72 694.482C1041.3 694.389 1041.73 693.903 1041.67 693.396C1041.62 692.889 1041.11 692.553 1040.53 692.646C1039.94 692.738 1039.52 693.224 1039.57 693.731C1039.63 694.238 1040.14 694.574 1040.72 694.482Z" fill="white"/>
<path d="M1175.66 559.098C1176.24 559.184 1176.8 558.849 1176.9 558.349C1177 557.849 1176.61 557.374 1176.03 557.287C1175.44 557.201 1174.89 557.536 1174.79 558.036C1174.69 558.536 1175.08 559.011 1175.66 559.098Z" fill="white"/>
<path d="M1110.66 498.098C1111.24 498.184 1111.8 497.849 1111.9 497.349C1112 496.849 1111.61 496.374 1111.03 496.287C1110.44 496.201 1109.89 496.536 1109.79 497.036C1109.69 497.536 1110.08 498.011 1110.66 498.098Z" fill="white"/>
<path d="M1239.66 518.098C1240.24 518.184 1240.8 517.849 1240.9 517.349C1241 516.849 1240.61 516.374 1240.03 516.287C1239.44 516.201 1238.89 516.536 1238.79 517.036C1238.69 517.536 1239.08 518.011 1239.66 518.098Z" fill="white"/>
<path d="M1148.66 618.098C1149.24 618.184 1149.8 617.849 1149.9 617.349C1150 616.849 1149.61 616.374 1149.03 616.287C1148.44 616.201 1147.89 616.536 1147.79 617.036C1147.69 617.536 1148.08 618.011 1148.66 618.098Z" fill="white"/>
<path d="M1213.66 600.098C1214.24 600.184 1214.8 599.849 1214.9 599.349C1215 598.849 1214.61 598.374 1214.03 598.287C1213.44 598.201 1212.89 598.536 1212.79 599.036C1212.69 599.536 1213.08 600.011 1213.66 600.098Z" fill="white"/>
<path d="M1223.69 681.098C1224.27 681.184 1224.82 680.849 1224.92 680.349C1225.02 679.849 1224.64 679.374 1224.05 679.287C1223.47 679.201 1222.92 679.536 1222.82 680.036C1222.72 680.536 1223.11 681.011 1223.69 681.098Z" fill="white"/>
<path d="M1236.69 813.098C1237.27 813.184 1237.82 812.849 1237.92 812.349C1238.02 811.849 1237.64 811.374 1237.05 811.287C1236.47 811.201 1235.92 811.536 1235.82 812.036C1235.72 812.536 1236.11 813.011 1236.69 813.098Z" fill="white"/>
<path d="M1408.66 556.098C1409.24 556.184 1409.8 555.849 1409.9 555.349C1410 554.849 1409.61 554.374 1409.03 554.287C1408.44 554.201 1407.89 554.536 1407.79 555.036C1407.69 555.536 1408.08 556.011 1408.66 556.098Z" fill="white"/>
<path d="M1317.66 656.098C1318.24 656.184 1318.8 655.849 1318.9 655.349C1319 654.849 1318.61 654.374 1318.03 654.287C1317.44 654.201 1316.89 654.536 1316.79 655.036C1316.69 655.536 1317.08 656.011 1317.66 656.098Z" fill="white"/>
<path d="M1382.66 638.098C1383.24 638.184 1383.8 637.849 1383.9 637.349C1384 636.849 1383.61 636.374 1383.03 636.287C1382.44 636.201 1381.89 636.536 1381.79 637.036C1381.69 637.536 1382.08 638.011 1382.66 638.098Z" fill="white"/>
<path d="M1372.72 785.482C1373.3 785.389 1373.73 784.903 1373.67 784.396C1373.62 783.889 1373.11 783.553 1372.53 783.646C1371.94 783.738 1371.52 784.224 1371.57 784.731C1371.63 785.238 1372.14 785.574 1372.72 785.482Z" fill="white"/>
<path d="M1279.24 746.902C1279.82 746.809 1280.24 746.323 1280.19 745.817C1280.13 745.31 1279.62 744.974 1279.04 745.066C1278.46 745.159 1278.03 745.645 1278.09 746.151C1278.14 746.658 1278.66 746.994 1279.24 746.902Z" fill="white"/>
<path d="M1405.72 745.482C1406.3 745.389 1406.73 744.903 1406.67 744.396C1406.62 743.889 1406.11 743.553 1405.53 743.646C1404.94 743.738 1404.52 744.224 1404.57 744.731C1404.63 745.238 1405.14 745.574 1405.72 745.482Z" fill="white"/>
<path d="M1353.72 694.874C1354.3 694.782 1354.73 694.296 1354.67 693.789C1354.62 693.282 1354.11 692.946 1353.53 693.039C1352.94 693.131 1352.52 693.617 1352.57 694.124C1352.63 694.631 1353.14 694.967 1353.72 694.874Z" fill="white"/>
<path d="M1451.72 678.874C1452.3 678.782 1452.73 678.296 1452.67 677.789C1452.62 677.282 1452.11 676.946 1451.53 677.039C1450.94 677.131 1450.52 677.617 1450.57 678.124C1450.63 678.631 1451.14 678.967 1451.72 678.874Z" fill="white"/>
<path d="M1520.75 801.874C1521.33 801.782 1521.76 801.296 1521.7 800.789C1521.65 800.282 1521.13 799.946 1520.55 800.039C1519.97 800.131 1519.55 800.617 1519.6 801.124C1519.66 801.631 1520.17 801.967 1520.75 801.874Z" fill="white"/>
<path d="M1419.72 814.482C1420.3 814.389 1420.73 813.903 1420.68 813.396C1420.62 812.889 1420.11 812.553 1419.53 812.646C1418.94 812.738 1418.52 813.224 1418.57 813.731C1418.63 814.238 1419.14 814.574 1419.72 814.482Z" fill="white"/>
<path d="M1554.66 679.098C1555.24 679.184 1555.8 678.849 1555.9 678.349C1556 677.849 1555.61 677.374 1555.03 677.287C1554.44 677.201 1553.89 677.536 1553.79 678.036C1553.69 678.536 1554.08 679.011 1554.66 679.098Z" fill="white"/>
<path d="M1489.66 618.098C1490.24 618.184 1490.8 617.849 1490.9 617.349C1491 616.849 1490.61 616.374 1490.03 616.287C1489.44 616.201 1488.89 616.536 1488.79 617.036C1488.69 617.536 1489.08 618.011 1489.66 618.098Z" fill="white"/>
<path d="M1618.66 638.098C1619.24 638.184 1619.8 637.849 1619.9 637.349C1620 636.849 1619.61 636.374 1619.03 636.287C1618.44 636.201 1617.89 636.536 1617.79 637.036C1617.69 637.536 1618.08 638.011 1618.66 638.098Z" fill="white"/>
<path d="M1527.66 738.098C1528.24 738.184 1528.8 737.849 1528.9 737.349C1529 736.849 1528.61 736.374 1528.03 736.287C1527.44 736.201 1526.89 736.536 1526.79 737.036C1526.69 737.536 1527.08 738.011 1527.66 738.098Z" fill="white"/>
<path d="M1592.66 720.098C1593.24 720.184 1593.8 719.849 1593.9 719.349C1594 718.849 1593.61 718.374 1593.03 718.287C1592.44 718.201 1591.89 718.536 1591.79 719.036C1591.69 719.536 1592.08 720.011 1592.66 720.098Z" fill="white"/>
</g>
<g opacity="0.7" filter="url(#filter5_if_113_332)">
<path d="M841.69 484.098C842.271 484.184 842.824 483.849 842.925 483.349C843.025 482.849 842.635 482.374 842.054 482.287C841.473 482.201 840.92 482.536 840.82 483.036C840.719 483.536 841.109 484.011 841.69 484.098Z" fill="white"/>
<path d="M695.204 399.098C695.786 399.184 696.338 398.849 696.439 398.349C696.539 397.849 696.149 397.374 695.568 397.287C694.987 397.201 694.434 397.536 694.334 398.036C694.233 398.536 694.623 399.011 695.204 399.098Z" fill="white"/>
<path d="M907.204 218.098C907.786 218.184 908.338 217.849 908.439 217.349C908.539 216.849 908.149 216.374 907.568 216.287C906.987 216.201 906.434 216.536 906.334 217.036C906.233 217.536 906.623 218.011 907.204 218.098Z" fill="white"/>
<path d="M1275.2 135.098C1275.79 135.184 1276.34 134.849 1276.44 134.349C1276.54 133.849 1276.15 133.374 1275.57 133.287C1274.99 133.201 1274.43 133.536 1274.33 134.036C1274.23 134.536 1274.62 135.011 1275.2 135.098Z" fill="white"/>
<path d="M1484.2 216.098C1484.79 216.184 1485.34 215.849 1485.44 215.349C1485.54 214.849 1485.15 214.374 1484.57 214.287C1483.99 214.201 1483.43 214.536 1483.33 215.036C1483.23 215.536 1483.62 216.011 1484.2 216.098Z" fill="white"/>
<path d="M1604.2 403.098C1604.79 403.184 1605.34 402.849 1605.44 402.349C1605.54 401.849 1605.15 401.374 1604.57 401.287C1603.99 401.201 1603.43 401.536 1603.33 402.036C1603.23 402.536 1603.62 403.011 1604.2 403.098Z" fill="white"/>
<path d="M1342.2 542.098C1342.79 542.184 1343.34 541.849 1343.44 541.349C1343.54 540.849 1343.15 540.374 1342.57 540.287C1341.99 540.201 1341.43 540.536 1341.33 541.036C1341.23 541.536 1341.62 542.011 1342.2 542.098Z" fill="white"/>
<path d="M1781.2 609.098C1781.79 609.184 1782.34 608.849 1782.44 608.349C1782.54 607.849 1782.15 607.374 1781.57 607.287C1780.99 607.201 1780.43 607.536 1780.33 608.036C1780.23 608.536 1780.62 609.011 1781.2 609.098Z" fill="white"/>
<path d="M1226.2 728.098C1226.79 728.184 1227.34 727.849 1227.44 727.349C1227.54 726.849 1227.15 726.374 1226.57 726.287C1225.99 726.201 1225.43 726.536 1225.33 727.036C1225.23 727.536 1225.62 728.011 1226.2 728.098Z" fill="white"/>
<path d="M875.204 99.0977C875.786 99.1841 876.338 98.8489 876.439 98.349C876.539 97.8491 876.149 97.3738 875.568 97.2873C874.987 97.2009 874.434 97.5361 874.334 98.036C874.233 98.5359 874.623 99.0112 875.204 99.0977Z" fill="white"/>
<path d="M299.69 237.098C300.272 237.184 300.824 236.849 300.925 236.349C301.025 235.849 300.635 235.374 300.054 235.287C299.473 235.201 298.92 235.536 298.82 236.036C298.719 236.536 299.109 237.011 299.69 237.098Z" fill="white"/>
<path d="M1573.2 1054.1C1573.79 1054.18 1574.34 1053.85 1574.44 1053.35C1574.54 1052.85 1574.15 1052.37 1573.57 1052.29C1572.99 1052.2 1572.43 1052.54 1572.33 1053.04C1572.23 1053.54 1572.62 1054.01 1573.2 1054.1Z" fill="white"/>
<path d="M1728.2 927.098C1728.79 927.184 1729.34 926.849 1729.44 926.349C1729.54 925.849 1729.15 925.374 1728.57 925.287C1727.99 925.201 1727.43 925.536 1727.33 926.036C1727.23 926.536 1727.62 927.011 1728.2 927.098Z" fill="white"/>
<path d="M1173.2 1063.1C1173.79 1063.18 1174.34 1062.85 1174.44 1062.35C1174.54 1061.85 1174.15 1061.37 1173.57 1061.29C1172.99 1061.2 1172.43 1061.54 1172.33 1062.04C1172.23 1062.54 1172.62 1063.01 1173.2 1063.1Z" fill="white"/>
<path d="M994.204 869.098C994.786 869.184 995.338 868.849 995.439 868.349C995.539 867.849 995.149 867.374 994.568 867.287C993.987 867.201 993.434 867.536 993.334 868.036C993.233 868.536 993.623 869.011 994.204 869.098Z" fill="white"/>
<path d="M685.204 945.098C685.786 945.184 686.338 944.849 686.439 944.349C686.539 943.849 686.149 943.374 685.568 943.287C684.987 943.201 684.434 943.536 684.334 944.036C684.233 944.536 684.623 945.011 685.204 945.098Z" fill="white"/>
<path d="M365.204 1037.1C365.786 1037.18 366.338 1036.85 366.439 1036.35C366.539 1035.85 366.149 1035.37 365.568 1035.29C364.987 1035.2 364.434 1035.54 364.334 1036.04C364.233 1036.54 364.623 1037.01 365.204 1037.1Z" fill="white"/>
<path d="M414.204 521.098C414.786 521.184 415.338 520.849 415.439 520.349C415.539 519.849 415.149 519.374 414.568 519.287C413.987 519.201 413.434 519.536 413.334 520.036C413.233 520.536 413.623 521.011 414.204 521.098Z" fill="white"/>
<path d="M208.205 436.098C208.786 436.184 209.338 435.849 209.439 435.349C209.539 434.849 209.149 434.374 208.568 434.287C207.987 434.201 207.434 434.536 207.334 435.036C207.233 435.536 207.623 436.011 208.205 436.098Z" fill="white"/>
<path d="M422.204 111.098C422.786 111.184 423.338 110.849 423.439 110.349C423.539 109.849 423.149 109.374 422.568 109.287C421.987 109.201 421.434 109.536 421.334 110.036C421.233 110.536 421.623 111.011 422.204 111.098Z" fill="white"/>
</g>
<defs>
<filter id="filter0_ddf_113_332" x="78.7589" y="737.193" width="94.19" height="116.776" filterUnits="userSpaceOnUse" color-interpolation-filters="sRGB">
<feFlood flood-opacity="0" result="BackgroundImageFix"/>
<feColorMatrix in="SourceAlpha" type="matrix" values="0 0 0 0 0 0 0 0 0 0 0 0 0 0 0 0 0 0 127 0" result="hardAlpha"/>
<feOffset dx="-13" dy="9"/>
<feGaussianBlur stdDeviation="13.5"/>
<feComposite in2="hardAlpha" operator="out"/>
<feColorMatrix type="matrix" values="0 0 0 0 1 0 0 0 0 0.78 0 0 0 0 0 0 0 0 1 0"/>
<feBlend mode="normal" in2="BackgroundImageFix" result="effect1_dropShadow_113_332"/>
<feColorMatrix in="SourceAlpha" type="matrix" values="0 0 0 0 0 0 0 0 0 0 0 0 0 0 0 0 0 0 127 0" result="hardAlpha"/>
<feOffset dx="-16" dy="26"/>
<feGaussianBlur stdDeviation="11.5"/>
<feComposite in2="hardAlpha" operator="out"/>
<feColorMatrix type="matrix" values="0 0 0 0 0.941667 0 0 0 0 0.351163 0 0 0 0 0.0980903 0 0 0 1 0"/>
<feBlend mode="normal" in2="effect1_dropShadow_113_332" result="effect2_dropShadow_113_332"/>
<feBlend mode="normal" in="SourceGraphic" in2="effect2_dropShadow_113_332" result="shape"/>
<feGaussianBlur stdDeviation="10" result="effect3_foregroundBlur_113_332"/>
</filter>
<filter id="filter1_ddf_113_332" x="1361.28" y="500.24" width="88.8123" height="124.408" filterUnits="userSpaceOnUse" color-interpolation-filters="sRGB">
<feFlood flood-opacity="0" result="BackgroundImageFix"/>
<feColorMatrix in="SourceAlpha" type="matrix" values="0 0 0 0 0 0 0 0 0 0 0 0 0 0 0 0 0 0 127 0" result="hardAlpha"/>
<feOffset dx="19" dy="9"/>
<feGaussianBlur stdDeviation="13.5"/>
<feComposite in2="hardAlpha" operator="out"/>
<feColorMatrix type="matrix" values="0 0 0 0 1 0 0 0 0 0.78 0 0 0 0 0 0 0 0 1 0"/>
<feBlend mode="normal" in2="BackgroundImageFix" result="effect1_dropShadow_113_332"/>
<feColorMatrix in="SourceAlpha" type="matrix" values="0 0 0 0 0 0 0 0 0 0 0 0 0 0 0 0 0 0 127 0" result="hardAlpha"/>
<feOffset dx="20" dy="26"/>
<feGaussianBlur stdDeviation="11.5"/>
<feComposite in2="hardAlpha" operator="out"/>
<feColorMatrix type="matrix" values="0 0 0 0 0.941667 0 0 0 0 0.351163 0 0 0 0 0.0980903 0 0 0 1 0"/>
<feBlend mode="normal" in2="effect1_dropShadow_113_332" result="effect2_dropShadow_113_332"/>
<feBlend mode="normal" in="SourceGraphic" in2="effect2_dropShadow_113_332" result="shape"/>
<feGaussianBlur stdDeviation="10" result="effect3_foregroundBlur_113_332"/>
</filter>
<filter id="filter2_ddf_113_332" x="1801.43" y="25.6721" width="100.178" height="133.787" filterUnits="userSpaceOnUse" color-interpolation-filters="sRGB">
<feFlood flood-opacity="0" result="BackgroundImageFix"/>
<feColorMatrix in="SourceAlpha" type="matrix" values="0 0 0 0 0 0 0 0 0 0 0 0 0 0 0 0 0 0 127 0" result="hardAlpha"/>
<feOffset dx="19" dy="-35"/>
<feGaussianBlur stdDeviation="13.5"/>
<feComposite in2="hardAlpha" operator="out"/>
<feColorMatrix type="matrix" values="0 0 0 0 1 0 0 0 0 0.78 0 0 0 0 0 0 0 0 1 0"/>
<feBlend mode="normal" in2="BackgroundImageFix" result="effect1_dropShadow_113_332"/>
<feColorMatrix in="SourceAlpha" type="matrix" values="0 0 0 0 0 0 0 0 0 0 0 0 0 0 0 0 0 0 127 0" result="hardAlpha"/>
<feOffset dx="20" dy="-43"/>
<feGaussianBlur stdDeviation="11.5"/>
<feComposite in2="hardAlpha" operator="out"/>
<feColorMatrix type="matrix" values="0 0 0 0 0.941667 0 0 0 0 0.351163 0 0 0 0 0.0980903 0 0 0 1 0"/>
<feBlend mode="normal" in2="effect1_dropShadow_113_332" result="effect2_dropShadow_113_332"/>
<feBlend mode="normal" in="SourceGraphic" in2="effect2_dropShadow_113_332" result="shape"/>
<feGaussianBlur stdDeviation="10" result="effect3_foregroundBlur_113_332"/>
</filter>
<filter id="filter3_f_113_332" x="80.6182" y="138.702" width="1760.55" height="729.86" filterUnits="userSpaceOnUse" color-interpolation-filters="sRGB">
<feFlood flood-opacity="0" result="BackgroundImageFix"/>
<feBlend mode="normal" in="SourceGraphic" in2="BackgroundImageFix" result="shape"/>
<feGaussianBlur stdDeviation="0.5" result="effect1_foregroundBlur_113_332"/>
</filter>
<filter id="filter4_if_113_332" x="0.111115" y="-106.726" width="2021.8" height="1273.65" filterUnits="userSpaceOnUse" color-interpolation-filters="sRGB">
<feFlood flood-opacity="0" result="BackgroundImageFix"/>
<feBlend mode="normal" in="SourceGraphic" in2="BackgroundImageFix" result="shape"/>
<feColorMatrix in="SourceAlpha" type="matrix" values="0 0 0 0 0 0 0 0 0 0 0 0 0 0 0 0 0 0 127 0" result="hardAlpha"/>
<feOffset dy="-5"/>
<feComposite in2="hardAlpha" operator="arithmetic" k2="-1" k3="1"/>
<feColorMatrix type="matrix" values="0 0 0 0 1 0 0 0 0 0.991333 0 0 0 0 0.783333 0 0 0 1 0"/>
<feBlend mode="normal" in2="shape" result="effect1_innerShadow_113_332"/>
<feGaussianBlur stdDeviation="1.5" result="effect2_foregroundBlur_113_332"/>
</filter>
<filter id="filter5_if_113_332" x="205.318" y="95.2738" width="1579.14" height="969.838" filterUnits="userSpaceOnUse" color-interpolation-filters="sRGB">
<feFlood flood-opacity="0" result="BackgroundImageFix"/>
<feBlend mode="normal" in="SourceGraphic" in2="BackgroundImageFix" result="shape"/>
<feColorMatrix in="SourceAlpha" type="matrix" values="0 0 0 0 0 0 0 0 0 0 0 0 0 0 0 0 0 0 127 0" result="hardAlpha"/>
<feOffset dy="-5"/>
<feComposite in2="hardAlpha" operator="arithmetic" k2="-1" k3="1"/>
<feColorMatrix type="matrix" values="0 0 0 0 1 0 0 0 0 0.991333 0 0 0 0 0.783333 0 0 0 1 0"/>
<feBlend mode="normal" in2="shape" result="effect1_innerShadow_113_332"/>
<feGaussianBlur stdDeviation="1" result="effect2_foregroundBlur_113_332"/>
</filter>
<linearGradient id="paint0_linear_113_332" x1="99.3678" y1="465.582" x2="46.4174" y2="488.718" gradientUnits="userSpaceOnUse">
<stop/>
<stop offset="0.60429" stop-color="white" stop-opacity="0.89"/>
</linearGradient>
<linearGradient id="paint1_linear_113_332" x1="759.645" y1="855.439" x2="722.449" y2="861.98" gradientUnits="userSpaceOnUse">
<stop/>
<stop offset="0.60429" stop-color="white" stop-opacity="0.89"/>
</linearGradient>
<linearGradient id="paint2_linear_113_332" x1="1833.85" y1="802.065" x2="1793.76" y2="774.283" gradientUnits="userSpaceOnUse">
<stop/>
<stop offset="0.60429" stop-color="white" stop-opacity="0.89"/>
</linearGradient>
<linearGradient id="paint3_linear_113_332" x1="1012.34" y1="141.543" x2="972.924" y2="127.366" gradientUnits="userSpaceOnUse">
<stop/>
<stop offset="0.60429" stop-color="white" stop-opacity="0.89"/>
</linearGradient>
</defs>
</svg>
