<svg width="81" height="48" viewBox="0 0 81 48" fill="none" xmlns="http://www.w3.org/2000/svg">
<path d="M66.8818 14.0595C63.882 13.0284 61.2342 11.1744 59.2418 8.71007C57.046 5.9644 54.2501 3.75636 51.0678 2.25486C47.8856 0.753358 44.4014 -0.00181572 40.8818 0.0471059C36.1473 -0.287534 31.4602 1.16988 27.7539 4.12911C24.0476 7.08834 21.594 11.3323 20.8818 16.0157C22.2845 13.6733 24.3957 11.8354 26.9114 10.7665C29.4272 9.69761 32.2178 9.45283 34.8818 10.0674C37.8766 11.1285 40.5202 12.9934 42.5218 15.4568C44.7297 18.1805 47.531 20.3658 50.7125 21.8462C53.8941 23.3266 57.3721 24.0632 60.8818 24C65.6164 24.3346 70.3035 22.8772 74.0098 19.918C77.7161 16.9588 80.1697 12.7149 80.8818 8.0314C79.5046 10.4018 77.4002 12.2675 74.8793 13.3529C72.3584 14.4384 69.5546 14.6861 66.8818 14.0595ZM14.8818 33.9404C17.8816 34.9716 20.5295 36.8256 22.5218 39.2899C24.7176 42.0356 27.5136 44.2436 30.6958 45.7451C33.8781 47.2466 37.3622 48.0018 40.8818 47.9529C45.6164 48.2875 50.3035 46.8301 54.0098 43.8709C57.7161 40.9117 60.1697 36.6677 60.8818 31.9843C59.4791 34.3267 57.368 36.1646 54.8523 37.2335C52.3365 38.3024 49.5458 38.5472 46.8818 37.9326C43.8871 36.8715 41.2435 35.0066 39.2418 32.5432C37.0281 29.8262 34.2256 27.6458 31.0455 26.166C27.8653 24.6862 24.3902 23.9456 20.8818 24C16.1473 23.6654 11.4602 25.1228 7.75386 28.082C4.04755 31.0412 1.594 35.2851 0.881836 39.9686C2.25906 37.5982 4.36347 35.7325 6.88437 34.6471C9.40527 33.5616 12.2091 33.3139 14.8818 33.9404Z"/>
</svg>
