<svg width="81" height="80" viewBox="0 0 81 80" fill="none" xmlns="http://www.w3.org/2000/svg">
<path d="M56.0768 62.8125C53.431 62.5695 50.0352 62.0573 46.7534 58.4731V65.8466C52.7826 69.7656 63.152 69.0462 66.767 64.3359C68.9154 61.5364 69.8009 57.7864 68.2102 53.5392C64.4623 45.9895 55.556 45.5208 52.966 40.7534C50.1046 33.0319 61.9054 31.6367 67.5751 36.8388V29.9075C65.1595 28.3473 61.3182 28.1797 58.6235 28.3253C51.5124 28.7092 46.7338 32.8411 46.8051 38.9961C46.4988 47.5878 56.3098 49.8 61.2362 53.7761C64.582 56.6152 64.3424 63.5003 56.0768 62.8125V62.8125ZM28.0001 67.7366V34.3789H17.2535V28.8628H44.6996V34.3789H33.9307V67.7366H28.0001V67.7366ZM75.2435 5V75H5.24353V5H75.2435ZM80.2435 0H0.24353V80H80.2435V0Z" />
</svg>
