<svg width="52" height="44" viewBox="0 0 52 44" fill="none" xmlns="http://www.w3.org/2000/svg">
<path d="M52 5.96882C50.0877 6.8197 48.0335 7.39463 45.8739 7.65449C48.1022 6.31559 49.7693 4.20832 50.5641 1.72588C48.4705 2.97459 46.1793 3.85355 43.7898 4.32454C42.183 2.60175 40.0548 1.45987 37.7354 1.07616C35.4161 0.692448 33.0355 1.08839 30.9633 2.2025C28.891 3.31661 27.243 5.08657 26.2752 7.23757C25.3073 9.38857 25.0737 11.8003 25.6107 14.0982C21.3686 13.8844 17.2187 12.7772 13.4304 10.8486C9.64201 8.91993 6.29982 6.21296 3.62072 2.90332C2.70466 4.49011 2.17793 6.32987 2.17793 8.28921C2.1769 10.0531 2.60946 11.7899 3.43723 13.3456C4.26499 14.9013 5.46236 16.2278 6.9231 17.2074C5.22903 17.1533 3.57233 16.6936 2.0909 15.8667V16.0047C2.09073 18.4786 2.94291 20.8763 4.50284 22.7911C6.06277 24.7058 8.23438 26.0197 10.6492 26.5097C9.07763 26.9368 7.43 26.9997 5.83071 26.6937C6.51202 28.8223 7.83915 30.6837 9.62632 32.0173C11.4135 33.3509 13.5712 34.0899 15.7974 34.1309C12.0183 37.1099 7.3511 38.7259 2.54664 38.7188C1.69558 38.719 0.845238 38.6691 0 38.5693C4.87681 41.718 10.5538 43.389 16.3516 43.3825C35.9782 43.3825 46.7075 27.0593 46.7075 12.9024C46.7075 12.4425 46.696 11.9779 46.6754 11.518C48.7624 10.0024 50.5639 8.12569 51.9954 5.97572L52 5.96882Z"/>
</svg>
