<svg width="1233" height="1139" viewBox="0 0 1233 1139" fill="none" xmlns="http://www.w3.org/2000/svg">
<g opacity="0.8">
<path fill-rule="evenodd" clip-rule="evenodd" d="M283.276 538.852C283.191 519.228 249.117 497.161 234.562 485.785C205.783 463.283 175.851 442.503 146.197 421.392C116.542 400.281 86.8076 379.227 58.5301 356.05C40.1696 341.005 18.5959 324.06 6.14377 302.576C-20.383 256.794 63.2537 263.593 84.9181 262.592C140.032 260.033 203.248 261.201 254.908 237.36C285.748 223.127 298.045 199.258 291.421 164.469C289.286 153.155 282.967 140.136 288.32 129.114C294.037 117.342 307.188 110.549 318.103 105.994C357.914 89.3982 403.688 87.4753 445.81 85.3922C491.231 83.1031 537.08 83.7727 582.18 83.5953C601.304 83.5209 621.277 76.1557 639.488 70.1697C663.362 62.3238 686.953 53.5108 710.63 44.9896C762.717 26.2877 816.39 6.58994 871.498 1.84005C906.01 -1.13578 943.729 2.88733 970.539 28.7713C984 41.7677 991.045 61.0877 998.827 78.2502C1008.25 98.9838 1017.29 119.918 1027.32 140.325C1059.63 206.051 1105.76 270.277 1180.62 273.505C1191.95 273.991 1203.07 272.406 1214.34 272.108C1221.52 271.925 1227.91 273.785 1230.58 281.837C1237.29 302.033 1216.2 333.914 1207.56 349.938C1188.62 385.013 1167.27 418.514 1147.28 452.884C1134.04 475.615 1111.14 506.678 1110.9 534.296C1110.69 558.904 1141.22 576.69 1157.84 588.811C1173.41 600.159 1201.63 616.04 1203.34 639.126C1204.17 650.319 1197.28 659.596 1190.09 666.795C1177.49 679.385 1162.97 688.267 1151.64 702.631C1133.05 726.197 1117.51 758.622 1120.04 790.378C1121.79 812.382 1133.5 826.792 1148.4 840.567C1154.66 846.358 1159.74 850.455 1160.07 859.858C1160.6 874.789 1155.15 890.589 1150.65 904.432C1134.58 953.974 1111.74 1001.88 1086.34 1046.61C1073.65 1068.96 1059.94 1091.25 1043.11 1110.31C1032.09 1122.84 1017.22 1137.74 1000.41 1137.72C980.947 1137.72 960.35 1130.19 941.429 1124.56C906.09 1114.03 871.178 1101.87 836.405 1089.39C755.989 1060.51 676.328 1029.29 597.424 995.739C541.846 972.064 485.088 948.355 432.835 916.879C422.645 910.698 413.026 903.492 404.109 895.356C394.582 886.812 382.76 882.989 370.772 880.139C296.369 862.45 214.857 876.03 140.144 884.546C121.18 886.703 102.217 888.872 83.1995 890.383C66.8511 891.682 47.2789 895.408 31.3896 889.811C0.0804955 878.795 27.4505 838.192 39.022 821.647C79.7622 763.395 132.325 714.111 181.044 663.796C204.209 639.835 227.549 615.937 249.453 590.62C260.859 577.457 283.351 556.054 283.276 538.852Z" stroke="#5BE7C3"/>
<path fill-rule="evenodd" clip-rule="evenodd" d="M297.319 535.544C284.832 514.779 262.923 499.432 244.737 484.989C218.565 464.196 191.572 444.558 164.984 424.354C139.844 405.249 114.65 385.926 91.3687 364.229C77.1723 350.998 59.3598 335.176 52.6355 315.607C38.0491 273.192 116.52 279.627 135.892 278.517C184.052 275.771 238.653 275.142 283.208 252.81C311.03 238.864 322.459 215.738 316.525 183.63C314.474 172.521 310.778 163.037 315.457 151.986C320.868 139.195 333.312 131.221 344.721 125.593C380.458 107.957 422.7 104.21 461.438 101.093C501.459 97.8725 543.156 95.6015 581.889 97.9582C597.378 98.8963 615.207 93.5708 630.536 89.4866C654.122 83.1943 677.467 75.9353 700.936 69.1855C748.631 55.4569 797.566 42.2318 847.184 40.7274C883.006 39.6406 920.356 45.5324 950.159 68.3046C980.363 91.3971 993.763 127.194 1010.51 161.224C1039.44 220.056 1078.51 291.588 1145.43 304.018C1155.58 305.906 1165.33 304.882 1175.47 305.345C1180.68 305.58 1186.62 306.323 1189.26 311.832C1196.12 326.132 1177.32 352.279 1170.99 363.234C1153.5 393.505 1133.84 422.295 1115.52 451.983C1100.96 475.556 1082.52 501.749 1076.89 529.692C1070.05 563.602 1114.69 587.73 1130.39 611.606C1157.6 653.009 1106.04 676.599 1080.62 696.339C1051.44 719.003 1027.34 760.349 1053.51 795.414C1063.52 808.822 1075.83 816.813 1080.3 834.311C1087.3 861.677 1082.01 892.949 1076.34 920C1067.79 960.665 1054.27 1000.89 1035.88 1037.64C1022.71 1063.96 1000.86 1105.22 968.864 1102.12C947.323 1100.06 925.425 1092.51 904.451 1085.84C873.045 1075.86 842.035 1064.48 811.191 1052.66C739.989 1025.46 669.573 995.461 600.54 962.467C553.438 939.947 422.048 847.914 412.162 844.63C382.685 834.849 349.17 836.571 318.779 838.087C278.353 840.1 238.13 845.317 197.938 850.15C178.807 852.439 159.579 855.236 140.346 856.363C126.657 857.163 108.679 857.85 96.6884 849.321C73.2839 832.681 99.3589 794.607 110.142 778.499C143.177 729.116 184.965 686.352 224.147 642.626C243.375 621.158 262.896 599.725 280.351 576.535C287.39 567.171 305.037 548.369 297.319 535.544Z" stroke="#5ACEF2"/>
<path fill-rule="evenodd" clip-rule="evenodd" d="M314.592 524.894C280.489 483.342 233.42 452.438 192.797 417.735C172.408 400.312 151.89 382.415 134.305 361.661C125.157 350.87 113.734 337.224 111.972 322.181C107.262 281.939 177.988 287.381 199.157 285.853C240.085 282.889 286.32 280.64 323.451 260.105C346.137 247.551 357.308 226.947 353.068 199.865C351.189 187.85 348.262 177.642 353.068 165.843C357.939 153.891 368.085 145.457 378.36 139.134C407.886 120.95 444.579 115.137 477.822 110.805C516.819 105.76 556.11 103.79 595.377 104.912C629.768 105.879 663.994 95.0014 697.573 87.832C742.058 78.3395 787.348 70.0486 832.869 71.3017C868.819 72.2973 905.053 80.119 935.786 100.906C967.016 122.077 985.792 153.765 1002.72 187.958C1028.31 239.649 1060.2 308.918 1116.35 328.549C1124.51 331.41 1132.12 331.725 1140.54 332.223C1144.63 332.463 1149.91 332.537 1151.94 337.109C1156.82 348.118 1138.78 369.46 1133.74 376.899C1117.67 400.644 1100.24 423.32 1083.77 446.751C1068.39 468.625 1051.64 491.421 1042.08 517.055C1026.88 557.88 1075.49 581.752 1074.13 620.654C1073.28 644.806 1051.7 662.126 1034.61 674.108C1013.57 688.841 983.271 698.528 972.74 725.415C964.896 745.442 977.205 757.097 986.684 772.294C1002.75 798.042 1003.84 832.945 1002.17 862.75C999.917 903.026 991.111 943.897 976.121 980.918C969.328 997.7 961.008 1015.16 948.757 1028.19C937.281 1040.41 926.419 1043.54 911.082 1041.04C864.13 1033.37 816.725 1012 771.701 992.911C715.132 968.925 659.342 942.444 605.219 912.651C568.313 892.332 530.573 870.835 498.179 842.764C489.736 835.446 481.09 827.493 474.917 817.84C470.249 810.585 468.268 804.594 460.402 800.451C437.087 788.178 404.655 791.388 379.673 792.664C339.728 794.695 299.976 800.102 260.276 804.971C237.11 807.832 193.47 816.833 174.971 795.244C159.004 776.603 178.271 744.818 188.113 728.396C213.01 686.867 245.035 650.419 274.748 612.89C288.366 595.69 302.517 578.359 313.764 559.236C316.637 554.361 321.24 547.901 322.031 541.979C322.917 535.193 318.779 530.015 314.592 524.894Z" stroke="#5BE7C3"/>
<path fill-rule="evenodd" clip-rule="evenodd" d="M317.524 534.566C286.012 497.827 248.047 467.644 214.217 433.264C199.049 417.849 183.731 401.678 172.173 382.873C165.956 372.76 159.354 360.031 161.068 347.462C165.988 311.387 224.157 314.645 247.658 312.532C282.577 309.428 322.694 306.302 353.571 286.85C373.797 274.109 381.381 255.292 377.605 231.025C373.551 204.993 382.615 186.097 403.242 171.575C429.104 153.383 461.748 145.967 491.776 140.699C527.953 134.382 564.588 131.582 601.235 132.333C636.876 133.066 671.406 126.664 706.812 122.501C753.754 116.987 802.203 114.267 848.617 125.57C889.027 135.414 925.528 157.105 952.89 190.649C981.47 225.659 995.618 269.768 1018.83 308.501C1033.3 332.659 1053.48 364.618 1080.53 374.009C1089.55 377.141 1105.99 372.915 1098.79 388.324C1094.67 397.137 1086.96 404.867 1080.87 412.071C1071.03 423.712 1060.87 435.033 1050.87 446.514C1029.54 470.988 1006.71 495.983 990.731 524.964C970.595 561.451 1000.53 589.533 996.879 626.53C994.919 646.44 982.004 662.33 968.342 674.813C959.502 682.899 949.829 689.902 939.954 696.436C929.64 703.261 917.436 708.461 908.442 717.285C895.623 729.842 901.188 744.708 903.592 760.942C907.822 789.471 908.751 818.451 906.359 847.225C903.432 882.492 896.568 918.768 882.11 950.818C876.486 963.295 869.361 976.523 858.781 984.889C848.2 993.255 837.256 992.682 825.132 990.163C789.171 982.719 753.284 965.397 719.171 948.98C676.474 928.428 634.617 905.46 594.644 879.331C567.052 861.294 539.37 841.807 516.286 817.351C509.572 810.233 503.184 802.611 498.019 794.102C494.473 788.267 492.571 780.737 487.433 776.351C471.357 762.66 439.081 766.748 420.227 767.544C382.599 769.13 345.564 776.672 307.985 778.504C287.475 779.506 255.354 782.026 240.292 763.307C226.128 745.71 238.957 717.995 247.423 701.04C264.06 667.701 286.412 637.999 306.447 607.009C314.682 594.257 323.709 580.915 329.044 566.353C333.787 553.377 325.6 543.986 317.524 534.566Z" stroke="#5ACEF2"/>
<path fill-rule="evenodd" clip-rule="evenodd" d="M325.275 535.168C300.192 502.838 269.954 474.139 244.69 441.284C229.902 422.042 204.435 389.695 215.871 362.569C228.418 332.761 272.153 331.949 297.433 329.548C327.521 326.689 362.856 322.783 388.606 304.171C396.75 298.287 403.687 290.499 406.628 280.241C409.777 269.262 406.335 259.656 405.886 248.666C404.947 225.611 417.787 207.102 434.779 194.391C458.795 176.419 488.825 167.922 517.189 161.998C549.325 155.317 581.994 152.023 614.729 152.163C646.013 152.277 676.966 151.534 708.282 150.676C749.236 149.533 790.767 151.38 830.494 163.039C869.628 174.532 905.208 196.072 933.157 227.755C960.422 258.673 978.818 296.463 994.93 334.957C1004.07 356.805 1019.52 389.455 1041.32 400.491C1051.02 405.403 1060.53 405.066 1050.22 417.84C1037.24 433.924 1019.74 446.83 1004.7 460.588C983.007 480.441 960.769 500.682 942.56 524.286C930.931 539.359 925.749 553.986 926.55 573.501C927.169 588.368 929.976 603.081 928.557 618.005C925.232 653.033 899.493 677.055 876.737 699.424C862.098 713.81 848.729 724.783 841.194 745.248C832.282 769.435 828.541 795.749 822.585 820.863C816.042 848.441 808.485 877.128 794.204 901.419C781.492 923.044 766.031 932.742 742.891 926.915C706.799 917.835 671.224 895.466 639.182 874.773C606.569 853.719 574.517 830.046 547.491 801.107C532.901 785.48 522.942 767.131 509.985 750.343C493.686 729.266 456.815 737.248 434.902 739.032C398.527 741.994 284.07 764.157 294.631 692.373C299.039 662.411 316.4 634.759 329.096 608.318C334.358 597.346 341.973 584.177 343.163 571.603C344.46 557.908 332.815 544.9 325.275 535.168Z" stroke="#FF8062"/>
<path fill-rule="evenodd" clip-rule="evenodd" d="M338.519 537.914C319.352 508.617 296.412 480.938 279.965 449.295C269.296 428.803 258.818 401.422 272.582 379.739C288.117 355.271 322.371 349.567 347.54 346.449C373.472 343.239 404.43 340.539 425.625 321.986C432.368 316.076 437.927 308.107 438.961 298.564C439.959 289.41 437.142 280.257 438.076 270.937C440.167 250.01 452.005 232.767 467.268 220.261C512.415 183.263 579.612 175.036 634.085 174.069C661.35 173.589 689.411 176.112 716.853 177.92C752.462 180.265 788.125 185.3 822.086 197.434C894.291 223.224 942.688 280.423 976.489 351.598C987.126 374.001 995.267 398.241 1011.94 416.245C1020.53 425.542 1018.65 432.218 1009.87 440.697C996.131 453.947 979.375 464.073 964.128 475.131C942.443 490.859 920.293 506.82 901.115 525.659C887.895 538.646 878.511 551.158 875.663 570.632C873.63 584.517 874.105 598.665 872.883 612.636C870.557 639.176 862.592 665.515 848.493 687.53C837.29 704.979 823.953 720.837 810.168 735.958C792.249 755.644 777.093 775.644 763.484 799.009C745.442 829.937 720.091 886.987 677.595 871.889C630.724 855.229 586.792 812.9 556.72 771.886C546.622 758.115 538.332 741.227 524.712 731.072C504.323 715.894 483.635 716.426 459.383 716.489C423.075 716.575 344.067 725.025 343.214 666.716C342.878 643.615 352.203 621.772 356.668 599.552C361.704 574.666 351.611 557.88 338.519 537.914Z" stroke="#F1B170"/>
<path fill-rule="evenodd" clip-rule="evenodd" d="M352.794 540.526C333.834 502.342 291.32 439.598 323.655 397.138C340.736 374.699 370.947 366.266 396.29 361.241C416.686 357.176 441.282 355.65 456.691 338.419C468.018 325.75 462.99 307.313 467.329 291.454C472.715 271.793 485.077 255.705 500.268 243.614C542.719 209.821 601.743 199.45 652.808 197.243C705.844 194.956 764.281 205.653 814.188 226.228C876.415 251.892 923.034 300.487 955.636 362.024C961.652 373.384 967.118 385.041 972.893 396.538C976.774 404.25 982.528 411.711 985.586 419.823C990.678 433.35 984.679 444.406 975.06 453.222C961.225 465.914 944.23 474.947 928.457 484.471C906.887 497.506 884.837 510.306 864.773 525.599C851.29 535.89 837.177 546.975 832.352 564.829C829.059 577.007 828.375 589.904 828.493 602.516C828.749 629.557 827.425 651.425 815.65 676.191C796.275 716.85 766.48 753.41 735.003 783.831C710.301 807.705 671.213 844.791 635.221 828.829C602.928 814.537 584.038 780.326 562.762 752.667C552.417 739.221 540.797 726.941 527.144 717.376C509.93 705.319 493.724 700.259 473.329 698.287C439.002 694.965 387.243 694.102 376.632 649.967C372.714 633.679 374.95 616.808 372.895 600.309C370.21 578.493 362.359 559.787 352.794 540.526Z" stroke="#5BE7C3"/>
<path fill-rule="evenodd" clip-rule="evenodd" d="M372.511 541.939C359.01 500.158 341.274 447.504 373.882 410.37C389.676 392.382 411.893 382.326 433.395 374.811C448.795 369.425 473.247 367.84 482.689 351.282C489.623 339.097 490.583 322.288 496.856 309.233C505.477 291.284 518.535 276.501 533.854 264.928C573.765 234.772 625.747 223.119 673.152 219.782C776.155 212.542 880.962 270.205 936.08 365.076C952.515 393.355 973.729 423.454 947.17 452.345C918.173 483.864 874.491 498.63 839.883 521.026C826.659 529.576 809.809 539.856 802.432 555.337C797.993 564.644 797.689 576.319 797.487 586.564C796.953 612.657 794.932 636.123 785.143 660.47C770.026 698.095 745.921 732.807 718.605 761.241C694.782 786.035 660.808 815.172 626.211 797.298C599.684 783.562 582.86 754.407 562.248 732.916C539.311 708.981 510.944 692.853 479.792 684.971C449.489 677.325 416.251 672.168 400.281 639.683C394.802 628.539 389.079 614.111 387.025 601.777C383.71 581.441 378.856 561.429 372.511 541.939V541.939Z" stroke="#FF8062"/>
<path fill-rule="evenodd" clip-rule="evenodd" d="M394.49 542.234C388.244 500.045 387.55 456.053 416.569 422.802C430.113 407.289 447.233 396.268 464.545 386.283C477.283 378.936 490.436 372.738 499.949 360.693C508.763 349.541 515.462 336.592 523.972 325.147C535.197 309.981 548.627 296.852 563.748 286.265C601.65 259.777 647.758 247.389 691.869 243.092C713.222 241.003 736.385 239.916 757.594 245.609C778.078 251.103 798.331 259.789 817.165 269.917C857.203 291.427 891.902 322.927 917.056 362.753C934.305 390.071 943.631 416.633 921.295 444.346C896.114 475.583 856.632 492.818 824.089 513.092C801.769 526.996 776.754 540.627 772.584 570.176C769.264 593.688 766.568 616.004 757.979 638.229C745.195 671.011 726.399 700.707 702.705 725.555C681.037 748.192 653.625 767.401 622.63 755.31C598.074 745.714 579.021 724.216 557.566 708.846C533.656 691.68 507.386 682.216 479.722 674.605C454.861 667.738 431.453 657.187 415.384 634.785C412.096 630.207 408.642 625.223 406.106 620.102C402.871 613.567 403.122 607.089 402.487 599.765C400.832 580.436 397.314 561.329 394.49 542.234Z" stroke="#F1B170"/>
<path fill-rule="evenodd" clip-rule="evenodd" d="M418.729 538.785C419.262 498.711 428.253 460.838 452.878 429.608C463.406 416.248 475.977 405.244 487.561 393.002C496.888 383.132 505.703 373.962 516.428 365.829C541.87 346.572 562.546 321.652 589.583 304.504C625.675 281.578 667.017 268.906 708.039 263.84C728.07 261.364 748.763 260.498 769.028 263.295C786.434 265.697 803.103 274.128 818.567 282.753C848.874 299.649 878.302 323.664 897.98 354.046C941.366 421.028 855.827 469.728 811.923 498.247C791.733 511.366 760.881 526.56 752.61 552.546C746.698 571.11 743.096 589.989 735.482 607.98C715.029 656.295 673.511 713.122 618.183 705.556C594.508 702.324 572.93 689.193 550.829 680.378C528.071 671.3 504.583 666.239 480.929 660.685C458.822 655.498 441.203 648.116 426.924 628.326C420.1 618.875 420.703 607.561 420.095 595.967C419.102 576.921 418.488 557.767 418.729 538.785Z" stroke="#5BE7C3"/>
<path fill-rule="evenodd" clip-rule="evenodd" d="M440.799 533.653C449.687 473.165 482.7 407.13 531.241 372.002C588.339 330.68 650.197 295.883 718.417 285.88C750.046 281.242 784.693 278.96 814.538 294.127C837.251 305.663 863.634 322.907 876.134 347.157C906.716 406.472 838.693 453.691 799.939 481.132C779.073 495.905 752.514 510.301 736.788 531.874C727.664 544.382 723.006 560.928 715.64 574.666C693.316 616.297 656.57 649.875 610.796 655.881C589.632 658.655 568.313 655.223 547.309 652.495C525.808 649.704 504.04 648.188 482.673 644.293C465.617 641.182 445.516 635.915 439.234 616.349C431.312 591.693 437.172 558.355 440.799 533.653Z" stroke="#5ACEF2"/>
<path fill-rule="evenodd" clip-rule="evenodd" d="M462.442 523.935C475.406 467.067 502.857 411.595 549.005 377.645C573.478 359.643 601.886 347.216 629.161 334.938C660.078 321.023 692.38 310.222 725.372 304.864C766.45 298.19 832.979 292.174 854.441 342.345C875.742 392.144 821.914 436.22 790.083 461.337C769.675 477.427 747.833 492.195 728.335 509.785C717.762 519.322 709.617 530.341 700.669 541.525C675.94 572.515 640.686 597.049 604.753 610.146C569.926 622.841 526.843 628.463 490.081 624.267C474.218 622.464 462.881 616.379 458.084 599.081C451.436 575.034 457.083 547.427 462.442 523.935Z" stroke="#F1B170"/>
<path fill-rule="evenodd" clip-rule="evenodd" d="M483.946 508.619C496.824 458.549 524.602 412.816 565.119 382.764C610.537 349.076 669.02 330.357 722.772 320.837C751.345 315.781 813.262 302.072 827.825 341.307C842.388 380.541 800.287 419.206 776.056 440.49C746.647 466.284 714.939 491.188 683.268 514.331C655.752 534.453 626.391 555.025 596.587 570.564C579.777 579.379 562.267 586.576 544.263 592.071C530.931 596.106 513.979 602.126 500.002 599.122C464.748 591.535 477.787 532.56 483.946 508.619Z" stroke="#FF8062"/>
<path fill-rule="evenodd" clip-rule="evenodd" d="M510.491 493.625C538.747 398.936 628.272 352.366 714.47 336.133C734.5 332.365 790.651 318.78 801.847 347.706C812.696 375.751 778.191 409.01 762.037 424.768C711.981 473.596 650.136 509.8 591.534 545.667C573.242 556.862 540.251 581.156 517.56 569.95C492.924 557.76 504.637 513.26 510.491 493.625Z" stroke="#5ACEF2"/>
<path fill-rule="evenodd" clip-rule="evenodd" d="M539.436 475.4C564.009 405.668 635.482 365.674 701.194 352.49C717.29 349.264 758.167 339.22 770.357 358.679C781.638 376.68 754.716 402.763 744.644 413.127C722.221 436.207 695.648 455.22 669.395 473.495C645.121 490.404 620.585 507.735 595.044 522.035C581.591 529.562 556.36 545.624 541.073 534.001C524.614 521.497 533.98 490.884 539.436 475.4Z" stroke="#5ACEF2"/>
<path fill-rule="evenodd" clip-rule="evenodd" d="M571.331 455.027C590.06 409.489 640.222 379.919 684.471 370.092C696.378 367.454 722.112 360.609 732.156 372.771C741.403 383.97 726.5 400.39 719.885 407.973C690.572 441.584 647.644 471.606 608.313 490.046C598.424 494.681 580.647 503.781 570.475 494.424C560.04 484.815 567.029 465.483 571.331 455.027Z" stroke="#5BE7C3"/>
<path fill-rule="evenodd" clip-rule="evenodd" d="M605.164 435.899C615.718 413.286 643.302 396.226 666.151 390.795C682.231 386.977 701.56 390.275 687.546 409.959C673.624 429.492 647.792 447.332 625.898 455.241C609.194 461.272 596.102 455.322 605.164 435.899Z" stroke="#F1B170"/>
</g>
</svg>
